{
.formatVersion = 3;
classes = (
{
code = "zero one two three four five six seven eight nine";
name = ordn;
}
);
familyName = "Ge示ez Handwriting";
customParameters = (
{
name = glyphOrder;
value = (
.notdef,
space,
exclam,
quotedbl,
numbersign,
dollar,
percent,
ampersand,
quotesingle,
parenleft,
parenright,
asterisk,
plus,
comma,
hyphen,
period,
slash,
zero,
one,
two,
three,
four,
five,
six,
seven,
eight,
nine,
colon,
semicolon,
less,
equal,
greater,
question,
at,
A,
B,
C,
D,
E,
F,
G,
H,
I,
J,
K,
L,
M,
N,
O,
P,
Q,
R,
S,
T,
U,
V,
W,
X,
Y,
Z,
bracketleft,
backslash,
bracketright,
asciicircum,
underscore,
grave,
a,
b,
c,
d,
e,
f,
g,
h,
i,
j,
k,
l,
m,
n,
o,
p,
q,
r,
s,
t,
u,
v,
w,
x,
y,
z,
braceleft,
bar,
braceright,
asciitilde,
uni007F,
uni00A0,
exclamdown,
cent,
sterling,
yen,
section,
dieresis,
copyright,
ordfeminine,
guillemotleft,
logicalnot,
registered,
macron,
degree,
plusminus,
acute,
mu,
paragraph,
periodcentered,
cedilla,
ordmasculine,
guillemotright,
questiondown,
Agrave,
Aacute,
Acircumflex,
Atilde,
Adieresis,
Aring,
AE,
Ccedilla,
Egrave,
Eacute,
Ecircumflex,
Edieresis,
Igrave,
Iacute,
Icircumflex,
Idieresis,
Ntilde,
Ograve,
Oacute,
Ocircumflex,
Otilde,
Odieresis,
Oslash,
Ugrave,
Uacute,
Ucircumflex,
Udieresis,
germandbls,
agrave,
aacute,
acircumflex,
atilde,
adieresis,
aring,
ae,
ccedilla,
egrave,
eacute,
ecircumflex,
edieresis,
igrave,
iacute,
icircumflex,
idieresis,
ntilde,
ograve,
oacute,
ocircumflex,
otilde,
odieresis,
divide,
oslash,
ugrave,
uacute,
ucircumflex,
udieresis,
ydieresis,
OE,
oe,
Ydieresis,
florin,
circumflex,
tilde,
uni03A9,
pi,
uni1200,
uni1201,
uni1202,
uni1203,
uni1204,
uni1205,
uni1206,
uni1207,
uni1208,
uni1209,
uni120A,
uni120B,
uni120C,
uni120D,
uni120E,
uni120F,
uni1210,
uni1211,
uni1212,
uni1213,
uni1214,
uni1215,
uni1216,
uni1217,
uni1218,
uni1219,
uni121A,
uni121B,
uni121C,
uni121D,
uni121E,
uni121F,
uni1220,
uni1221,
uni1222,
uni1223,
uni1224,
uni1225,
uni1226,
uni1227,
uni1228,
uni1229,
uni122A,
uni122B,
uni122C,
uni122D,

glyphs = (
{
glyphname = .notdef;
layers = (
{
layerId = "AC87092A-E990-4874-8484-9ECA7DC3ECD4";
shapes = (
{
closed = 1;
nodes = (
(128.787,0.495,l),
(128.787,1566.712,l),
(937.153,1566.712,l),
(937.153,0.495,l)
);
},
{
closed = 1;
nodes = (
(304.691,166.49,l),
(761.249,166.49,l),
(761.249,1400.717,l),
(304.691,1400.717,l)
);
}
);
width = 1065;
}
);
},
{
glyphname = exclam;
layers = (
{
layerId = "AC87092A-E990-4874-8484-9ECA7DC3ECD4";
shapes = (
{
closed = 1;
nodes = (
(160.41,1270.85,ls),
(160.41,1304.049,o),
(182.151,1341.154,o),
(235.515,1341.154,cs),
(288.879,1341.154,o),
(310.62,1304.049,o),
(310.62,1270.85,cs),
(310.62,370.567,ls),
(310.62,337.368,o),
(288.879,300.263,o),
(235.515,300.263,cs),
(182.151,300.263,o),
(160.41,337.368,o),
(160.41,370.567,cs)
);
},
{
closed = 1;
nodes = (
(152.504,118.645,o),
(172.269,157.702,o),
(235.515,157.702,cs),
(298.761,157.702,o),
(318.526,118.645,o),
(318.526,78.61,cs),
(318.526,38.576,o),
(297.773,0.495,o),
(235.515,0.495,cs),
(173.257,0.495,o),
(152.504,38.576,o),
(152.504,78.61,cs)
);
}
);
width = 868;
}
);
unicode = 33;
},
{
glyphname = quotedbl;
layers = (
{
layerId = "AC87092A-E990-4874-8484-9ECA7DC3ECD4";
shapes = (
{
closed = 1;
nodes = (
(304.679,1270.85,ls),
(304.679,1304.049,o),
(326.42,1341.154,o),
(379.784,1341.154,cs),
(433.148,1341.154,o),
(455.877,1305.025,o),
(455.877,1270.85,cs),
(455.877,1036.503,ls),
(455.877,1003.304,o),
(432.159,966.199,o),
(379.784,966.199,cs),
(326.42,966.199,o),
(304.679,1003.304,o),
(304.679,1036.503,cs)
);
},
{
closed = 1;
nodes = (
(102.093,1270.85,ls),
(102.093,1305.025,o),
(124.822,1341.154,o),
(178.186,1341.154,cs),
(231.55,1341.154,o),
(253.291,1304.049,o),
(253.291,1270.85,cs),
(253.291,1036.503,ls),
(253.291,1003.304,o),
(231.55,966.199,o),
(178.186,966.199,cs),
(125.81,966.199,o),
(102.093,1003.304,o),
(102.093,1036.503,cs)
);
}
);
width = 559;
}
);
unicode = 34;
},
{
glyphname = numbersign;
layers = (
{
layerId = "AC87092A-E990-4874-8484-9ECA7DC3ECD4";
shapes = (
{
closed = 1;
nodes = (
(443.018,623.467,l),
(664.38,623.467,l),
(704.897,850.002,l),
(482.547,850.002,l)
);
},
{
closed = 1;
nodes = (
(104.058,492.623,l),
(56.623,492.623,o),
(32.906,523.869,o),
(32.906,557.068,cs),
(32.906,589.291,o),
(53.658,623.467,o),
(104.058,623.467,c),
(301.702,623.467,l),
(342.219,850.002,l),
(154.457,850.002,l),
(107.022,850.002,o),
(83.305,881.248,o),
(83.305,914.447,cs),
(83.305,945.693,o),
(103.07,981.822,o),
(154.457,981.822,c),
(366.925,981.822,l),
(418.313,1281.591,ls),
(423.254,1311.86,o),
(444.006,1337.248,o),
(488.476,1337.248,cs),
(528.993,1337.248,o),
(558.64,1306.978,o),
(558.64,1275.732,cs),
(558.64,1270.85,o),
(557.652,1266.944,o),
(556.664,1262.062,cs),
(507.253,981.822,l),
(728.614,981.822,l),
(782.967,1281.591,ls),
(787.908,1310.884,o),
(807.672,1337.248,o),
(853.13,1337.248,cs),
(894.636,1337.248,o),
(921.318,1303.072,o),
(921.318,1275.732,cs),
(921.318,1270.85,o),
(920.33,1265.967,o),
(919.341,1262.062,cs),
(868.942,981.822,l),
(1063.622,981.822,l),
(1115.009,981.822,o),
(1132.797,942.764,o),
(1132.797,914.447,cs),
(1132.797,884.177,o),
(1112.045,850.002,o),
(1063.622,850.002,c),
(845.225,850.002,l),
(805.696,623.467,l),
(1012.234,623.467,l),
(1062.634,623.467,o),
(1081.41,586.362,o),
(1081.41,557.068,cs),
(1081.41,526.799,o),
(1060.657,492.623,o),
(1012.234,492.623,c),
(781.978,492.623,l),
(726.638,178.208,ls),
(721.697,146.961,o),
(698.968,124.503,o),
(656.474,124.503,cs),
(614.969,124.503,o),
(588.287,155.749,o),
(588.287,185.043,cs),
(588.287,189.925,o),
(589.275,194.807,o),
(590.263,199.689,cs),
(640.663,492.623,l),
(420.289,492.623,l),
(363.96,178.208,ls),
(359.019,146.961,o),
(336.29,124.503,o),
(293.797,124.503,cs),
(252.291,124.503,o),
(225.609,155.749,o),
(225.609,185.043,cs),
(225.609,189.925,o),
(226.597,194.807,o),
(227.586,199.689,cs),
(277.985,492.623,l)
);
}
);
width = 1369;
}
);
unicode = 35;
},
{
glyphname = dollar;
layers = (
{
layerId = "AC87092A-E990-4874-8484-9ECA7DC3ECD4";
shapes = (
{
closed = 1;
nodes = (
(544.84,886.13,o),
(580.416,845.12,o),
(657.498,808.991,c),
(657.498,1111.689,l),
(588.322,1090.207,o),
(544.84,1035.526,o),
(544.84,969.128,cs)
);
},
{
closed = 1;
nodes = (
(807.708,228.983,l),
(896.648,251.441,o),
(958.906,320.769,o),
(958.906,402.79,cs),
(958.906,512.152,o),
(912.459,556.092,o),
(807.708,599.055,c)
);
},
{
closed = 1;
nodes = (
(361.031,393.026,o),
(375.854,433.06,o),
(437.124,433.06,cs),
(493.453,433.06,o),
(512.229,397.908,o),
(512.229,362.756,cs),
(512.229,296.357,o),
(580.416,245.582,o),
(657.498,228.006,c),
(657.498,655.689,l),
(487.523,717.205,o),
(393.642,793.368,o),
(393.642,969.128,cs),
(393.642,1108.76,o),
(495.429,1228.862,o),
(657.498,1258.156,c),
(657.498,1262.062,o),
(657.498,1264.991,o),
(657.498,1268.897,cs),
(657.498,1279.638,o),
(658.486,1291.355,o),
(661.451,1302.096,cs),
(669.356,1327.483,o),
(691.097,1347.012,o),
(732.603,1347.012,cs),
(774.108,1347.012,o),
(795.849,1327.483,o),
(803.755,1302.096,cs),
(806.719,1291.355,o),
(807.708,1279.638,o),
(807.708,1268.897,cs),
(807.708,1264.991,o),
(807.708,1261.085,o),
(807.708,1258.156,c),
(954.953,1229.839,o),
(1068.598,1123.406,o),
(1068.598,989.633,cs),
(1068.598,956.434,o),
(1055.751,914.447,o),
(993.493,914.447,cs),
(937.165,914.447,o),
(918.388,949.599,o),
(918.388,984.751,cs),
(918.388,1041.385,o),
(869.966,1091.184,o),
(807.708,1111.689,c),
(807.708,750.404,l),
(867.001,727.946,o),
(962.858,690.841,o),
(1007.329,651.783,cs),
(1085.398,582.456,o),
(1109.115,491.646,o),
(1109.115,402.79,cs),
(1109.115,251.441,o),
(986.576,110.833,o),
(807.708,83.492,c),
(807.708,79.587,o),
(807.708,76.657,o),
(807.708,72.752,c),
(806.719,62.987,o),
(805.731,52.246,o),
(802.766,41.505,cs),
(794.861,17.094,o),
(773.12,-1.458,o),
(732.603,-1.458,cs),
(691.097,-1.458,o),
(670.345,18.071,o),
(662.439,42.482,cs),
(658.486,53.223,o),
(657.498,64.94,o),
(657.498,74.704,cs),
(657.498,78.61,o),
(657.498,81.54,o),
(657.498,85.445,c),
(501.359,106.927,o),
(361.031,211.407,o),
(361.031,358.85,cs)
);
}
);
width = 1475;
}
);
unicode = 36;
},
{
glyphname = percent;
layers = (
{
layerId = "AC87092A-E990-4874-8484-9ECA7DC3ECD4";
shapes = (
{
closed = 1;
nodes = (
(253.291,1001.351,o),
(295.785,951.552,o),
(356.066,951.552,cs),
(416.348,951.552,o),
(458.841,1001.351,o),
(458.841,1057.008,cs),
(458.841,1112.666,o),
(416.348,1162.464,o),
(356.066,1162.464,cs),
(295.785,1162.464,o),
(253.291,1112.666,o),
(253.291,1057.008,cs)
);
},
{
closed = 1;
nodes = (
(102.093,1176.134,o),
(195.974,1303.072,o),
(356.066,1303.072,cs),
(516.158,1303.072,o),
(609.051,1175.158,o),
(609.051,1057.008,cs),
(609.051,938.858,o),
(516.158,809.968,o),
(356.066,809.968,cs),
(195.974,809.968,o),
(102.093,938.858,o),
(102.093,1057.008,cs)
);
},
{
closed = 1;
nodes = (
(678.227,215.313,o),
(720.72,165.514,o),
(781.002,165.514,cs),
(841.284,165.514,o),
(883.777,215.313,o),
(883.777,270.97,cs),
(883.777,326.627,o),
(841.284,376.426,o),
(781.002,376.426,cs),
(720.72,376.426,o),
(678.227,326.627,o),
(678.227,270.97,cs)
);
},
{
closed = 1;
nodes = (
(529.993,388.143,o),
(620.91,517.034,o),
(781.002,517.034,cs),
(941.094,517.034,o),
(1033.987,389.12,o),
(1033.987,270.97,cs),
(1033.987,152.82,o),
(941.094,24.906,o),
(781.002,24.906,cs),
(620.91,24.906,o),
(529.993,153.797,o),
(529.993,270.97,cs)
);
},
{
closed = 1;
nodes = (
(211.786,79.587,o),
(215.739,88.375,o),
(219.692,97.163,cs),
(774.084,1286.473,ls),
(782.978,1305.025,o),
(801.755,1329.436,o),
(839.307,1329.436,cs),
(891.683,1329.436,o),
(917.377,1301.119,o),
(917.377,1261.085,cs),
(917.377,1254.25,o),
(915.4,1248.391,o),
(913.424,1243.509,cs),
(912.436,1239.603,o),
(910.459,1235.698,o),
(908.483,1230.815,cs),
(354.09,41.505,ls),
(345.196,22.953,o),
(326.42,-1.458,o),
(288.867,-1.458,cs),
(236.491,-1.458,o),
(211.786,27.835,o),
(211.786,66.893,cs)
);
}
);
width = 1166;
}
);
unicode = 37;
},
{
glyphname = ampersand;
layers = (
{
layerId = "AC87092A-E990-4874-8484-9ECA7DC3ECD4";
shapes = (
{
closed = 1;
nodes = (
(507.276,985.728,o),
(573.487,885.154,o),
(618.945,823.638,c),
(709.862,882.225,o),
(803.743,963.269,o),
(803.743,1055.055,cs),
(803.743,1119.501,o),
(737.532,1200.546,o),
(666.38,1200.546,cs),
(566.569,1200.546,o),
(507.276,1127.312,o),
(507.276,1040.409,cs)
);
},
{
closed = 1;
nodes = (
(353.113,243.629,o),
(429.207,141.103,o),
(573.487,141.103,cs),
(697.015,141.103,o),
(792.872,208.477,o),
(866.989,294.405,c),
(765.202,404.743,o),
(667.368,517.034,o),
(577.44,633.231,c),
(471.7,565.856,o),
(353.113,470.165,o),
(353.113,364.709,cs)
);
},
{
closed = 1;
nodes = (
(202.904,550.233,o),
(337.302,654.713,o),
(492.453,746.499,c),
(439.089,823.638,o),
(356.078,951.552,o),
(356.078,1040.409,cs),
(356.078,1190.781,o),
(466.759,1341.154,o),
(666.38,1341.154,cs),
(854.142,1341.154,o),
(950,1187.852,o),
(950,1053.102,cs),
(950,889.06,o),
(841.295,794.344,o),
(703.932,709.394,c),
(780.026,610.773,o),
(863.036,515.081,o),
(948.023,421.342,c),
(976.682,478.953,o),
(993.482,532.657,o),
(1011.27,598.079,cs),
(1018.187,623.467,o),
(1034.987,651.783,o),
(1081.433,651.783,cs),
(1126.892,651.783,o),
(1158.515,620.537,o),
(1158.515,584.409,cs),
(1158.515,577.574,o),
(1157.527,571.715,o),
(1155.55,564.88,cs),
(1135.786,475.047,o),
(1102.186,388.143,o),
(1055.74,305.145,c),
(1223.737,119.621,ls),
(1236.584,105.951,o),
(1241.525,90.328,o),
(1241.525,74.704,cs),
(1241.525,39.552,o),
(1222.749,4.4,o),
(1166.421,4.4,cs),
(1137.762,4.4,o),
(1120.962,18.071,o),
(1109.104,29.788,cs),
(1090.327,49.317,o),
(1072.539,69.822,o),
(1054.751,90.328,cs),
(1025.105,122.55,o),
(995.458,154.773,o),
(965.811,186.996,c),
(870.942,81.54,o),
(742.473,0.495,o),
(573.487,0.495,cs),
(324.455,0.495,o),
(202.904,177.231,o),
(202.904,364.709,cs)
);
}
);
width = 1369;
}
);
unicode = 38;
},
{
glyphname = quotesingle;
layers = (
{
layerId = "AC87092A-E990-4874-8484-9ECA7DC3ECD4";
shapes = (
{
closed = 1;
nodes = (
(102.093,1270.85,ls),
(102.093,1305.025,o),
(124.822,1341.154,o),
(178.186,1341.154,cs),
(231.55,1341.154,o),
(253.291,1304.049,o),
(253.291,1270.85,cs),
(253.291,1036.503,ls),
(253.291,1003.304,o),
(231.55,966.199,o),
(178.186,966.199,cs),
(125.81,966.199,o),
(102.093,1003.304,o),
(102.093,1036.503,cs)
);
}
);
width = 356;
}
);
unicode = 39;
},
{
glyphname = parenleft;
layers = (
{
layerId = "AC87092A-E990-4874-8484-9ECA7DC3ECD4";
shapes = (
{
closed = 1;
nodes = (
(168.316,883.201,o),
(238.48,1090.207,o),
(373.866,1249.368,cs),
(388.689,1265.967,o),
(403.513,1283.543,o),
(418.336,1301.119,cs),
(424.265,1308.931,o),
(432.171,1318.695,o),
(439.089,1328.46,cs),
(446.995,1338.224,o),
(455.889,1347.989,o),
(464.783,1356.777,cs),
(478.618,1371.423,o),
(498.382,1377.282,o),
(519.135,1377.282,cs),
(575.463,1377.282,o),
(594.24,1342.13,o),
(594.24,1306.978,cs),
(594.24,1288.426,o),
(587.322,1272.803,o),
(575.463,1259.132,c),
(565.581,1245.462,o),
(552.734,1232.768,o),
(541.864,1220.074,cs),
(519.135,1193.71,o),
(497.394,1167.346,o),
(475.653,1140.006,cs),
(445.018,1099.972,o),
(417.348,1057.008,o),
(395.607,1013.068,cs),
(345.208,910.541,o),
(318.526,800.203,o),
(318.526,688.888,cs),
(318.526,576.597,o),
(344.219,468.212,o),
(395.607,364.709,cs),
(414.383,325.651,o),
(444.03,282.687,o),
(477.629,239.724,cs),
(510.241,196.76,o),
(545.817,154.773,o),
(575.463,118.645,cs),
(588.31,103.998,o),
(594.24,90.328,o),
(594.24,70.799,cs),
(594.24,35.647,o),
(575.463,0.495,o),
(519.135,0.495,cs),
(498.382,0.495,o),
(478.618,6.353,o),
(464.783,21,c),
(455.889,28.812,o),
(446.995,39.552,o),
(440.077,49.317,cs),
(432.171,59.081,o),
(424.265,68.846,o),
(418.336,76.657,cs),
(370.901,132.315,o),
(324.455,188.949,o),
(286.903,253.394,cs),
(209.821,387.167,o),
(168.316,539.492,o),
(168.316,688.888,cs)
);
}
);
width = 763;
}
);
unicode = 40;
},
{
glyphname = parenright;
layers = (
{
layerId = "AC87092A-E990-4874-8484-9ECA7DC3ECD4";
shapes = (
{
closed = 1;
nodes = (
(166.339,89.351,o),
(173.257,104.974,o),
(185.116,118.645,cs),
(216.739,158.679,o),
(252.315,197.737,o),
(283.938,237.771,cs),
(315.561,277.805,o),
(343.231,320.769,o),
(364.972,364.709,cs),
(418.336,469.188,o),
(441.065,574.644,o),
(441.065,688.888,cs),
(441.065,802.156,o),
(416.36,908.589,o),
(364.972,1013.068,cs),
(329.396,1085.325,o),
(243.421,1189.805,o),
(185.116,1259.132,cs),
(172.269,1273.779,o),
(166.339,1287.449,o),
(166.339,1306.978,cs),
(166.339,1342.13,o),
(185.116,1377.282,o),
(241.444,1377.282,cs),
(261.209,1377.282,o),
(280.973,1372.4,o),
(295.797,1355.8,cs),
(386.713,1249.368,ls),
(521.111,1091.184,o),
(592.263,881.248,o),
(592.263,688.888,cs),
(592.263,496.529,o),
(521.111,286.593,o),
(386.713,128.409,cs),
(295.797,21.976,ls),
(280.973,5.377,o),
(261.209,0.495,o),
(241.444,0.495,cs),
(185.116,0.495,o),
(166.339,35.647,o),
(166.339,70.799,cs)
);
}
);
width = 763;
}
);
unicode = 41;
},
{
glyphname = asterisk;
layers = (
{
layerId = "AC87092A-E990-4874-8484-9ECA7DC3ECD4";
shapes = (
{
closed = 1;
nodes = (
(258.244,903.706,o),
(254.291,922.259,o),
(254.291,932.023,cs),
(254.291,957.411,o),
(269.115,974.987,o),
(290.855,988.657,c),
(388.689,1045.291,l),
(291.844,1098.995,ls),
(269.115,1111.689,o),
(254.291,1130.242,o),
(254.291,1155.629,cs),
(254.291,1181.993,o),
(274.056,1231.792,o),
(328.408,1231.792,cs),
(345.208,1231.792,o),
(361.019,1223.98,o),
(367.937,1220.074,cs),
(457.865,1169.299,l),
(457.865,1274.755,ls),
(457.865,1307.955,o),
(479.606,1345.059,o),
(532.97,1345.059,cs),
(586.334,1345.059,o),
(608.075,1307.955,o),
(608.075,1274.755,cs),
(608.075,1169.299,l),
(698.003,1220.074,ls),
(704.921,1223.98,o),
(721.72,1231.792,o),
(737.532,1231.792,cs),
(790.896,1231.792,o),
(811.649,1182.97,o),
(811.649,1155.629,cs),
(811.649,1131.218,o),
(796.825,1111.689,o),
(775.084,1098.995,cs),
(677.25,1043.338,l),
(775.084,988.657,ls),
(796.825,975.963,o),
(811.649,957.411,o),
(811.649,932.023,cs),
(811.649,904.683,o),
(791.884,856.837,o),
(737.532,856.837,cs),
(721.72,856.837,o),
(706.897,862.696,o),
(698.003,867.578,cs),
(608.075,918.353,l),
(608.075,812.897,ls),
(608.075,779.698,o),
(586.334,742.593,o),
(532.97,742.593,cs),
(479.606,742.593,o),
(457.865,779.698,o),
(457.865,812.897,cs),
(457.865,918.353,l),
(367.937,867.578,ls),
(359.043,862.696,o),
(344.219,856.837,o),
(328.408,856.837,cs),
(298.761,856.837,o),
(274.056,877.342,o),
(264.173,892.965,cs)
);
}
);
width = 1066;
}
);
unicode = 42;
},
{
glyphname = plus;
layers = (
{
layerId = "AC87092A-E990-4874-8484-9ECA7DC3ECD4";
shapes = (
{
closed = 1;
nodes = (
(204.88,622.49,l),
(152.504,622.49,o),
(129.775,659.595,o),
(129.775,692.794,cs),
(129.775,725.993,o),
(152.504,763.098,o),
(204.88,763.098,c),
(457.865,763.098,l),
(457.865,1016.974,ls),
(457.865,1050.173,o),
(479.606,1087.278,o),
(532.97,1087.278,cs),
(586.334,1087.278,o),
(608.075,1050.173,o),
(608.075,1016.974,cs),
(608.075,763.098,l),
(861.06,763.098,l),
(913.436,763.098,o),
(936.165,725.993,o),
(936.165,692.794,cs),
(936.165,659.595,o),
(913.436,622.49,o),
(861.06,622.49,c),
(608.075,622.49,l),
(608.075,368.614,ls),
(608.075,335.415,o),
(586.334,298.31,o),
(532.97,298.31,cs),
(479.606,298.31,o),
(457.865,335.415,o),
(457.865,368.614,cs),
(457.865,622.49,l)
);
}
);
width = 1065;
}
);
unicode = 43;
},
{
glyphname = comma;
layers = (
{
layerId = "AC87092A-E990-4874-8484-9ECA7DC3ECD4";
shapes = (
{
closed = 1;
nodes = (
(55.647,-26.846,l),
(88.258,17.094,l),
(71.458,31.741,o),
(61.576,52.246,o),
(61.576,74.704,cs),
(61.576,109.856,o),
(75.411,159.655,o),
(143.598,159.655,cs),
(210.798,159.655,o),
(234.515,121.574,o),
(234.515,74.704,cs),
(234.515,21,o),
(188.068,-67.856,o),
(119.881,-90.315,c),
(109.011,-93.244,l),
(99.128,-89.338,l),
(78.376,-78.597,o),
(55.647,-61.021,o),
(55.647,-32.704,cs)
);
}
);
width = 356;
}
);
unicode = 44;
},
{
glyphname = hyphen;
layers = (
{
layerId = "AC87092A-E990-4874-8484-9ECA7DC3ECD4";
shapes = (
{
closed = 1;
nodes = (
(195.974,622.49,ls),
(142.61,622.49,o),
(120.869,658.619,o),
(120.869,692.794,cs),
(120.869,726.97,o),
(142.61,763.098,o),
(195.974,763.098,cs),
(869.942,763.098,ls),
(923.306,763.098,o),
(945.047,726.97,o),
(945.047,692.794,cs),
(945.047,658.619,o),
(923.306,622.49,o),
(869.942,622.49,cs)
);
}
);
width = 1065;
}
);
unicode = 45;
},
{
glyphname = period;
layers = (
{
layerId = "AC87092A-E990-4874-8484-9ECA7DC3ECD4";
shapes = (
{
closed = 1;
nodes = (
(61.576,119.621,o),
(83.317,157.702,o),
(145.575,157.702,cs),
(208.821,157.702,o),
(228.586,118.645,o),
(228.586,78.61,cs),
(228.586,38.576,o),
(207.833,0.495,o),
(145.575,0.495,cs),
(84.305,0.495,o),
(61.576,37.6,o),
(61.576,78.61,cs)
);
}
);
width = 356;
}
);
unicode = 46;
},
{
glyphname = slash;
layers = (
{
layerId = "AC87092A-E990-4874-8484-9ECA7DC3ECD4";
shapes = (
{
closed = 1;
nodes = (
(178.198,76.657,o),
(182.151,87.398,o),
(186.104,95.21,cs),
(743.461,1272.803,ls),
(751.367,1290.379,o),
(770.143,1314.79,o),
(806.708,1314.79,cs),
(850.189,1314.79,o),
(887.742,1283.543,o),
(887.742,1246.438,cs),
(887.742,1234.721,o),
(883.789,1223.98,o),
(879.836,1215.192,cs),
(322.479,37.6,ls),
(313.585,20.024,o),
(295.797,-5.364,o),
(258.244,-5.364,cs),
(210.809,-5.364,o),
(178.198,28.812,o),
(178.198,64.94,cs)
);
}
);
width = 1066;
}
);
unicode = 47;
},
{
glyphname = zero;
layers = (
{
layerId = "AC87092A-E990-4874-8484-9ECA7DC3ECD4";
shapes = (
{
closed = 1;
nodes = (
(198.939,495.552,o),
(272.067,141.103,o),
(520.111,141.103,cs),
(648.58,141.103,o),
(728.626,230.936,o),
(782.978,331.51,cs),
(841.284,440.871,o),
(867.966,561.951,o),
(867.966,683.03,cs),
(867.966,878.319,o),
(779.026,1200.546,o),
(520.111,1200.546,cs),
(398.56,1200.546,o),
(324.443,1113.642,o),
(275.032,1016.974,cs),
(221.668,911.518,o),
(198.939,796.297,o),
(198.939,681.077,cs)
);
},
{
closed = 1;
nodes = (
(47.741,829.496,o),
(76.399,977.916,o),
(152.492,1111.689,cs),
(224.633,1238.627,o),
(336.302,1343.107,o),
(520.111,1343.107,cs),
(916.388,1343.107,o),
(1018.175,932.023,o),
(1018.175,684.983,cs),
(1018.175,507.27,o),
(967.776,255.347,o),
(817.566,114.739,cs),
(780.014,80.563,o),
(736.532,52.246,o),
(688.109,31.741,cs),
(634.745,9.283,o),
(577.428,0.495,o),
(520.111,0.495,cs),
(134.704,0.495,o),
(47.741,454.542,o),
(47.741,683.03,cs)
);
}
);
width = 1063;
}
);
unicode = 48;
},
{
glyphname = one;
layers = (
{
layerId = "AC87092A-E990-4874-8484-9ECA7DC3ECD4";
shapes = (
{
closed = 1;
nodes = (
(460.865,1274.755,ls),
(460.865,1307.955,o),
(482.606,1345.059,o),
(535.97,1345.059,cs),
(589.334,1345.059,o),
(611.075,1307.955,o),
(611.075,1274.755,cs),
(611.075,70.799,ls),
(611.075,37.6,o),
(589.334,0.495,o),
(535.97,0.495,cs),
(482.606,0.495,o),
(460.865,37.6,o),
(460.865,70.799,cs)
);
}
);
width = 1073;
}
);
unicode = 49;
},
{
glyphname = two;
layers = (
{
layerId = "AC87092A-E990-4874-8484-9ECA7DC3ECD4";
shapes = (
{
closed = 1;
nodes = (
(126.787,56.152,o),
(124.81,64.94,o),
(124.81,75.681,cs),
(124.81,95.21,o),
(133.704,113.762,o),
(143.587,127.433,cs),
(616.945,798.25,l),
(641.651,842.19,l),
(691.062,932.023,ls),
(706.874,960.34,o),
(714.779,991.586,o),
(714.779,1022.833,cs),
(714.779,1126.336,o),
(642.639,1200.546,o),
(521.088,1200.546,cs),
(432.148,1200.546,o),
(378.784,1176.134,o),
(336.29,1108.76,cs),
(325.42,1092.16,o),
(316.526,1075.561,o),
(308.62,1057.985,cs),
(306.643,1054.079,o),
(304.667,1050.173,o),
(303.679,1046.267,cs),
(301.702,1041.385,o),
(298.738,1034.55,o),
(294.785,1029.668,cs),
(281.938,1013.068,o),
(253.279,998.421,o),
(229.562,998.421,cs),
(186.08,998.421,o),
(156.434,1033.573,o),
(156.434,1063.843,cs),
(156.434,1094.113,o),
(197.939,1165.394,o),
(211.774,1185.899,c),
(281.938,1283.543,o),
(393.607,1341.154,o),
(528.993,1341.154,cs),
(734.544,1341.154,o),
(866.966,1199.569,o),
(866.966,1034.55,cs),
(866.966,936.905,o),
(831.39,848.049,o),
(774.073,766.028,cs),
(334.314,141.103,l),
(846.213,141.103,l),
(898.589,141.103,o),
(922.306,105.951,o),
(922.306,70.799,cs),
(922.306,35.647,o),
(898.589,0.495,o),
(846.213,0.495,cs),
(215.727,0.495,ls),
(209.798,0.495,o),
(203.868,0.495,o),
(197.939,0.495,c),
(192.01,1.471,o),
(186.08,1.471,o),
(179.163,3.424,cs),
(164.339,7.33,o),
(152.481,15.141,o),
(143.587,27.835,cs),
(138.646,35.647,o),
(133.704,41.505,o),
(130.74,48.34,cs)
);
}
);
width = 1064;
}
);
unicode = 50;
},
{
glyphname = three;
layers = (
{
layerId = "AC87092A-E990-4874-8484-9ECA7DC3ECD4";
shapes = (
{
closed = 1;
nodes = (
(160.41,218.242,o),
(147.563,258.276,o),
(147.563,301.24,cs),
(147.563,336.392,o),
(164.363,377.402,o),
(225.633,377.402,cs),
(254.291,377.402,o),
(282.95,361.779,o),
(292.832,337.368,cs),
(295.797,331.51,o),
(296.785,325.651,o),
(297.773,320.769,c),
(297.773,316.863,o),
(298.761,312.957,o),
(299.749,309.051,cs),
(304.691,291.475,o),
(312.596,273.899,o),
(322.479,258.276,cs),
(361.019,192.854,o),
(435.136,143.056,o),
(519.135,143.056,cs),
(668.356,143.056,o),
(767.179,266.088,o),
(767.179,391.073,cs),
(767.179,480.906,o),
(701.956,564.88,o),
(605.11,602.961,cs),
(576.452,613.702,o),
(545.817,620.537,o),
(515.182,620.537,cs),
(506.288,620.537,o),
(493.441,620.537,o),
(481.582,621.514,c),
(469.724,621.514,o),
(453.912,623.467,o),
(442.053,628.349,cs),
(402.525,642.995,o),
(394.619,675.218,o),
(394.619,700.606,cs),
(394.619,728.923,o),
(405.489,760.169,o),
(447.983,772.863,cs),
(457.865,775.792,o),
(472.688,776.768,o),
(483.559,777.745,c),
(495.417,777.745,o),
(508.264,777.745,o),
(515.182,777.745,cs),
(689.109,777.745,o),
(767.179,852.931,o),
(767.179,1001.351,cs),
(767.179,1114.618,o),
(651.557,1200.546,o),
(519.135,1200.546,cs),
(436.124,1200.546,o),
(361.019,1148.794,o),
(322.479,1083.372,cs),
(312.596,1066.773,o),
(305.679,1050.173,o),
(299.749,1031.621,cs),
(298.761,1028.691,o),
(298.761,1024.785,o),
(297.773,1020.88,cs),
(296.785,1017.95,o),
(296.785,1015.021,o),
(295.797,1012.092,cs),
(294.808,1009.162,o),
(293.82,1006.233,o),
(292.832,1003.304,cs),
(280.973,979.869,o),
(252.315,966.199,o),
(225.633,966.199,cs),
(166.339,966.199,o),
(147.563,1003.304,o),
(147.563,1040.409,cs),
(147.563,1131.218,o),
(201.915,1199.569,o),
(276.032,1254.25,cs),
(311.608,1280.614,o),
(352.125,1303.072,o),
(396.595,1318.695,cs),
(440.077,1334.319,o),
(487.512,1341.154,o),
(533.958,1341.154,cs),
(758.285,1341.154,o),
(920.353,1187.852,o),
(920.353,1001.351,cs),
(920.353,910.541,o),
(879.836,740.64,o),
(760.261,683.03,c),
(862.048,607.843,o),
(920.353,510.199,o),
(920.353,389.12,cs),
(920.353,195.784,o),
(773.108,-1.458,o),
(519.135,-1.458,cs),
(384.737,-1.458,o),
(247.374,87.398,o),
(185.116,181.137,cs)
);
}
);
width = 1066;
}
);
unicode = 51;
},
{
glyphname = four;
layers = (
{
layerId = "AC87092A-E990-4874-8484-9ECA7DC3ECD4";
shapes = (
{
closed = 1;
nodes = (
(178.186,618.584,l),
(124.822,618.584,o),
(102.093,648.854,o),
(102.093,686.936,cs),
(102.093,1274.755,ls),
(102.093,1308.931,o),
(124.822,1345.059,o),
(178.186,1345.059,cs),
(231.55,1345.059,o),
(253.291,1307.955,o),
(253.291,1274.755,cs),
(253.291,759.192,l),
(687.121,759.192,l),
(687.121,1274.755,ls),
(687.121,1307.955,o),
(708.862,1345.059,o),
(762.226,1345.059,cs),
(815.59,1345.059,o),
(838.319,1308.931,o),
(838.319,1274.755,cs),
(838.319,759.192,l),
(885.754,759.192,l),
(938.129,759.192,o),
(961.847,724.04,o),
(961.847,688.888,cs),
(961.847,653.736,o),
(938.129,618.584,o),
(885.754,618.584,c),
(838.319,618.584,l),
(838.319,70.799,ls),
(838.319,36.623,o),
(815.59,0.495,o),
(762.226,0.495,cs),
(708.862,0.495,o),
(687.121,37.6,o),
(687.121,70.799,cs),
(687.121,618.584,l)
);
}
);
width = 1065;
}
);
unicode = 52;
},
{
glyphname = five;
layers = (
{
layerId = "AC87092A-E990-4874-8484-9ECA7DC3ECD4";
shapes = (
{
closed = 1;
nodes = (
(127.775,227.03,o),
(113.94,254.37,o),
(113.94,277.805,cs),
(113.94,310.028,o),
(128.763,353.968,o),
(190.033,353.968,cs),
(211.774,353.968,o),
(233.515,343.227,o),
(244.385,327.604,cs),
(248.338,321.745,o),
(250.315,315.886,o),
(252.291,311.981,cs),
(254.268,308.075,o),
(255.256,304.169,o),
(257.232,300.263,cs),
(266.126,282.687,o),
(277.985,264.135,o),
(291.82,248.512,c),
(344.196,184.066,o),
(426.218,141.103,o),
(517.135,141.103,cs),
(696.991,141.103,o),
(809.649,285.617,o),
(809.649,435.013,cs),
(809.649,582.456,o),
(695.015,727.946,o),
(517.135,727.946,cs),
(431.159,727.946,o),
(360.996,697.676,o),
(306.643,640.066,cs),
(301.702,635.184,o),
(295.773,628.349,o),
(289.844,621.514,cs),
(283.914,614.679,o),
(279.961,608.82,o),
(277.985,604.914,cs),
(276.997,602.961,o),
(277.985,601.985,o),
(276.997,600.032,cs),
(276.009,596.126,o),
(275.02,593.197,o),
(273.044,590.267,cs),
(261.185,565.856,o),
(233.515,552.186,o),
(204.856,552.186,cs),
(151.492,552.186,o),
(129.752,589.291,o),
(129.752,622.49,cs),
(129.752,1266.944,ls),
(129.752,1302.096,o),
(148.528,1337.248,o),
(204.856,1337.248,cs),
(820.519,1337.248,ls),
(876.848,1337.248,o),
(895.624,1302.096,o),
(895.624,1266.944,cs),
(895.624,1231.792,o),
(876.848,1196.64,o),
(820.519,1196.64,c),
(279.961,1196.64,l),
(279.961,803.132,l),
(348.149,845.12,o),
(428.195,869.531,o),
(517.135,869.531,cs),
(798.778,869.531,o),
(960.847,648.854,o),
(960.847,435.013,cs),
(960.847,221.171,o),
(798.778,0.495,o),
(517.135,0.495,cs),
(383.725,0.495,o),
(269.091,59.081,o),
(190.033,145.009,cs),
(177.186,158.679,o),
(158.41,181.137,o),
(142.598,204.572,cs)
);
}
);
width = 1064;
}
);
unicode = 53;
},
{
glyphname = six;
layers = (
{
layerId = "AC87092A-E990-4874-8484-9ECA7DC3ECD4";
shapes = (
{
closed = 1;
nodes = (
(102.093,692.794,o),
(291.832,1015.021,o),
(472.677,1225.933,cs),
(506.276,1265.967,o),
(543.829,1308.931,o),
(585.334,1347.012,cs),
(595.216,1355.8,o),
(606.087,1361.659,o),
(624.863,1361.659,cs),
(669.333,1361.659,o),
(712.815,1319.672,o),
(712.815,1284.52,cs),
(712.815,1274.755,o),
(708.862,1264.991,o),
(701.944,1257.179,cs),
(679.215,1229.839,o),
(653.521,1203.475,o),
(630.792,1176.134,cs),
(544.817,1076.537,o),
(432.159,936.905,o),
(376.819,814.85,c),
(425.242,833.402,o),
(476.629,843.167,o),
(531.97,843.167,cs),
(591.263,843.167,o),
(648.58,832.426,o),
(702.932,810.944,cs),
(877.848,737.711,o),
(963.823,580.503,o),
(963.823,423.295,cs),
(963.823,214.336,o),
(806.696,0.495,o),
(531.97,0.495,cs),
(472.677,0.495,o),
(414.371,10.259,o),
(360.019,32.717,cs),
(183.127,105.951,o),
(102.093,266.088,o),
(102.093,423.295,cs)
);
},
{
closed = 1;
nodes = (
(253.291,280.734,o),
(360.019,141.103,o),
(531.97,141.103,cs),
(701.944,141.103,o),
(812.625,281.711,o),
(812.625,423.295,cs),
(812.625,562.927,o),
(698.98,702.559,o),
(531.97,702.559,cs),
(362.984,702.559,o),
(253.291,563.903,o),
(253.291,423.295,cs)
);
}
);
width = 1065;
}
);
unicode = 54;
},
{
glyphname = seven;
layers = (
{
layerId = "AC87092A-E990-4874-8484-9ECA7DC3ECD4";
shapes = (
{
closed = 1;
nodes = (
(208.833,70.799,o),
(210.809,86.422,o),
(214.762,95.21,cs),
(738.52,1196.64,l),
(214.762,1196.64,l),
(162.386,1196.64,o),
(139.657,1233.745,o),
(139.657,1266.944,cs),
(139.657,1300.143,o),
(162.386,1337.248,o),
(214.762,1337.248,cs),
(851.178,1337.248,ls),
(896.636,1337.248,o),
(926.282,1315.766,o),
(926.282,1274.755,cs),
(926.282,1252.297,o),
(915.412,1227.886,o),
(907.506,1211.286,cs),
(353.113,37.6,l),
(343.231,18.071,o),
(325.443,-4.388,o),
(287.891,-4.388,cs),
(240.456,-4.388,o),
(208.833,28.812,o),
(208.833,64.94,cs)
);
}
);
width = 1065;
}
);
unicode = 55;
},
{
glyphname = eight;
layers = (
{
layerId = "AC87092A-E990-4874-8484-9ECA7DC3ECD4";
shapes = (
{
closed = 1;
nodes = (
(646.604,1128.289,l),
(612.016,1164.417,o),
(543.829,1200.546,o),
(495.406,1200.546,cs),
(379.784,1200.546,o),
(295.785,1099.972,o),
(295.785,1001.351,cs),
(295.785,933,o),
(320.49,874.413,o),
(372.866,826.567,c)
);
},
{
closed = 1;
nodes = (
(253.291,254.37,o),
(335.314,141.103,o),
(487.5,141.103,cs),
(619.922,141.103,o),
(717.756,236.794,o),
(717.756,349.086,cs),
(717.756,424.272,o),
(671.309,483.835,o),
(601.145,533.634,cs),
(591.263,540.469,o),
(580.393,547.304,o),
(569.522,553.163,cs),
(557.664,559.998,o),
(544.817,565.856,o),
(532.958,571.715,cs),
(488.488,596.126,o),
(444.018,619.561,o),
(398.56,642.995,c),
(319.502,568.786,o),
(253.291,478.953,o),
(253.291,381.308,cs)
);
},
{
closed = 1;
nodes = (
(102.093,511.175,o),
(181.151,628.349,o),
(273.056,722.088,c),
(195.974,794.344,o),
(146.563,879.295,o),
(146.563,981.822,cs),
(146.563,1032.597,o),
(158.422,1091.184,o),
(178.186,1139.03,cs),
(228.586,1260.109,o),
(337.29,1341.154,o),
(495.406,1341.154,cs),
(596.204,1341.154,o),
(680.203,1288.426,o),
(742.461,1232.768,c),
(827.448,1331.389,l),
(839.307,1344.083,o),
(857.095,1355.8,o),
(881.801,1355.8,cs),
(939.118,1355.8,o),
(961.847,1322.601,o),
(961.847,1282.567,cs),
(961.847,1264.991,o),
(949.988,1248.391,o),
(941.094,1238.627,cs),
(503.311,750.404,l),
(680.203,663.501,o),
(867.966,559.998,o),
(867.966,349.086,cs),
(867.966,159.655,o),
(724.673,0.495,o),
(487.5,0.495,cs),
(232.539,0.495,o),
(102.093,190.901,o),
(102.093,381.308,cs)
);
}
);
width = 1065;
}
);
unicode = 56;
},
{
glyphname = nine;
layers = (
{
layerId = "AC87092A-E990-4874-8484-9ECA7DC3ECD4";
shapes = (
{
closed = 1;
nodes = (
(92.211,1101.925,o),
(169.292,1245.462,o),
(328.396,1311.86,cs),
(376.819,1331.389,o),
(430.183,1341.154,o),
(483.547,1341.154,cs),
(727.638,1341.154,o),
(871.918,1143.912,o),
(871.918,959.364,cs),
(871.918,70.799,ls),
(871.918,37.6,o),
(850.178,0.495,o),
(796.814,0.495,cs),
(743.45,0.495,o),
(721.709,37.6,o),
(721.709,70.799,cs),
(721.709,657.642,l),
(657.474,606.867,o),
(578.416,576.597,o),
(483.547,576.597,cs),
(232.539,576.597,o),
(92.211,769.933,o),
(92.211,959.364,cs)
);
},
{
closed = 1;
nodes = (
(243.409,834.379,o),
(335.314,717.205,o),
(483.547,717.205,cs),
(627.828,717.205,o),
(722.697,835.355,o),
(722.697,957.411,cs),
(722.697,1079.466,o),
(628.816,1198.593,o),
(483.547,1198.593,cs),
(338.278,1198.593,o),
(243.409,1081.419,o),
(243.409,959.364,cs)
);
}
);
width = 1066;
}
);
unicode = 57;
},
{
glyphname = colon;
layers = (
{
layerId = "AC87092A-E990-4874-8484-9ECA7DC3ECD4";
shapes = (
{
closed = 1;
nodes = (
(51.694,665.454,o),
(73.435,703.535,o),
(135.693,703.535,cs),
(198.939,703.535,o),
(218.703,664.477,o),
(218.703,624.443,cs),
(218.703,584.409,o),
(197.951,546.327,o),
(135.693,546.327,cs),
(74.423,546.327,o),
(51.694,583.432,o),
(51.694,624.443,cs)
);
},
{
closed = 1;
nodes = (
(51.694,119.621,o),
(73.435,157.702,o),
(135.693,157.702,cs),
(198.939,157.702,o),
(218.703,118.645,o),
(218.703,78.61,cs),
(218.703,38.576,o),
(197.951,0.495,o),
(135.693,0.495,cs),
(74.423,0.495,o),
(51.694,37.6,o),
(51.694,78.61,cs)
);
}
);
width = 356;
}
);
unicode = 58;
},
{
glyphname = semicolon;
layers = (
{
layerId = "AC87092A-E990-4874-8484-9ECA7DC3ECD4";
shapes = (
{
closed = 1;
nodes = (
(51.694,665.454,o),
(73.435,703.535,o),
(135.693,703.535,cs),
(198.939,703.535,o),
(218.703,664.477,o),
(218.703,624.443,cs),
(218.703,584.409,o),
(197.951,546.327,o),
(135.693,546.327,cs),
(74.423,546.327,o),
(51.694,583.432,o),
(51.694,624.443,cs)
);
},
{
closed = 1;
nodes = (
(45.764,-22.94,l),
(79.364,21,l),
(62.564,35.647,o),
(51.694,55.176,o),
(51.694,78.61,cs),
(51.694,113.762,o),
(65.529,163.561,o),
(133.716,163.561,cs),
(197.951,163.561,o),
(224.633,127.433,o),
(224.633,80.563,cs),
(224.633,26.859,o),
(179.174,-62.974,o),
(109.999,-86.409,c),
(99.128,-89.338,l),
(89.246,-85.433,l),
(68.494,-74.692,o),
(45.764,-57.116,o),
(45.764,-28.799,cs)
);
}
);
width = 356;
}
);
unicode = 59;
},
{
glyphname = less;
layers = (
{
layerId = "AC87092A-E990-4874-8484-9ECA7DC3ECD4";
shapes = (
{
closed = 1;
nodes = (
(273.079,625.419,ls),
(255.291,638.113,o),
(225.645,663.501,o),
(225.645,694.747,cs),
(225.645,710.37,o),
(235.527,725.017,o),
(244.421,734.781,cs),
(253.315,745.522,o),
(265.173,754.31,o),
(273.079,760.169,cs),
(730.626,1086.302,l),
(740.508,1094.113,o),
(756.32,1101.925,o),
(775.096,1101.925,cs),
(826.484,1101.925,o),
(851.189,1058.961,o),
(851.189,1028.691,cs),
(851.189,1005.257,o),
(838.342,987.681,o),
(820.554,974.987,cs),
(426.254,692.794,l),
(820.554,410.602,ls),
(838.342,397.908,o),
(851.189,380.332,o),
(851.189,356.897,cs),
(851.189,325.651,o),
(827.472,281.711,o),
(775.096,281.711,cs),
(756.32,281.711,o),
(740.508,289.522,o),
(730.626,297.334,cs)
);
}
);
width = 1066;
}
);
unicode = 60;
},
{
glyphname = equal;
layers = (
{
layerId = "AC87092A-E990-4874-8484-9ECA7DC3ECD4";
shapes = (
{
closed = 1;
nodes = (
(193.998,744.546,ls),
(140.634,744.546,o),
(118.893,780.674,o),
(118.893,814.85,cs),
(118.893,849.025,o),
(140.634,885.154,o),
(193.998,885.154,cs),
(867.966,885.154,ls),
(921.33,885.154,o),
(943.07,849.025,o),
(943.07,814.85,cs),
(943.07,780.674,o),
(921.33,744.546,o),
(867.966,744.546,cs)
);
},
{
closed = 1;
nodes = (
(195.974,504.34,ls),
(142.61,504.34,o),
(120.869,540.469,o),
(120.869,574.644,cs),
(120.869,608.82,o),
(142.61,644.948,o),
(195.974,644.948,cs),
(869.942,644.948,ls),
(923.306,644.948,o),
(945.047,608.82,o),
(945.047,574.644,cs),
(945.047,540.469,o),
(923.306,504.34,o),
(869.942,504.34,cs)
);
}
);
width = 1065;
}
);
unicode = 61;
},
{
glyphname = greater;
layers = (
{
layerId = "AC87092A-E990-4874-8484-9ECA7DC3ECD4";
shapes = (
{
closed = 1;
nodes = (
(215.75,380.332,o),
(228.597,397.908,o),
(246.385,410.602,cs),
(640.686,692.794,l),
(246.385,974.987,ls),
(228.597,987.681,o),
(215.75,1005.257,o),
(215.75,1028.691,cs),
(215.75,1058.961,o),
(240.456,1101.925,o),
(291.844,1101.925,cs),
(310.62,1101.925,o),
(326.431,1094.113,o),
(336.314,1086.302,c),
(793.861,760.169,ls),
(801.766,754.31,o),
(813.625,745.522,o),
(822.519,734.781,cs),
(831.413,725.017,o),
(841.295,710.37,o),
(841.295,694.747,cs),
(841.295,663.501,o),
(811.649,638.113,o),
(793.861,625.419,cs),
(336.314,297.334,ls),
(326.431,289.522,o),
(310.62,281.711,o),
(291.844,281.711,cs),
(239.468,281.711,o),
(215.75,325.651,o),
(215.75,356.897,cs)
);
}
);
width = 1066;
}
);
unicode = 62;
},
{
glyphname = question;
layers = (
{
layerId = "AC87092A-E990-4874-8484-9ECA7DC3ECD4";
shapes = (
{
closed = 1;
nodes = (
(180.174,1032.597,o),
(147.563,1069.702,o),
(147.563,1098.995,cs),
(147.563,1212.263,o),
(246.385,1341.154,o),
(397.583,1341.154,cs),
(559.652,1341.154,o),
(646.616,1218.122,o),
(646.616,1098.995,cs),
(646.616,1058.961,o),
(636.733,1019.903,o),
(623.886,981.822,cs),
(611.04,943.741,o),
(594.24,906.636,o),
(576.452,868.554,cs),
(542.852,793.368,o),
(511.229,722.088,o),
(511.229,648.854,cs),
(511.229,360.803,ls),
(511.229,327.604,o),
(489.488,290.499,o),
(436.124,290.499,cs),
(382.76,290.499,o),
(360.031,326.627,o),
(360.031,360.803,cs),
(360.031,660.571,ls),
(360.031,707.441,o),
(369.913,754.31,o),
(384.737,798.25,cs),
(402.525,850.002,o),
(428.218,898.824,o),
(456.877,944.717,cs),
(487.512,991.586,o),
(498.382,1044.314,o),
(498.382,1098.995,cs),
(498.382,1149.77,o),
(452.924,1200.546,o),
(397.583,1200.546,cs),
(337.302,1200.546,o),
(299.749,1156.606,o),
(296.785,1101.925,cs),
(294.808,1068.726,o),
(278.997,1032.597,o),
(221.68,1032.597,cs)
);
},
{
closed = 1;
nodes = (
(354.102,119.621,o),
(375.843,157.702,o),
(438.101,157.702,cs),
(501.347,157.702,o),
(521.111,118.645,o),
(521.111,78.61,cs),
(521.111,38.576,o),
(500.359,0.495,o),
(438.101,0.495,cs),
(376.831,0.495,o),
(354.102,37.6,o),
(354.102,78.61,cs)
);
}
);
width = 1069;
}
);
unicode = 63;
},
{
glyphname = at;
layers = (
{
layerId = "AC87092A-E990-4874-8484-9ECA7DC3ECD4";
shapes = (
{
closed = 1;
nodes = (
(600.169,409.625,o),
(618.945,394.978,o),
(654.521,394.978,cs),
(713.815,394.978,o),
(754.332,443.801,o),
(783.978,497.505,cs),
(816.59,557.068,o),
(832.401,617.608,o),
(832.401,683.03,cs),
(832.401,732.828,o),
(797.814,776.768,o),
(745.438,776.768,cs),
(638.71,776.768,o),
(571.511,609.796,o),
(571.511,515.081,cs),
(571.511,484.811,o),
(575.463,453.565,o),
(588.31,430.13,cs)
);
},
{
closed = 1;
nodes = (
(151.516,385.214,o),
(137.681,463.33,o),
(137.681,540.469,cs),
(137.681,623.467,o),
(152.504,706.464,o),
(189.068,784.58,cs),
(288.879,1000.374,o),
(512.217,1125.359,o),
(782.002,1125.359,cs),
(995.458,1125.359,o),
(1195.079,1053.102,o),
(1289.948,876.366,cs),
(1324.536,810.944,o),
(1336.395,739.664,o),
(1336.395,671.312,cs),
(1336.395,542.422,o),
(1278.09,386.19,o),
(1146.656,305.145,cs),
(1103.174,278.781,o),
(1053.763,266.088,o),
(1000.399,266.088,cs),
(919.365,266.088,o),
(864.024,295.381,o),
(847.225,353.968,c),
(804.731,302.216,o),
(743.461,266.088,o),
(656.498,266.088,cs),
(492.453,266.088,o),
(435.136,403.766,o),
(435.136,509.223,cs),
(435.136,627.372,o),
(500.359,771.886,o),
(618.945,844.143,cs),
(658.474,868.554,o),
(701.956,881.248,o),
(751.367,881.248,cs),
(826.472,881.248,o),
(886.754,848.049,o),
(919.365,798.25,c),
(920.353,800.203,l),
(931.224,835.355,o),
(957.906,857.813,o),
(1004.352,857.813,cs),
(1044.869,857.813,o),
(1069.575,837.308,o),
(1069.575,802.156,cs),
(1069.575,790.439,o),
(1067.598,779.698,o),
(1064.634,769.933,cs),
(989.529,525.822,ls),
(984.588,510.199,o),
(979.646,494.576,o),
(975.694,478.953,cs),
(972.729,464.306,o),
(970.752,449.659,o),
(970.752,435.013,cs),
(970.752,405.719,o),
(981.623,394.978,o),
(1008.305,394.978,cs),
(1139.739,394.978,o),
(1192.114,564.88,o),
(1192.114,675.218,cs),
(1192.114,885.154,o),
(1036.963,1002.327,o),
(793.861,1002.327,cs),
(466.759,1002.327,o),
(286.903,808.991,o),
(286.903,536.563,cs),
(286.903,285.617,o),
(471.7,123.527,o),
(766.19,123.527,cs),
(827.46,123.527,o),
(887.742,131.338,o),
(944.07,148.914,cs),
(1002.376,165.514,o),
(1054.751,190.901,o),
(1106.139,221.171,cs),
(1112.068,225.077,o),
(1120.962,229.959,o),
(1129.856,234.841,c),
(1139.739,238.747,o),
(1150.609,241.677,o),
(1164.444,241.677,cs),
(1214.843,241.677,o),
(1225.714,204.572,o),
(1225.714,181.137,cs),
(1225.714,165.514,o),
(1215.832,151.844,o),
(1206.938,143.056,cs),
(1198.044,133.291,o),
(1187.173,125.48,o),
(1179.267,120.597,cs),
(1055.74,39.552,o),
(900.589,0.495,o),
(747.414,0.495,cs),
(495.417,0.495,o),
(285.914,112.786,o),
(187.092,312.957,cs)
);
}
);
width = 1471;
}
);
unicode = 64;
},
{
glyphname = A;
layers = (
{
layerId = "AC87092A-E990-4874-8484-9ECA7DC3ECD4";
shapes = (
{
closed = 1;
nodes = (
(91,83,o),
(96,95,o),
(102,106,cs),
(714,1295,l),
(722,1312,o),
(742,1341,o),
(782,1341,cs),
(825,1341,o),
(847,1307,o),
(857,1289,c),
(1467,102,l),
(1472,91,o),
(1476,80,o),
(1476,66,cs),
(1476,30,o),
(1433,-1,o),
(1394,-1,cs),
(1375,-1,o),
(1361,6,o),
(1352,15,cs),
(1343,23,o),
(1336,34,o),
(1333,41,cs),
(1058,573,l),
(510,573,l),
(235,42,ls),
(228,29,o),
(210,1,o),
(173,1,cs),
(133,1,o),
(91,32,o),
(91,69,cs)
);
},
{
closed = 1;
nodes = (
(582,713,l),
(985,713,l),
(784,1109,l)
);
}
);
width = 1568;
}
);
unicode = 65;
},
{
glyphname = B;
layers = (
{
layerId = "AC87092A-E990-4874-8484-9ECA7DC3ECD4";
shapes = (
{
closed = 1;
nodes = (
(102.093,1270.85,ls),
(102.093,1307.955,o),
(122.846,1341.154,o),
(178.186,1341.154,cs),
(775.073,1341.154,ls),
(1018.175,1341.154,o),
(1127.868,1159.535,o),
(1127.868,982.798,cs),
(1127.868,876.366,o),
(1077.469,792.392,o),
(981.611,730.876,c),
(1093.28,645.925,o),
(1153.562,504.34,o),
(1153.562,381.308,cs),
(1153.562,278.781,o),
(1101.186,193.831,o),
(1025.093,121.574,cs),
(956.906,56.152,o),
(867.966,0.495,o),
(754.32,0.495,cs),
(178.186,0.495,ls),
(122.846,0.495,o),
(102.093,33.694,o),
(102.093,70.799,cs)
);
},
{
closed = 1;
nodes = (
(253.291,808.991,l),
(765.19,808.991,l),
(872.907,808.991,o),
(976.67,891.989,o),
(976.67,982.798,cs),
(976.67,1101.925,o),
(916.388,1200.546,o),
(775.073,1200.546,c),
(253.291,1200.546,l)
);
},
{
closed = 1;
nodes = (
(253.291,141.103,l),
(754.32,141.103,l),
(868.954,141.103,o),
(1003.352,281.711,o),
(1003.352,381.308,cs),
(1003.352,491.646,o),
(898.6,668.383,o),
(769.143,668.383,c),
(253.291,668.383,l)
);
}
);
width = 1267;
}
);
unicode = 66;
},
{
glyphname = C;
layers = (
{
layerId = "AC87092A-E990-4874-8484-9ECA7DC3ECD4";
shapes = (
{
closed = 1;
nodes = (
(117,478,o),
(102,567,o),
(102,655,cs),
(102,834,o),
(163,1002,o),
(303,1141,cs),
(433,1270,o),
(599,1341,o),
(801,1341,cs),
(1049,1341,o),
(1226,1242,o),
(1358,1071,c),
(1369,1055,o),
(1376,1044,o),
(1376,1023,cs),
(1376,988,o),
(1357,953,o),
(1301,953,cs),
(1279,953,o),
(1258,962,o),
(1246,977,cs),
(1227,1000,o),
(1210,1024,o),
(1188,1045,c),
(1087,1148,o),
(958,1199,o),
(801,1199,cs),
(644,1199,o),
(516,1143,o),
(413,1041,cs),
(302,931,o),
(253,798,o),
(253,653,cs),
(253,511,o),
(298,384,o),
(412,284,cs),
(519,189,o),
(648,141,o),
(801,141,cs),
(887,141,o),
(970,158,o),
(1044,194,cs),
(1103,224,o),
(1155,264,o),
(1199,311,cs),
(1212,326,o),
(1224,341,o),
(1237,356,cs),
(1242,361,o),
(1248,368,o),
(1256,373,cs),
(1265,380,o),
(1277,385,o),
(1293,385,cs),
(1336,385,o),
(1372,343,o),
(1372,313,cs),
(1372,293,o),
(1362,279,o),
(1354,267,c),
(1295,189,o),
(1207,115,o),
(1111,68,cs),
(1015,20,o),
(909,0,o),
(801,0,cs),
(607,0,o),
(440,61,o),
(308,183,cs),
(241,244,o),
(188,316,o),
(153,395,cs)
);
}
);
width = 1470;
}
);
unicode = 67;
},
{
glyphname = D;
layers = (
{
layerId = "AC87092A-E990-4874-8484-9ECA7DC3ECD4";
shapes = (
{
closed = 1;
nodes = (
(253.291,141.103,l),
(620.91,141.103,l),
(747.402,141.103,o),
(846.225,228.983,o),
(919.353,320.769,cs),
(1006.317,430.13,o),
(1063.634,557.068,o),
(1063.634,688.888,cs),
(1063.634,820.708,o),
(1017.187,942.764,o),
(922.318,1046.267,cs),
(844.248,1130.242,o),
(744.438,1200.546,o),
(620.91,1200.546,c),
(253.291,1200.546,l)
);
},
{
closed = 1;
nodes = (
(102.093,1270.85,ls),
(102.093,1307.955,o),
(122.846,1341.154,o),
(178.186,1341.154,cs),
(643.639,1341.154,ls),
(896.624,1341.154,o),
(1097.233,1110.713,o),
(1168.385,933.976,cs),
(1200.008,854.884,o),
(1214.832,771.886,o),
(1214.832,688.888,cs),
(1214.832,516.058,o),
(1146.644,358.85,o),
(1029.046,221.171,cs),
(944.059,120.597,o),
(813.613,0.495,o),
(643.639,0.495,cs),
(178.186,0.495,ls),
(122.846,0.495,o),
(102.093,33.694,o),
(102.093,70.799,cs)
);
}
);
width = 1267;
}
);
unicode = 68;
},
{
glyphname = E;
layers = (
{
layerId = "AC87092A-E990-4874-8484-9ECA7DC3ECD4";
shapes = (
{
closed = 1;
nodes = (
(102,1271,ls),
(102,1308,o),
(123,1341,o),
(178,1341,cs),
(945,1341,ls),
(998,1341,o),
(1020,1305,o),
(1020,1271,cs),
(1020,1237,o),
(998,1201,o),
(945,1201,c),
(253,1201,l),
(253,759,l),
(657,759,l),
(711,759,o),
(733,723,o),
(733,689,cs),
(733,655,o),
(711,619,o),
(657,619,c),
(253,619,l),
(253,141,l),
(945,141,l),
(998,141,o),
(1020,105,o),
(1020,71,cs),
(1020,37,o),
(998,0,o),
(945,0,cs),
(178,0,ls),
(123,0,o),
(102,34,o),
(102,71,cs)
);
}
);
width = 1166;
}
);
unicode = 69;
},
{
glyphname = F;
layers = (
{
layerId = "AC87092A-E990-4874-8484-9ECA7DC3ECD4";
shapes = (
{
closed = 1;
nodes = (
(102.093,1270.85,ls),
(102.093,1307.955,o),
(122.846,1341.154,o),
(178.186,1341.154,cs),
(945.047,1341.154,ls),
(998.411,1341.154,o),
(1020.152,1305.025,o),
(1020.152,1270.85,cs),
(1020.152,1236.674,o),
(998.411,1200.546,o),
(945.047,1200.546,c),
(253.291,1200.546,l),
(253.291,759.192,l),
(657.474,759.192,l),
(710.838,759.192,o),
(732.579,723.064,o),
(732.579,688.888,cs),
(732.579,654.713,o),
(710.838,618.584,o),
(657.474,618.584,c),
(253.291,618.584,l),
(253.291,70.799,ls),
(253.291,37.6,o),
(231.55,0.495,o),
(178.186,0.495,cs),
(124.822,0.495,o),
(102.093,36.623,o),
(102.093,70.799,cs)
);
}
);
width = 1166;
}
);
unicode = 70;
},
{
glyphname = G;
layers = (
{
layerId = "AC87092A-E990-4874-8484-9ECA7DC3ECD4";
shapes = (
{
closed = 1;
nodes = (
(117,478,o),
(102,567,o),
(102,655,cs),
(102,834,o),
(163,1002,o),
(303,1141,cs),
(433,1270,o),
(599,1341,o),
(801,1341,cs),
(990,1341,o),
(1151,1283,o),
(1275,1160,cs),
(1300,1136,o),
(1321,1111,o),
(1341,1084,cs),
(1344,1081,o),
(1346,1078,o),
(1348,1076,cs),
(1351,1073,o),
(1353,1069,o),
(1355,1066,cs),
(1360,1057,o),
(1362,1049,o),
(1362,1038,cs),
(1362,1003,o),
(1343,968,o),
(1287,968,cs),
(1265,968,o),
(1246,973,o),
(1231,991,cs),
(1175,1056,o),
(1119,1110,o),
(1039,1149,cs),
(966,1184,o),
(886,1201,o),
(801,1201,cs),
(643,1201,o),
(516,1146,o),
(413,1043,cs),
(302,933,o),
(253,801,o),
(253,655,cs),
(253,513,o),
(298,386,o),
(412,286,cs),
(519,191,o),
(647,143,o),
(801,143,cs),
(1088,143,o),
(1285,341,o),
(1337,573,c),
(818,573,l),
(761,573,o),
(742,608,o),
(742,643,cs),
(742,678,o),
(761,713,o),
(818,713,cs),
(1499,713,l),
(1499,693,ls),
(1499,603,o),
(1484,513,o),
(1449,427,cs),
(1387,273,o),
(1247,125,o),
(1073,51,cs),
(987,16,o),
(895,0,o),
(801,0,cs),
(607,0,o),
(440,61,o),
(308,183,cs),
(241,244,o),
(188,316,o),
(153,395,cs)
);
}
);
width = 1570;
}
);
unicode = 71;
},
{
glyphname = H;
layers = (
{
layerId = "AC87092A-E990-4874-8484-9ECA7DC3ECD4";
shapes = (
{
closed = 1;
nodes = (
(102,1271,ls),
(102,1305,o),
(125,1341,o),
(178,1341,cs),
(232,1341,o),
(253,1304,o),
(253,1271,cs),
(253,755,l),
(1044,755,l),
(1044,1271,ls),
(1044,1304,o),
(1066,1341,o),
(1119,1341,cs),
(1172,1341,o),
(1194,1304,o),
(1194,1271,cs),
(1194,71,ls),
(1194,38,o),
(1172,0,o),
(1119,0,cs),
(1066,0,o),
(1044,38,o),
(1044,71,cs),
(1044,615,l),
(253,615,l),
(253,71,ls),
(253,38,o),
(232,0,o),
(178,0,cs),
(125,0,o),
(102,37,o),
(102,71,cs)
);
}
);
width = 1267;
}
);
unicode = 72;
},
{
glyphname = I;
layers = (
{
layerId = "AC87092A-E990-4874-8484-9ECA7DC3ECD4";
shapes = (
{
closed = 1;
nodes = (
(102,106,o),
(126,141,o),
(178,141,c),
(238,141,l),
(238,1201,l),
(167,1201,l),
(115,1201,o),
(92,1238,o),
(92,1271,cs),
(92,1304,o),
(115,1341,o),
(167,1341,cs),
(439,1341,ls),
(492,1341,o),
(514,1305,o),
(514,1271,cs),
(514,1237,o),
(492,1201,o),
(439,1201,c),
(389,1201,l),
(389,141,l),
(449,141,l),
(502,141,o),
(524,105,o),
(524,71,cs),
(524,37,o),
(502,0,o),
(449,0,cs),
(178,0,ls),
(126,0,o),
(102,36,o),
(102,71,cs)
);
}
);
width = 660;
}
);
unicode = 73;
},
{
glyphname = J;
layers = (
{
layerId = "AC87092A-E990-4874-8484-9ECA7DC3ECD4";
shapes = (
{
closed = 1;
nodes = (
(138.646,244.606,o),
(121.846,274.876,o),
(107.022,305.145,cs),
(93.187,334.439,o),
(79.352,368.614,o),
(79.352,389.12,cs),
(79.352,427.201,o),
(117.893,455.518,o),
(159.398,455.518,cs),
(201.892,455.518,o),
(218.692,427.201,o),
(225.609,407.672,cs),
(238.456,374.473,o),
(253.279,342.25,o),
(271.067,310.028,cs),
(320.479,225.077,o),
(406.454,143.056,o),
(515.158,143.056,cs),
(732.567,143.056,o),
(850.166,297.334,o),
(850.166,477,cs),
(850.166,1200.546,l),
(504.288,1200.546,l),
(451.912,1200.546,o),
(429.183,1237.65,o),
(429.183,1270.85,cs),
(429.183,1304.049,o),
(451.912,1341.154,o),
(504.288,1341.154,cs),
(1312.654,1341.154,ls),
(1366.018,1341.154,o),
(1387.759,1300.143,o),
(1387.759,1268.897,cs),
(1387.759,1235.698,o),
(1365.03,1198.593,o),
(1312.654,1198.593,c),
(1001.364,1198.593,l),
(1001.364,488.717,ls),
(1001.364,310.028,o),
(923.294,122.55,o),
(715.768,38.576,cs),
(652.521,13.188,o),
(583.346,2.448,o),
(515.158,2.448,cs),
(342.219,2.448,o),
(219.68,112.786,o),
(148.528,228.983,cs)
);
}
);
width = 1468;
}
);
unicode = 74;
},
{
glyphname = K;
layers = (
{
layerId = "AC87092A-E990-4874-8484-9ECA7DC3ECD4";
shapes = (
{
closed = 1;
nodes = (
(102,1271,ls),
(102,1305,o),
(125,1341,o),
(178,1341,cs),
(232,1341,o),
(253,1304,o),
(253,1271,cs),
(253,823,l),
(921,1325,ls),
(930,1331,o),
(949,1343,o),
(971,1343,cs),
(1017,1343,o),
(1047,1292,o),
(1047,1267,cs),
(1047,1244,o),
(1030,1227,o),
(1015,1215,cs),
(320,693,l),
(1076,126,ls),
(1093,114,o),
(1108,95,o),
(1108,72,cs),
(1108,44,o),
(1081,-3,o),
(1033,-3,cs),
(1013,-3,o),
(996,5,o),
(986,13,cs),
(253,563,l),
(253,71,ls),
(253,38,o),
(232,0,o),
(178,0,cs),
(125,0,o),
(102,37,o),
(102,71,cs)
);
}
);
width = 1164;
}
);
unicode = 75;
},
{
glyphname = L;
layers = (
{
layerId = "AC87092A-E990-4874-8484-9ECA7DC3ECD4";
shapes = (
{
closed = 1;
nodes = (
(102,1271,ls),
(102,1305,o),
(125,1341,o),
(178,1341,cs),
(232,1341,o),
(253,1304,o),
(253,1271,cs),
(253,141,l),
(959,141,l),
(1012,141,o),
(1034,105,o),
(1034,71,cs),
(1034,37,o),
(1012,0,o),
(959,0,cs),
(178,0,ls),
(123,0,o),
(102,34,o),
(102,71,cs)
);
}
);
width = 1166;
}
);
unicode = 76;
},
{
glyphname = M;
layers = (
{
layerId = "AC87092A-E990-4874-8484-9ECA7DC3ECD4";
shapes = (
{
closed = 1;
nodes = (
(102.093,1270.85,ls),
(102.093,1307.955,o),
(122.846,1341.154,o),
(178.186,1341.154,cs),
(211.786,1341.154,o),
(234.515,1323.578,o),
(245.385,1301.119,cs),
(786.931,200.666,l),
(1337.371,1305.025,ls),
(1349.23,1327.483,o),
(1375.912,1341.154,o),
(1402.594,1341.154,cs),
(1458.923,1341.154,o),
(1477.699,1306.002,o),
(1477.699,1270.85,cs),
(1477.699,70.799,ls),
(1477.699,37.6,o),
(1455.958,0.495,o),
(1402.594,0.495,cs),
(1349.23,0.495,o),
(1326.501,36.623,o),
(1326.501,70.799,cs),
(1326.501,953.505,l),
(872.907,39.552,ls),
(855.119,4.4,o),
(812.625,0.495,o),
(786.931,0.495,cs),
(761.238,0.495,o),
(718.744,5.377,o),
(701.944,39.552,cs),
(253.291,953.505,l),
(253.291,70.799,ls),
(253.291,37.6,o),
(231.55,0.495,o),
(178.186,0.495,cs),
(124.822,0.495,o),
(102.093,36.623,o),
(102.093,70.799,cs)
);
}
);
width = 1570;
}
);
unicode = 77;
},
{
glyphname = N;
layers = (
{
layerId = "AC87092A-E990-4874-8484-9ECA7DC3ECD4";
shapes = (
{
closed = 1;
nodes = (
(102.093,1270.85,ls),
(102.093,1310.884,o),
(129.763,1342.13,o),
(182.139,1342.13,cs),
(201.904,1342.13,o),
(233.527,1322.601,o),
(240.444,1312.837,cs),
(1043.869,283.664,l),
(1043.869,1270.85,ls),
(1043.869,1304.049,o),
(1065.61,1341.154,o),
(1118.974,1341.154,cs),
(1172.338,1341.154,o),
(1194.079,1304.049,o),
(1194.079,1270.85,cs),
(1194.079,70.799,ls),
(1194.079,35.647,o),
(1175.303,0.495,o),
(1118.974,0.495,cs),
(1101.186,0.495,o),
(1087.351,3.424,o),
(1075.492,12.212,cs),
(1070.551,16.118,o),
(1066.598,20.024,o),
(1063.634,23.929,cs),
(1060.669,27.835,o),
(1057.704,31.741,o),
(1054.74,35.647,cs),
(253.291,1058.961,l),
(253.291,70.799,ls),
(253.291,37.6,o),
(231.55,0.495,o),
(178.186,0.495,cs),
(124.822,0.495,o),
(102.093,36.623,o),
(102.093,70.799,cs)
);
}
);
width = 1267;
}
);
unicode = 78;
},
{
glyphname = O;
layers = (
{
layerId = "AC87092A-E990-4874-8484-9ECA7DC3ECD4";
shapes = (
{
closed = 1;
nodes = (
(101,478,o),
(86,567,o),
(86,655,cs),
(86,834,o),
(148,1002,o),
(287,1141,cs),
(417,1270,o),
(582,1341,o),
(785,1341,cs),
(983,1341,o),
(1145,1279,o),
(1280,1158,cs),
(1425,1026,o),
(1484,864,o),
(1484,687,cs),
(1484,505,o),
(1421,338,o),
(1281,200,cs),
(1150,71,o),
(987,0,o),
(785,0,cs),
(590,0,o),
(424,61,o),
(292,183,cs),
(226,244,o),
(172,316,o),
(138,395,cs)
);
},
{
closed = 1;
nodes = (
(502,190,o),
(632,141,o),
(785,141,cs),
(861,141,o),
(933,155,o),
(1000,183,cs),
(1223,276,o),
(1333,481,o),
(1333,689,cs),
(1333,829,o),
(1289,957,o),
(1174,1058,cs),
(1068,1153,o),
(939,1201,o),
(785,1201,cs),
(627,1201,o),
(499,1144,o),
(397,1041,cs),
(285,931,o),
(236,798,o),
(236,653,cs),
(236,513,o),
(281,383,o),
(396,284,cs)
);
}
);
width = 1570;
}
);
unicode = 79;
},
{
glyphname = P;
layers = (
{
layerId = "AC87092A-E990-4874-8484-9ECA7DC3ECD4";
shapes = (
{
closed = 1;
nodes = (
(253.291,813.873,l),
(765.19,813.873,l),
(880.812,813.873,o),
(976.67,884.177,o),
(976.67,982.798,cs),
(976.67,1096.066,o),
(909.471,1200.546,o),
(775.073,1200.546,c),
(253.291,1200.546,l)
);
},
{
closed = 1;
nodes = (
(102.093,1270.85,ls),
(102.093,1307.955,o),
(122.846,1341.154,o),
(178.186,1341.154,cs),
(775.073,1341.154,ls),
(1014.223,1341.154,o),
(1127.868,1156.606,o),
(1127.868,982.798,cs),
(1127.868,809.968,o),
(968.764,672.289,o),
(765.19,672.289,c),
(253.291,672.289,l),
(253.291,70.799,ls),
(253.291,37.6,o),
(231.55,0.495,o),
(178.186,0.495,cs),
(124.822,0.495,o),
(102.093,36.623,o),
(102.093,70.799,cs)
);
}
);
width = 1268;
}
);
unicode = 80;
},
{
glyphname = Q;
layers = (
{
layerId = "AC87092A-E990-4874-8484-9ECA7DC3ECD4";
shapes = (
{
closed = 1;
nodes = (
(101.105,477.976,o),
(86.282,566.833,o),
(86.282,654.713,cs),
(86.282,834.379,o),
(147.551,1002.327,o),
(286.891,1140.982,cs),
(417.336,1269.873,o),
(583.357,1341.154,o),
(784.955,1341.154,cs),
(982.599,1341.154,o),
(1145.656,1278.661,o),
(1280.054,1157.582,cs),
(1425.323,1025.762,o),
(1483.628,863.672,o),
(1483.628,686.936,cs),
(1483.628,511.175,o),
(1425.323,349.086,o),
(1291.913,213.36,c),
(1386.782,120.597,l),
(1401.606,104.974,o),
(1406.547,86.422,o),
(1406.547,70.799,cs),
(1406.547,43.458,o),
(1381.841,-1.458,o),
(1332.43,-1.458,cs),
(1306.736,-1.458,o),
(1287.96,14.165,o),
(1279.066,22.953,cs),
(1180.244,118.645,l),
(1065.61,40.529,o),
(933.188,0.495,o),
(784.955,0.495,cs),
(591.263,0.495,o),
(424.254,61.034,o),
(291.832,183.09,cs),
(225.621,243.629,o),
(172.257,315.886,o),
(137.669,394.978,cs)
);
},
{
closed = 1;
nodes = (
(502.323,191.878,o),
(631.78,143.056,o),
(784.955,143.056,cs),
(892.671,143.056,o),
(988.529,170.396,o),
(1074.504,224.101,c),
(1001.376,297.334,ls),
(990.505,309.051,o),
(977.658,325.651,o),
(977.658,346.156,cs),
(977.658,377.402,o),
(1009.281,415.484,o),
(1053.751,415.484,cs),
(1074.504,415.484,o),
(1094.269,409.625,o),
(1109.092,394.978,cs),
(1188.15,316.863,l),
(1288.948,423.295,o),
(1333.418,549.257,o),
(1333.418,688.888,cs),
(1333.418,829.496,o),
(1288.948,957.411,o),
(1174.315,1057.985,cs),
(1067.587,1152.7,o),
(938.129,1200.546,o),
(784.955,1200.546,cs),
(627.828,1200.546,o),
(499.359,1144.888,o),
(396.583,1043.338,cs),
(284.914,933.976,o),
(236.491,800.203,o),
(236.491,654.713,cs),
(236.491,515.081,o),
(280.961,385.214,o),
(395.595,285.617,cs)
);
}
);
width = 1570;
}
);
unicode = 81;
},
{
glyphname = R;
layers = (
{
layerId = "AC87092A-E990-4874-8484-9ECA7DC3ECD4";
shapes = (
{
closed = 1;
nodes = (
(253.291,813.873,l),
(765.19,813.873,l),
(880.812,813.873,o),
(976.67,884.177,o),
(976.67,982.798,cs),
(976.67,1096.066,o),
(909.471,1200.546,o),
(775.073,1200.546,c),
(253.291,1200.546,l)
);
},
{
closed = 1;
nodes = (
(102.093,1270.85,ls),
(102.093,1307.955,o),
(122.846,1341.154,o),
(178.186,1341.154,cs),
(775.073,1341.154,ls),
(1014.223,1341.154,o),
(1127.868,1156.606,o),
(1127.868,982.798,cs),
(1127.868,938.858,o),
(1117.986,893.942,o),
(1096.245,852.931,cs),
(1035.963,741.616,o),
(908.483,672.289,o),
(765.19,672.289,c),
(412.395,672.289,l),
(1169.373,124.503,ls),
(1187.161,111.809,o),
(1200.008,93.257,o),
(1200.008,70.799,cs),
(1200.008,36.623,o),
(1183.209,-1.458,o),
(1124.903,-1.458,cs),
(1110.08,-1.458,o),
(1089.327,5.377,o),
(1078.457,13.188,cs),
(253.291,607.843,l),
(253.291,70.799,ls),
(253.291,37.6,o),
(231.55,0.495,o),
(178.186,0.495,cs),
(124.822,0.495,o),
(102.093,36.623,o),
(102.093,70.799,cs)
);
}
);
width = 1267;
}
);
unicode = 82;
},
{
glyphname = S;
layers = (
{
layerId = "AC87092A-E990-4874-8484-9ECA7DC3ECD4";
shapes = (
{
closed = 1;
nodes = (
(108.011,194.807,o),
(92.199,212.383,o),
(92.199,236.794,cs),
(92.199,262.182,o),
(115.916,312.957,o),
(166.316,312.957,cs),
(187.068,312.957,o),
(203.868,303.193,o),
(212.762,297.334,cs),
(234.503,284.64,o),
(255.256,269.993,o),
(276.997,257.3,cs),
(371.866,199.689,o),
(501.323,133.291,o),
(612.004,133.291,cs),
(673.274,133.291,o),
(733.556,157.702,o),
(787.908,188.949,cs),
(867.954,233.865,o),
(911.436,293.428,o),
(911.436,374.473,cs),
(911.436,476.023,o),
(854.119,547.304,o),
(745.414,588.315,cs),
(409.419,714.276,l),
(408.43,714.276,o),
(405.466,715.252,o),
(402.501,717.205,cs),
(400.525,718.182,o),
(397.56,720.135,o),
(394.595,721.111,cs),
(389.654,724.04,o),
(384.713,726.97,o),
(383.725,727.946,c),
(335.302,756.263,o),
(292.808,792.392,o),
(263.162,837.308,cs),
(228.574,890.036,o),
(214.739,948.623,o),
(214.739,1007.209,cs),
(214.739,1088.254,o),
(247.35,1162.464,o),
(307.632,1224.957,cs),
(387.678,1306.978,o),
(496.382,1341.154,o),
(617.934,1341.154,cs),
(717.744,1341.154,o),
(811.625,1312.837,o),
(894.636,1269.873,c),
(913.412,1261.085,o),
(935.153,1249.368,o),
(952.941,1237.65,cs),
(970.729,1224.957,o),
(989.505,1209.334,o),
(989.505,1181.017,cs),
(989.505,1159.535,o),
(966.776,1103.878,o),
(917.365,1103.878,cs),
(906.494,1103.878,o),
(897.6,1106.807,o),
(890.683,1108.76,c),
(884.754,1111.689,o),
(878.824,1114.618,o),
(873.883,1117.548,cs),
(858.072,1126.336,o),
(844.236,1135.124,o),
(828.425,1142.935,cs),
(762.214,1176.134,o),
(690.074,1200.546,o),
(615.957,1200.546,cs),
(479.582,1200.546,o),
(364.949,1126.336,o),
(364.949,1009.162,cs),
(364.949,916.4,o),
(431.159,854.884,o),
(530.97,815.826,cs),
(642.639,773.839,o),
(755.296,731.852,o),
(866.966,687.912,cs),
(877.836,684.006,o),
(889.695,676.195,o),
(899.577,669.359,cs),
(909.459,662.524,o),
(919.341,655.689,o),
(926.259,649.831,cs),
(1023.105,576.597,o),
(1061.645,480.906,o),
(1061.645,374.473,cs),
(1061.645,280.734,o),
(1022.117,199.689,o),
(952.941,129.385,cs),
(864.001,39.552,o),
(746.402,0.495,o),
(612.004,0.495,cs),
(463.771,0.495,o),
(323.443,61.034,o),
(208.809,129.385,cs),
(180.151,145.985,o),
(151.492,163.561,o),
(124.81,183.09,cs)
);
}
);
width = 1164;
}
);
unicode = 83;
},
{
glyphname = T;
layers = (
{
layerId = "AC87092A-E990-4874-8484-9ECA7DC3ECD4";
shapes = (
{
closed = 1;
nodes = (
(596.204,1200.546,l),
(178.186,1200.546,l),
(125.81,1200.546,o),
(102.093,1235.698,o),
(102.093,1270.85,cs),
(102.093,1306.002,o),
(125.81,1341.154,o),
(178.186,1341.154,cs),
(1165.421,1341.154,ls),
(1218.785,1341.154,o),
(1240.525,1305.025,o),
(1240.525,1270.85,cs),
(1240.525,1236.674,o),
(1218.785,1200.546,o),
(1165.421,1200.546,c),
(747.402,1200.546,l),
(747.402,70.799,ls),
(747.402,36.623,o),
(724.673,0.495,o),
(671.309,0.495,cs),
(617.945,0.495,o),
(596.204,37.6,o),
(596.204,70.799,cs)
);
}
);
width = 1266;
}
);
unicode = 84;
},
{
glyphname = U;
layers = (
{
layerId = "AC87092A-E990-4874-8484-9ECA7DC3ECD4";
shapes = (
{
closed = 1;
nodes = (
(102,1271,ls),
(102,1305,o),
(125,1341,o),
(178,1341,cs),
(232,1341,o),
(253,1304,o),
(253,1271,cs),
(253,491,ls),
(253,310,o),
(384,141,o),
(603,141,cs),
(817,141,o),
(953,312,o),
(953,489,cs),
(953,1273,ls),
(953,1306,o),
(975,1343,o),
(1028,1343,cs),
(1081,1343,o),
(1103,1306,o),
(1103,1273,cs),
(1103,489,ls),
(1103,249,o),
(914,0,o),
(603,0,cs),
(534,0,o),
(467,12,o),
(404,39,cs),
(201,123,o),
(102,307,o),
(102,491,cs)
);
}
);
width = 1268;
}
);
unicode = 85;
},
{
glyphname = V;
layers = (
{
layerId = "AC87092A-E990-4874-8484-9ECA7DC3ECD4";
shapes = (
{
closed = 1;
nodes = (
(104,1247,ls),
(101,1254,o),
(98,1263,o),
(98,1273,cs),
(98,1311,o),
(137,1341,o),
(180,1341,cs),
(220,1341,o),
(238,1316,o),
(245,1294,c),
(617,285,l),
(989,1294,l),
(995,1316,o),
(1014,1341,o),
(1054,1341,cs),
(1097,1341,o),
(1136,1311,o),
(1136,1273,cs),
(1136,1263,o),
(1133,1254,o),
(1130,1247,cs),
(688,47,ls),
(677,17,o),
(657,0,o),
(617,0,cs),
(576,0,o),
(557,17,o),
(546,47,cs)
);
}
);
width = 1267;
}
);
unicode = 86;
},
{
glyphname = W;
layers = (
{
layerId = "AC87092A-E990-4874-8484-9ECA7DC3ECD4";
shapes = (
{
closed = 1;
nodes = (
(82.329,1247.415,ls),
(79.364,1254.25,o),
(76.399,1263.038,o),
(76.399,1272.803,cs),
(76.399,1310.884,o),
(113.952,1341.154,o),
(157.434,1341.154,cs),
(198.939,1341.154,o),
(214.75,1316.743,o),
(222.656,1294.284,cs),
(594.228,284.64,l),
(966.788,1294.284,ls),
(977.658,1324.554,o),
(997.423,1341.154,o),
(1037.94,1341.154,cs),
(1078.457,1341.154,o),
(1098.221,1324.554,o),
(1109.092,1294.284,cs),
(1481.652,284.64,l),
(1853.223,1294.284,ls),
(1861.129,1315.766,o),
(1877.929,1341.154,o),
(1918.446,1341.154,cs),
(1961.928,1341.154,o),
(1999.48,1310.884,o),
(1999.48,1272.803,cs),
(1999.48,1263.038,o),
(1996.516,1254.25,o),
(1993.551,1247.415,cs),
(1552.804,47.364,ls),
(1541.933,17.094,o),
(1522.169,0.495,o),
(1481.652,0.495,cs),
(1442.123,0.495,o),
(1420.382,16.118,o),
(1409.512,47.364,cs),
(1037.94,1057.985,l),
(666.368,47.364,ls),
(655.498,16.118,o),
(633.757,0.495,o),
(594.228,0.495,cs),
(553.711,0.495,o),
(533.946,17.094,o),
(523.076,47.364,cs)
);
}
);
width = 2076;
}
);
unicode = 87;
},
{
glyphname = X;
layers = (
{
layerId = "AC87092A-E990-4874-8484-9ECA7DC3ECD4";
shapes = (
{
closed = 1;
nodes = (
(103.07,86.422,o),
(111.964,101.068,o),
(120.858,112.786,cs),
(573.463,696.7,l),
(156.434,1234.721,l),
(149.516,1245.462,o),
(141.61,1259.132,o),
(141.61,1274.755,cs),
(141.61,1308.931,o),
(182.127,1344.083,o),
(222.645,1344.083,cs),
(253.279,1344.083,o),
(272.056,1326.507,o),
(282.926,1312.837,cs),
(666.356,815.826,l),
(1053.74,1312.837,ls),
(1062.634,1324.554,o),
(1082.398,1344.083,o),
(1112.045,1344.083,cs),
(1154.538,1344.083,o),
(1190.114,1306.978,o),
(1190.114,1274.755,cs),
(1190.114,1257.179,o),
(1182.209,1240.58,o),
(1172.326,1228.862,cs),
(758.261,696.7,l),
(1210.867,112.786,ls),
(1219.761,101.068,o),
(1226.679,86.422,o),
(1226.679,70.799,cs),
(1226.679,37.6,o),
(1192.091,-0.482,o),
(1147.621,-0.482,cs),
(1115.998,-0.482,o),
(1097.221,20.024,o),
(1087.339,31.741,c),
(666.356,576.597,l),
(241.421,28.812,ls),
(232.527,17.094,o),
(214.739,-2.435,o),
(184.104,-2.435,cs),
(141.61,-2.435,o),
(103.07,35.647,o),
(103.07,68.846,cs)
);
}
);
width = 1264;
}
);
unicode = 88;
},
{
glyphname = Y;
layers = (
{
layerId = "AC87092A-E990-4874-8484-9ECA7DC3ECD4";
shapes = (
{
closed = 1;
nodes = (
(597.181,606.867,l),
(109.987,1228.862,ls),
(101.093,1240.58,o),
(92.199,1255.227,o),
(92.199,1272.803,cs),
(92.199,1306.002,o),
(131.728,1344.083,o),
(174.222,1344.083,cs),
(202.88,1344.083,o),
(220.668,1327.483,o),
(230.55,1314.79,cs),
(670.309,752.357,l),
(1108.092,1312.837,ls),
(1116.986,1324.554,o),
(1136.75,1344.083,o),
(1166.397,1344.083,cs),
(1209.879,1344.083,o),
(1246.443,1305.025,o),
(1246.443,1272.803,cs),
(1246.443,1254.25,o),
(1237.549,1239.603,o),
(1228.655,1228.862,cs),
(748.379,610.773,l),
(748.379,70.799,ls),
(748.379,36.623,o),
(725.65,0.495,o),
(672.286,0.495,cs),
(618.922,0.495,o),
(597.181,37.6,o),
(597.181,70.799,cs)
);
}
);
width = 1366;
}
);
unicode = 89;
},
{
glyphname = Z;
layers = (
{
layerId = "AC87092A-E990-4874-8484-9ECA7DC3ECD4";
shapes = (
{
closed = 1;
nodes = (
(81.34,32.717,o),
(80.352,44.435,o),
(80.352,53.223,cs),
(80.352,66.893,o),
(88.258,83.492,o),
(94.187,95.21,cs),
(101.105,107.904,o),
(109.011,120.597,o),
(114.94,128.409,c),
(816.578,1202.498,l),
(178.186,1202.498,l),
(125.81,1202.498,o),
(102.093,1237.65,o),
(102.093,1272.803,cs),
(102.093,1309.907,o),
(127.787,1341.154,o),
(178.186,1341.154,cs),
(933.188,1341.154,ls),
(983.588,1341.154,o),
(1024.105,1319.672,o),
(1024.105,1268.897,cs),
(1024.105,1255.227,o),
(1017.187,1239.603,o),
(1010.27,1230.815,c),
(297.761,141.103,l),
(1041.893,141.103,l),
(1095.257,141.103,o),
(1116.998,104.974,o),
(1116.998,70.799,cs),
(1116.998,36.623,o),
(1095.257,0.495,o),
(1041.893,0.495,cs),
(130.752,0.495,ls),
(109.999,0.495,o),
(96.164,9.283,o),
(88.258,21.976,cs)
);
}
);
width = 1267;
}
);
unicode = 90;
},
{
glyphname = bracketleft;
layers = (
{
layerId = "AC87092A-E990-4874-8484-9ECA7DC3ECD4";
shapes = (
{
closed = 1;
nodes = (
(168.316,1270.85,ls),
(168.316,1305.025,o),
(189.068,1341.154,o),
(243.421,1341.154,cs),
(490.476,1341.154,ls),
(543.84,1341.154,o),
(565.581,1305.025,o),
(565.581,1270.85,cs),
(565.581,1236.674,o),
(543.84,1200.546,o),
(490.476,1200.546,c),
(320.502,1200.546,l),
(320.502,141.103,l),
(488.5,141.103,l),
(541.864,141.103,o),
(563.605,104.974,o),
(563.605,70.799,cs),
(563.605,36.623,o),
(541.864,0.495,o),
(488.5,0.495,cs),
(243.421,0.495,ls),
(187.092,0.495,o),
(168.316,35.647,o),
(168.316,70.799,cs)
);
}
);
width = 763;
}
);
unicode = 91;
},
{
glyphname = backslash;
layers = (
{
layerId = "AC87092A-E990-4874-8484-9ECA7DC3ECD4";
shapes = (
{
closed = 1;
nodes = (
(170.28,1259.132,ls),
(169.292,1264.991,o),
(168.304,1270.85,o),
(168.304,1276.708,cs),
(168.304,1310.884,o),
(198.939,1342.13,o),
(243.409,1342.13,cs),
(290.844,1342.13,o),
(308.632,1311.86,o),
(314.561,1284.52,cs),
(567.546,84.469,ls),
(568.534,78.61,o),
(569.522,73.728,o),
(569.522,68.846,cs),
(569.522,33.694,o),
(534.935,1.471,o),
(492.441,1.471,cs),
(445.006,1.471,o),
(427.218,31.741,o),
(421.289,59.081,cs)
);
}
);
width = 761;
}
);
unicode = 92;
},
{
glyphname = bracketright;
layers = (
{
layerId = "AC87092A-E990-4874-8484-9ECA7DC3ECD4";
shapes = (
{
closed = 1;
nodes = (
(170.292,104.974,o),
(192.033,141.103,o),
(245.397,141.103,c),
(413.395,141.103,l),
(413.395,1200.546,l),
(243.421,1200.546,l),
(190.057,1200.546,o),
(168.316,1236.674,o),
(168.316,1270.85,cs),
(168.316,1305.025,o),
(190.057,1341.154,o),
(243.421,1341.154,cs),
(490.476,1341.154,ls),
(544.829,1341.154,o),
(565.581,1305.025,o),
(565.581,1270.85,cs),
(565.581,70.799,ls),
(565.581,35.647,o),
(546.805,0.495,o),
(490.476,0.495,cs),
(245.397,0.495,ls),
(192.033,0.495,o),
(170.292,36.623,o),
(170.292,70.799,cs)
);
}
);
width = 763;
}
);
unicode = 93;
},
{
glyphname = asciicircum;
layers = (
{
layerId = "AC87092A-E990-4874-8484-9ECA7DC3ECD4";
shapes = (
{
closed = 1;
nodes = (
(112.952,469.188,o),
(117.893,480.906,o),
(127.775,493.599,cs),
(457.841,943.741,ls),
(463.771,952.529,o),
(472.665,963.269,o),
(484.523,973.034,cs),
(495.394,981.822,o),
(512.194,991.586,o),
(532.946,991.586,cs),
(553.699,991.586,o),
(570.499,979.869,o),
(579.393,971.081,c),
(590.263,962.293,o),
(599.157,950.576,o),
(604.098,943.741,cs),
(934.165,493.599,ls),
(944.047,480.906,o),
(948.988,469.188,o),
(948.988,452.589,cs),
(948.988,419.39,o),
(914.4,381.308,o),
(869.93,381.308,cs),
(838.307,381.308,o),
(820.519,402.79,o),
(811.625,414.507,cs),
(530.97,796.297,l),
(250.315,414.507,ls),
(241.421,402.79,o),
(224.621,381.308,o),
(192.01,381.308,cs),
(147.54,381.308,o),
(112.952,419.39,o),
(112.952,452.589,cs)
);
}
);
width = 1063;
}
);
unicode = 94;
},
{
glyphname = underscore;
layers = (
{
layerId = "AC87092A-E990-4874-8484-9ECA7DC3ECD4";
shapes = (
{
closed = 1;
nodes = (
(-3.658,-239.711,l),
(-3.658,-98.126,l),
(1069.551,-98.126,l),
(1069.551,-239.711,l)
);
}
);
width = 1062;
}
);
unicode = 95;
},
{
glyphname = grave;
layers = (
{
layerId = "AC87092A-E990-4874-8484-9ECA7DC3ECD4";
shapes = (
{
closed = 1;
nodes = (
(-349.583,779.698,o),
(-344.642,792.392,o),
(-338.713,803.132,c),
(-33.352,1284.52,ls),
(-23.47,1299.167,o),
(-4.694,1319.672,o),
(26.929,1319.672,cs),
(78.317,1319.672,o),
(105.987,1292.331,o),
(105.987,1251.321,cs),
(105.987,1238.627,o),
(103.022,1225.933,o),
(95.117,1213.239,cs),
(-210.244,730.876,ls),
(-220.126,716.229,o),
(-240.879,696.7,o),
(-270.526,696.7,cs),
(-318.949,696.7,o),
(-349.583,730.876,o),
(-349.583,767.004,cs)
);
}
);
width = 55;
}
);
unicode = 96;
},
{
glyphname = a;
layers = (
{
layerId = "AC87092A-E990-4874-8484-9ECA7DC3ECD4";
shapes = (
{
closed = 1;
nodes = (
(102,508,o),
(209,709,o),
(431,709,cs),
(502,709,o),
(563,686,o),
(611,649,c),
(612,654,o),
(613,658,o),
(614,663,cs),
(622,688,o),
(643,709,o),
(686,709,cs),
(739,709,o),
(761,672,o),
(761,639,cs),
(761,71,ls),
(761,38,o),
(739,0,o),
(686,0,cs),
(643,0,o),
(622,22,o),
(614,47,cs),
(613,52,o),
(612,56,o),
(611,61,c),
(563,24,o),
(502,0,o),
(431,0,cs),
(212,0,o),
(102,204,o),
(102,355,cs)
);
},
{
closed = 1;
nodes = (
(253,260,o),
(322,141,o),
(431,141,cs),
(538,141,o),
(608,262,o),
(608,355,cs),
(608,451,o),
(542,569,o),
(431,569,cs),
(322,569,o),
(253,450,o),
(253,355,cs)
);
}
);
width = 862;
}
);
unicode = 97;
},
{
glyphname = b;
layers = (
{
layerId = "AC87092A-E990-4874-8484-9ECA7DC3ECD4";
shapes = (
{
closed = 1;
nodes = (
(102.093,1270.85,ls),
(102.093,1305.025,o),
(124.822,1341.154,o),
(178.186,1341.154,cs),
(231.55,1341.154,o),
(253.291,1304.049,o),
(253.291,1270.85,cs),
(253.291,651.783,l),
(301.714,687.912,o),
(361.007,709.394,o),
(431.171,709.394,cs),
(652.533,709.394,o),
(759.261,507.27,o),
(759.261,354.944,cs),
(759.261,203.595,o),
(651.545,0.495,o),
(431.171,0.495,cs),
(360.019,0.495,o),
(300.726,22.953,o),
(251.315,59.081,c),
(251.315,55.176,o),
(250.327,51.27,o),
(249.338,47.364,cs),
(241.433,21.976,o),
(220.68,0.495,o),
(178.186,0.495,cs),
(124.822,0.495,o),
(102.093,36.623,o),
(102.093,70.799,cs)
);
},
{
closed = 1;
nodes = (
(253.291,260.229,o),
(322.467,141.103,o),
(431.171,141.103,cs),
(537.899,141.103,o),
(608.063,262.182,o),
(608.063,354.944,cs),
(608.063,450.636,o),
(541.852,568.786,o),
(431.171,568.786,cs),
(322.467,568.786,o),
(253.291,449.659,o),
(253.291,354.944,cs)
);
}
);
width = 862;
}
);
unicode = 98;
},
{
glyphname = c;
layers = (
{
layerId = "AC87092A-E990-4874-8484-9ECA7DC3ECD4";
shapes = (
{
closed = 1;
nodes = (
(102,508,o),
(209,709,o),
(431,709,cs),
(553,709,o),
(636,647,o),
(692,566,cs),
(700,554,o),
(709,539,o),
(709,521,cs),
(709,488,o),
(671,452,o),
(630,452,cs),
(601,452,o),
(582,469,o),
(572,480,cs),
(531,528,o),
(490,569,o),
(431,569,cs),
(322,569,o),
(253,450,o),
(253,355,cs),
(253,260,o),
(322,141,o),
(431,141,cs),
(511,141,o),
(552,182,o),
(584,249,c),
(592,263,o),
(609,292,o),
(648,292,cs),
(686,292,o),
(730,263,o),
(730,226,cs),
(730,212,o),
(725,201,o),
(721,191,c),
(670,86,o),
(580,0,o),
(431,0,cs),
(212,0,o),
(102,204,o),
(102,355,cs)
);
}
);
width = 861;
}
);
unicode = 99;
},
{
glyphname = d;
layers = (
{
layerId = "AC87092A-E990-4874-8484-9ECA7DC3ECD4";
shapes = (
{
closed = 1;
nodes = (
(102.093,508.246,o),
(208.821,709.394,o),
(431.171,709.394,cs),
(501.335,709.394,o),
(559.64,686.936,o),
(608.063,651.783,c),
(608.063,1270.85,ls),
(608.063,1305.025,o),
(630.792,1341.154,o),
(684.156,1341.154,cs),
(737.52,1341.154,o),
(759.261,1304.049,o),
(759.261,1270.85,cs),
(759.261,70.799,ls),
(759.261,37.6,o),
(737.52,0.495,o),
(684.156,0.495,cs),
(641.663,0.495,o),
(619.922,21.976,o),
(613.004,46.388,c),
(611.028,50.293,o),
(610.04,55.176,o),
(610.04,59.081,c),
(560.628,22.953,o),
(502.323,0.495,o),
(431.171,0.495,cs),
(211.786,0.495,o),
(102.093,203.595,o),
(102.093,354.944,cs)
);
},
{
closed = 1;
nodes = (
(253.291,260.229,o),
(322.467,141.103,o),
(431.171,141.103,cs),
(537.899,141.103,o),
(608.063,262.182,o),
(608.063,354.944,cs),
(608.063,450.636,o),
(541.852,568.786,o),
(431.171,568.786,cs),
(322.467,568.786,o),
(253.291,449.659,o),
(253.291,354.944,cs)
);
}
);
width = 862;
}
);
unicode = 100;
},
{
glyphname = e;
layers = (
{
layerId = "AC87092A-E990-4874-8484-9ECA7DC3ECD4";
shapes = (
{
closed = 1;
nodes = (
(102,508,o),
(209,709,o),
(431,709,cs),
(653,709,o),
(759,507,o),
(759,355,cs),
(759,334,l),
(254,334,l),
(263,244,o),
(330,141,o),
(431,141,cs),
(488,141,o),
(540,169,o),
(567,212,cs),
(570,216,o),
(571,220,o),
(574,224,cs),
(576,228,o),
(580,233,o),
(585,238,cs),
(595,248,o),
(609,254,o),
(629,254,cs),
(669,254,o),
(711,225,o),
(711,187,cs),
(711,177,o),
(708,162,o),
(702,151,cs),
(697,143,o),
(691,135,o),
(684,127,cs),
(678,120,o),
(671,113,o),
(665,106,cs),
(608,43,o),
(531,0,o),
(431,0,cs),
(212,0,o),
(102,204,o),
(102,355,cs)
);
},
{
closed = 1;
nodes = (
(574,475,l),
(545,530,o),
(500,569,o),
(431,569,cs),
(361,569,o),
(317,531,o),
(287,475,c)
);
}
);
width = 862;
}
);
unicode = 101;
},
{
glyphname = f;
layers = (
{
layerId = "AC87092A-E990-4874-8484-9ECA7DC3ECD4";
shapes = (
{
closed = 1;
nodes = (
(296.773,610.773,l),
(178.186,610.773,ls),
(125.81,610.773,o),
(102.093,645.925,o),
(102.093,681.077,cs),
(102.093,716.229,o),
(125.81,751.381,o),
(178.186,751.381,c),
(296.773,751.381,l),
(296.773,950.576,ls),
(296.773,1057.985,o),
(323.455,1166.37,o),
(413.383,1252.297,cs),
(466.747,1304.049,o),
(534.935,1341.154,o),
(622.886,1341.154,cs),
(746.414,1341.154,o),
(821.519,1276.708,o),
(883.777,1202.498,cs),
(896.624,1187.852,o),
(902.553,1174.182,o),
(902.553,1154.653,cs),
(902.553,1126.336,o),
(877.848,1082.396,o),
(828.437,1082.396,cs),
(802.743,1082.396,o),
(783.967,1097.042,o),
(774.084,1106.807,cs),
(705.897,1175.158,ls),
(687.121,1194.687,o),
(657.474,1200.546,o),
(620.91,1200.546,cs),
(504.3,1200.546,o),
(446.983,1051.149,o),
(446.983,950.576,cs),
(446.983,751.381,l),
(549.758,751.381,l),
(602.134,751.381,o),
(625.851,716.229,o),
(625.851,681.077,cs),
(625.851,645.925,o),
(602.134,610.773,o),
(549.758,610.773,cs),
(446.983,610.773,l),
(446.983,70.799,ls),
(446.983,37.6,o),
(425.242,0.495,o),
(371.878,0.495,cs),
(318.514,0.495,o),
(296.773,37.6,o),
(296.773,70.799,cs)
);
}
);
width = 860;
}
);
unicode = 102;
},
{
glyphname = g;
layers = (
{
layerId = "AC87092A-E990-4874-8484-9ECA7DC3ECD4";
shapes = (
{
closed = 1;
nodes = (
(139,-432,o),
(157,-397,o),
(214,-397,cs),
(223,-397,o),
(233,-398,o),
(242,-401,cs),
(254,-405,o),
(262,-412,o),
(268,-417,cs),
(288,-435,o),
(306,-455,o),
(324,-473,cs),
(328,-477,o),
(332,-482,o),
(337,-486,cs),
(341,-490,o),
(344,-494,o),
(348,-496,c),
(370,-514,o),
(404,-525,o),
(435,-525,cs),
(492,-525,o),
(531,-481,o),
(561,-430,cs),
(592,-374,o),
(608,-315,o),
(608,-253,cs),
(608,58,l),
(560,23,o),
(501,0,o),
(431,0,cs),
(212,0,o),
(102,204,o),
(102,355,cs),
(102,508,o),
(209,709,o),
(431,709,cs),
(502,709,o),
(561,687,o),
(610,651,c),
(610,655,o),
(611,660,o),
(613,664,c),
(620,688,o),
(642,709,o),
(684,709,cs),
(738,709,o),
(759,672,o),
(759,639,cs),
(759,-241,ls),
(759,-370,o),
(710,-535,o),
(581,-622,cs),
(538,-652,o),
(488,-665,o),
(433,-665,cs),
(332,-665,o),
(254,-620,o),
(196,-557,cs),
(183,-542,o),
(172,-528,o),
(160,-513,cs),
(157,-510,o),
(155,-507,o),
(153,-505,cs),
(151,-501,o),
(149,-498,o),
(147,-495,cs),
(142,-487,o),
(139,-478,o),
(139,-467,cs)
);
},
{
closed = 1;
nodes = (
(253,260,o),
(322,141,o),
(431,141,cs),
(538,141,o),
(608,262,o),
(608,355,cs),
(608,451,o),
(542,569,o),
(431,569,cs),
(322,569,o),
(253,450,o),
(253,355,cs)
);
}
);
width = 862;
}
);
unicode = 103;
},
{
glyphname = h;
layers = (
{
layerId = "AC87092A-E990-4874-8484-9ECA7DC3ECD4";
shapes = (
{
closed = 1;
nodes = (
(102.093,1270.85,ls),
(102.093,1305.025,o),
(124.822,1341.154,o),
(178.186,1341.154,cs),
(231.55,1341.154,o),
(253.291,1304.049,o),
(253.291,1270.85,cs),
(253.291,681.077,l),
(296.773,703.535,o),
(350.137,709.394,o),
(396.583,709.394,cs),
(558.652,709.394,o),
(688.109,615.655,o),
(688.109,471.141,cs),
(688.109,72.752,ls),
(688.109,45.411,o),
(675.262,15.141,o),
(634.745,4.4,cs),
(632.769,3.424,o),
(629.804,2.448,o),
(625.851,1.471,cs),
(620.91,0.495,o),
(615.969,0.495,o),
(613.004,0.495,cs),
(610.04,0.495,o),
(605.098,0.495,o),
(600.157,1.471,cs),
(596.204,2.448,o),
(593.24,3.424,o),
(591.263,4.4,cs),
(550.746,15.141,o),
(537.899,45.411,o),
(537.899,72.752,cs),
(537.899,471.141,ls),
(537.899,534.61,o),
(475.641,568.786,o),
(396.583,568.786,cs),
(332.349,568.786,o),
(288.867,547.304,o),
(264.162,498.482,cs),
(263.173,495.552,o),
(260.209,488.717,o),
(257.244,481.882,cs),
(256.256,477.976,o),
(254.279,475.047,o),
(253.291,472.118,c),
(253.291,70.799,l),
(253.291,37.6,o),
(231.55,0.495,o),
(178.186,0.495,cs),
(124.822,0.495,o),
(102.093,36.623,o),
(102.093,70.799,cs)
);
}
);
width = 863;
}
);
unicode = 104;
},
{
glyphname = i;
layers = (
{
layerId = "AC87092A-E990-4874-8484-9ECA7DC3ECD4";
shapes = (
{
closed = 1;
nodes = (
(94.187,1042.361,o),
(116.916,1079.466,o),
(178.186,1079.466,cs),
(240.444,1079.466,o),
(261.197,1041.385,o),
(261.197,1001.351,cs),
(261.197,961.317,o),
(241.433,922.259,o),
(178.186,922.259,cs),
(115.928,922.259,o),
(94.187,960.34,o),
(94.187,1001.351,cs)
);
},
{
closed = 1;
nodes = (
(102.093,639.09,ls),
(102.093,673.265,o),
(124.822,709.394,o),
(178.186,709.394,cs),
(231.55,709.394,o),
(253.291,672.289,o),
(253.291,639.09,cs),
(253.291,70.799,ls),
(253.291,37.6,o),
(231.55,0.495,o),
(178.186,0.495,cs),
(124.822,0.495,o),
(102.093,36.623,o),
(102.093,70.799,cs)
);
}
);
width = 356;
}
);
unicode = 105;
},
{
glyphname = j;
layers = (
{
layerId = "AC87092A-E990-4874-8484-9ECA7DC3ECD4";
shapes = (
{
closed = 1;
nodes = (
(189.998,1041.385,o),
(210.75,1079.466,o),
(273.009,1079.466,cs),
(335.267,1079.466,o),
(356.019,1041.385,o),
(356.019,1001.351,cs),
(356.019,961.317,o),
(336.255,922.259,o),
(273.009,922.259,cs),
(209.762,922.259,o),
(189.998,961.317,o),
(189.998,1001.351,cs)
);
},
{
closed = 1;
nodes = (
(-260.632,-501.398,o),
(-262.608,-497.492,o),
(-264.585,-494.563,cs),
(-269.526,-485.775,o),
(-271.502,-477.963,o),
(-271.502,-467.223,cs),
(-271.502,-432.07,o),
(-252.726,-396.918,o),
(-196.397,-396.918,cs),
(-187.503,-396.918,o),
(-177.621,-397.895,o),
(-167.739,-400.824,cs),
(-155.88,-404.73,o),
(-147.974,-411.565,o),
(-142.045,-417.424,cs),
(-128.21,-430.118,o),
(-115.363,-443.788,o),
(-102.516,-457.458,cs),
(-89.669,-470.152,o),
(-77.81,-481.869,o),
(-65.952,-492.61,c),
(-41.246,-512.139,o),
(-14.564,-524.833,o),
(23.976,-524.833,cs),
(77.34,-524.833,o),
(121.81,-485.775,o),
(153.434,-425.235,cs),
(184.068,-367.625,o),
(197.904,-297.321,o),
(197.904,-253.381,cs),
(197.904,639.09,ls),
(197.904,672.289,o),
(219.645,709.394,o),
(273.009,709.394,cs),
(326.373,709.394,o),
(348.113,672.289,o),
(348.113,639.09,cs),
(348.113,-240.687,ls),
(348.113,-289.51,o),
(342.184,-338.332,o),
(328.349,-385.201,cs),
(296.726,-502.375,o),
(201.856,-665.441,o),
(22,-665.441,cs),
(-78.799,-665.441,o),
(-156.868,-618.571,o),
(-214.185,-557.055,cs),
(-228.02,-542.409,o),
(-238.891,-527.762,o),
(-250.749,-513.115,cs),
(-253.714,-510.186,o),
(-255.691,-507.257,o),
(-257.667,-504.327,cs)
);
}
);
width = 453;
}
);
unicode = 106;
},
{
glyphname = k;
layers = (
{
layerId = "AC87092A-E990-4874-8484-9ECA7DC3ECD4";
shapes = (
{
closed = 1;
nodes = (
(102.093,1270.85,ls),
(102.093,1305.025,o),
(124.822,1341.154,o),
(178.186,1341.154,cs),
(231.55,1341.154,o),
(253.291,1304.049,o),
(253.291,1270.85,cs),
(253.291,465.282,l),
(576.44,690.841,ls),
(587.31,698.653,o),
(603.122,707.441,o),
(623.875,707.441,cs),
(674.274,707.441,o),
(699.968,655.689,o),
(699.968,630.302,cs),
(699.968,605.891,o),
(684.156,588.315,o),
(666.368,576.597,cs),
(354.09,360.803,l),
(691.074,126.456,ls),
(707.874,114.739,o),
(723.685,96.186,o),
(723.685,72.752,cs),
(723.685,46.388,o),
(698.98,-2.435,o),
(649.568,-2.435,cs),
(629.804,-2.435,o),
(613.992,3.424,o),
(601.145,13.188,c),
(253.291,255.347,l),
(253.291,70.799,ls),
(253.291,37.6,o),
(231.55,0.495,o),
(178.186,0.495,cs),
(124.822,0.495,o),
(102.093,36.623,o),
(102.093,70.799,cs)
);
}
);
width = 861;
}
);
unicode = 107;
},
{
glyphname = l;
layers = (
{
layerId = "AC87092A-E990-4874-8484-9ECA7DC3ECD4";
shapes = (
{
closed = 1;
nodes = (
(102.093,1270.85,ls),
(102.093,1305.025,o),
(124.822,1341.154,o),
(178.186,1341.154,cs),
(231.55,1341.154,o),
(253.291,1304.049,o),
(253.291,1270.85,cs),
(253.291,70.799,ls),
(253.291,37.6,o),
(231.55,0.495,o),
(178.186,0.495,cs),
(124.822,0.495,o),
(102.093,36.623,o),
(102.093,70.799,cs)
);
}
);
width = 356;
}
);
unicode = 108;
},
{
glyphname = m;
layers = (
{
layerId = "AC87092A-E990-4874-8484-9ECA7DC3ECD4";
shapes = (
{
closed = 1;
nodes = (
(102.093,639.09,ls),
(102.093,676.195,o),
(122.846,709.394,o),
(178.186,709.394,cs),
(213.762,709.394,o),
(234.515,695.724,o),
(244.397,676.195,c),
(290.844,700.606,o),
(344.208,709.394,o),
(396.583,709.394,cs),
(478.606,709.394,o),
(552.723,687.912,o),
(609.051,636.16,c),
(669.333,688.888,o),
(745.426,711.347,o),
(831.401,711.347,cs),
(1020.152,711.347,o),
(1122.927,597.103,o),
(1122.927,446.73,cs),
(1122.927,72.752,ls),
(1122.927,38.576,o),
(1106.127,0.495,o),
(1047.822,0.495,cs),
(989.517,0.495,o),
(972.717,38.576,o),
(972.717,72.752,cs),
(972.717,473.094,ls),
(972.717,474.07,o),
(972.717,475.047,o),
(972.717,477,c),
(971.729,479.929,o),
(970.741,483.835,o),
(968.764,486.764,c),
(966.788,494.576,o),
(963.823,501.411,o),
(961.847,505.317,cs),
(940.106,552.186,o),
(894.648,570.739,o),
(831.401,570.739,cs),
(794.837,570.739,o),
(762.226,563.903,o),
(737.52,545.351,c),
(715.779,530.704,o),
(700.956,508.246,o),
(692.062,482.858,c),
(692.062,481.882,o),
(690.086,478.953,o),
(689.097,475.047,c),
(689.097,474.07,o),
(688.109,473.094,o),
(688.109,473.094,c),
(688.109,72.752,ls),
(688.109,38.576,o),
(671.309,0.495,o),
(613.004,0.495,cs),
(554.699,0.495,o),
(537.899,38.576,o),
(537.899,72.752,cs),
(537.899,471.141,ls),
(537.899,472.118,o),
(537.899,473.094,o),
(537.899,475.047,c),
(536.911,477.976,o),
(535.923,481.882,o),
(533.946,484.811,c),
(531.97,492.623,o),
(529.005,499.458,o),
(527.029,503.364,cs),
(505.288,550.233,o),
(459.83,568.786,o),
(396.583,568.786,cs),
(331.361,568.786,o),
(286.891,546.327,o),
(263.173,495.552,cs),
(262.185,493.599,o),
(259.221,486.764,o),
(256.256,480.906,c),
(255.268,477,o),
(254.279,474.07,o),
(253.291,472.118,c),
(253.291,70.799,l),
(253.291,35.647,o),
(234.515,0.495,o),
(178.186,0.495,cs),
(122.846,0.495,o),
(102.093,33.694,o),
(102.093,70.799,cs)
);
}
);
width = 1268;
}
);
unicode = 109;
},
{
glyphname = n;
layers = (
{
layerId = "AC87092A-E990-4874-8484-9ECA7DC3ECD4";
shapes = (
{
closed = 1;
nodes = (
(102.093,639.09,ls),
(102.093,681.077,o),
(130.752,709.394,o),
(183.127,709.394,cs),
(214.75,709.394,o),
(233.527,694.747,o),
(244.397,676.195,c),
(289.855,702.559,o),
(347.172,709.394,o),
(396.583,709.394,cs),
(590.275,709.394,o),
(688.109,596.126,o),
(688.109,442.824,cs),
(688.109,72.752,ls),
(688.109,38.576,o),
(671.309,0.495,o),
(613.004,0.495,cs),
(554.699,0.495,o),
(537.899,38.576,o),
(537.899,72.752,cs),
(537.899,471.141,l),
(537.899,472.118,o),
(537.899,473.094,o),
(537.899,474.07,c),
(536.911,477,o),
(535.923,479.929,o),
(534.935,482.858,cs),
(532.958,489.694,o),
(530.982,495.552,o),
(529.005,499.458,cs),
(508.253,549.257,o),
(461.806,568.786,o),
(396.583,568.786,cs),
(332.349,568.786,o),
(288.867,547.304,o),
(264.162,498.482,cs),
(263.173,495.552,o),
(260.209,488.717,o),
(257.244,481.882,cs),
(256.256,477.976,o),
(254.279,475.047,o),
(253.291,472.118,c),
(253.291,70.799,l),
(253.291,35.647,o),
(234.515,0.495,o),
(178.186,0.495,cs),
(122.846,0.495,o),
(102.093,33.694,o),
(102.093,70.799,cs)
);
}
);
width = 863;
}
);
unicode = 110;
},
{
glyphname = o;
layers = (
{
layerId = "AC87092A-E990-4874-8484-9ECA7DC3ECD4";
shapes = (
{
closed = 1;
nodes = (
(102,508,o),
(209,709,o),
(431,709,cs),
(653,709,o),
(759,507,o),
(759,355,cs),
(759,204,o),
(652,0,o),
(431,0,cs),
(212,0,o),
(102,204,o),
(102,355,cs)
);
},
{
closed = 1;
nodes = (
(253,260,o),
(322,141,o),
(431,141,cs),
(538,141,o),
(608,262,o),
(608,355,cs),
(608,451,o),
(542,569,o),
(431,569,cs),
(322,569,o),
(253,450,o),
(253,355,cs)
);
}
);
width = 862;
}
);
unicode = 111;
},
{
glyphname = p;
layers = (
{
layerId = "AC87092A-E990-4874-8484-9ECA7DC3ECD4";
shapes = (
{
closed = 1;
nodes = (
(102,639,ls),
(102,673,o),
(125,709,o),
(178,709,cs),
(221,709,o),
(241,688,o),
(249,663,cs),
(250,659,o),
(251,655,o),
(251,651,c),
(301,687,o),
(360,709,o),
(431,709,cs),
(653,709,o),
(759,507,o),
(759,355,cs),
(759,204,o),
(652,0,o),
(431,0,cs),
(361,0,o),
(302,22,o),
(253,58,c),
(253,-561,ls),
(253,-594,o),
(232,-631,o),
(178,-631,cs),
(125,-631,o),
(102,-595,o),
(102,-561,cs)
);
},
{
closed = 1;
nodes = (
(253,260,o),
(322,141,o),
(431,141,cs),
(538,141,o),
(608,262,o),
(608,355,cs),
(608,451,o),
(542,569,o),
(431,569,cs),
(322,569,o),
(253,450,o),
(253,355,cs)
);
}
);
width = 862;
}
);
unicode = 112;
},
{
glyphname = q;
layers = (
{
layerId = "AC87092A-E990-4874-8484-9ECA7DC3ECD4";
shapes = (
{
closed = 1;
nodes = (
(102,508,o),
(209,709,o),
(431,709,cs),
(499,709,o),
(558,688,o),
(606,654,c),
(611,683,o),
(635,709,o),
(680,709,cs),
(734,709,o),
(755,672,o),
(755,639,cs),
(755,-301,ls),
(755,-401,o),
(813,-525,o),
(928,-525,cs),
(960,-525,o),
(990,-516,o),
(1012,-499,c),
(1016,-497,o),
(1019,-494,o),
(1023,-490,cs),
(1027,-485,o),
(1031,-481,o),
(1035,-477,cs),
(1052,-459,o),
(1068,-443,o),
(1084,-425,c),
(1091,-419,o),
(1099,-411,o),
(1110,-404,cs),
(1121,-397,o),
(1135,-392,o),
(1152,-392,cs),
(1195,-392,o),
(1229,-430,o),
(1229,-461,cs),
(1229,-485,o),
(1211,-505,o),
(1201,-518,c),
(1140,-588,o),
(1043,-665,o),
(923,-665,cs),
(691,-665,o),
(604,-454,o),
(604,-301,cs),
(604,55,l),
(557,21,o),
(499,0,o),
(431,0,cs),
(212,0,o),
(102,204,o),
(102,355,cs)
);
},
{
closed = 1;
nodes = (
(253,260,o),
(322,141,o),
(431,141,cs),
(541,141,o),
(602,258,o),
(602,353,cs),
(602,451,o),
(545,569,o),
(431,569,cs),
(322,569,o),
(253,450,o),
(253,355,cs)
);
}
);
width = 856;
}
);
unicode = 113;
},
{
glyphname = r;
layers = (
{
layerId = "AC87092A-E990-4874-8484-9ECA7DC3ECD4";
shapes = (
{
closed = 1;
nodes = (
(102.093,639.09,ls),
(102.093,681.077,o),
(130.752,709.394,o),
(183.127,709.394,cs),
(214.75,709.394,o),
(233.527,694.747,o),
(244.397,676.195,c),
(289.855,702.559,o),
(347.172,709.394,o),
(396.583,709.394,cs),
(501.335,709.394,o),
(601.145,658.619,o),
(651.545,580.503,c),
(659.451,569.762,o),
(667.356,555.115,o),
(667.356,537.539,cs),
(667.356,503.364,o),
(625.851,469.188,o),
(586.322,469.188,cs),
(554.699,469.188,o),
(535.923,489.694,o),
(527.029,502.387,cs),
(494.417,548.28,o),
(458.841,568.786,o),
(396.583,568.786,cs),
(332.349,568.786,o),
(288.867,547.304,o),
(264.162,498.482,cs),
(263.173,495.552,o),
(260.209,488.717,o),
(257.244,481.882,cs),
(256.256,477.976,o),
(254.279,475.047,o),
(253.291,472.118,c),
(253.291,70.799,l),
(253.291,37.6,o),
(231.55,0.495,o),
(178.186,0.495,cs),
(124.822,0.495,o),
(102.093,36.623,o),
(102.093,70.799,cs)
);
}
);
width = 862;
}
);
unicode = 114;
},
{
glyphname = s;
layers = (
{
layerId = "AC87092A-E990-4874-8484-9ECA7DC3ECD4";
shapes = (
{
closed = 1;
nodes = (
(101.105,149.891,o),
(90.234,168.443,o),
(90.234,192.854,cs),
(90.234,215.313,o),
(109.011,266.088,o),
(160.398,266.088,cs),
(183.127,266.088,o),
(203.88,253.394,o),
(219.692,241.677,cs),
(236.491,229.959,o),
(255.268,214.336,o),
(277.009,198.713,cs),
(318.514,168.443,o),
(366.937,141.103,o),
(429.195,141.103,cs),
(489.476,141.103,o),
(543.829,184.066,o),
(543.829,234.841,cs),
(543.829,241.677,o),
(537.899,250.465,o),
(518.135,259.253,cs),
(500.347,268.041,o),
(477.618,273.899,o),
(460.818,276.829,c),
(425.242,285.617,o),
(389.666,292.452,o),
(356.066,302.216,c),
(321.479,311.004,o),
(287.879,322.722,o),
(257.244,338.345,cs),
(195.974,371.544,o),
(153.481,421.342,o),
(153.481,505.317,cs),
(153.481,612.726,o),
(273.056,709.394,o),
(396.583,709.394,cs),
(494.417,709.394,o),
(581.381,681.077,o),
(643.639,611.749,cs),
(653.521,601.008,o),
(665.38,586.362,o),
(665.38,565.856,cs),
(665.38,534.61,o),
(626.839,493.599,o),
(584.346,493.599,cs),
(569.522,493.599,o),
(557.664,498.482,o),
(548.77,504.34,cs),
(539.876,509.223,o),
(533.946,517.034,o),
(529.005,521.916,cs),
(496.394,557.068,o),
(449.947,568.786,o),
(392.631,568.786,cs),
(353.102,568.786,o),
(303.691,529.728,o),
(303.691,498.482,cs),
(303.691,484.811,o),
(311.596,473.094,o),
(327.408,462.353,c),
(344.208,452.589,o),
(365.949,444.777,o),
(386.701,438.918,c),
(449.947,423.295,o),
(513.194,406.696,o),
(575.452,390.096,cs),
(583.357,388.143,o),
(590.275,385.214,o),
(596.204,382.285,cs),
(601.145,379.355,o),
(607.075,376.426,o),
(612.016,374.473,c),
(666.368,344.203,o),
(694.038,299.287,o),
(694.038,244.606,cs),
(694.038,119.621,o),
(591.263,0.495,o),
(431.171,0.495,cs),
(306.655,0.495,o),
(199.927,68.846,o),
(120.869,134.268,cs)
);
}
);
width = 863;
}
);
unicode = 115;
},
{
glyphname = t;
layers = (
{
layerId = "AC87092A-E990-4874-8484-9ECA7DC3ECD4";
shapes = (
{
closed = 1;
nodes = (
(102.093,724.04,o),
(125.81,759.192,o),
(178.186,759.192,c),
(310.608,759.192,l),
(310.608,1270.85,ls),
(310.608,1305.025,o),
(333.337,1341.154,o),
(386.701,1341.154,cs),
(440.065,1341.154,o),
(461.806,1304.049,o),
(461.806,1270.85,cs),
(461.806,759.192,l),
(592.251,759.192,l),
(644.627,759.192,o),
(668.345,724.04,o),
(668.345,688.888,cs),
(668.345,653.736,o),
(644.627,618.584,o),
(592.251,618.584,c),
(461.806,618.584,l),
(461.806,70.799,ls),
(461.806,37.6,o),
(440.065,0.495,o),
(386.701,0.495,cs),
(333.337,0.495,o),
(310.608,36.623,o),
(310.608,70.799,cs),
(310.608,618.584,l),
(178.186,618.584,l),
(125.81,618.584,o),
(102.093,653.736,o),
(102.093,688.888,cs)
);
}
);
width = 863;
}
);
unicode = 116;
},
{
glyphname = u;
layers = (
{
layerId = "AC87092A-E990-4874-8484-9ECA7DC3ECD4";
shapes = (
{
closed = 1;
nodes = (
(102.093,637.137,ls),
(102.093,671.312,o),
(124.822,707.441,o),
(178.186,707.441,cs),
(231.55,707.441,o),
(253.291,670.336,o),
(253.291,637.137,cs),
(253.291,238.747,ls),
(253.291,236.794,o),
(253.291,231.912,o),
(255.268,226.053,cs),
(257.244,221.171,o),
(259.221,215.313,o),
(261.197,210.43,cs),
(281.95,160.632,o),
(328.396,141.103,o),
(394.607,141.103,cs),
(431.171,141.103,o),
(463.783,147.938,o),
(488.488,166.49,c),
(511.217,182.113,o),
(526.041,205.548,o),
(534.935,230.936,c),
(534.935,231.912,o),
(535.923,234.841,o),
(536.911,237.771,c),
(537.899,639.09,l),
(537.899,672.289,o),
(559.64,709.394,o),
(613.004,709.394,cs),
(666.368,709.394,o),
(688.109,672.289,o),
(688.109,639.09,cs),
(688.109,70.799,ls),
(688.109,35.647,o),
(669.333,0.495,o),
(613.004,0.495,cs),
(576.44,0.495,o),
(556.675,15.141,o),
(546.793,33.694,c),
(501.335,7.33,o),
(445.006,0.495,o),
(394.607,0.495,cs),
(200.915,0.495,o),
(102.093,113.762,o),
(102.093,267.064,cs)
);
}
);
width = 863;
}
);
unicode = 117;
},
{
glyphname = v;
layers = (
{
layerId = "AC87092A-E990-4874-8484-9ECA7DC3ECD4";
shapes = (
{
closed = 1;
nodes = (
(114,610,ls),
(110,619,o),
(106,630,o),
(106,643,cs),
(106,683,o),
(148,708,o),
(187,708,cs),
(228,708,o),
(245,679,o),
(252,662,cs),
(417,264,l),
(587,662,ls),
(594,678,o),
(611,708,o),
(652,708,cs),
(692,708,o),
(733,679,o),
(733,641,cs),
(733,629,o),
(730,619,o),
(726,610,cs),
(477,30,l),
(468,7,o),
(429,0,o),
(417,0,cs),
(404,0,o),
(369,8,o),
(360,30,cs)
);
}
);
width = 860;
}
);
unicode = 118;
},
{
glyphname = w;
layers = (
{
layerId = "AC87092A-E990-4874-8484-9ECA7DC3ECD4";
shapes = (
{
closed = 1;
nodes = (
(103,610,ls),
(99,620,o),
(96,630,o),
(96,641,cs),
(96,677,o),
(134,709,o),
(176,709,cs),
(218,709,o),
(235,680,o),
(242,662,c),
(407,264,l),
(577,662,ls),
(587,686,o),
(610,705,o),
(647,705,cs),
(683,705,o),
(706,687,o),
(716,662,cs),
(881,264,l),
(1051,660,l),
(1057,675,o),
(1074,707,o),
(1115,707,cs),
(1156,707,o),
(1196,679,o),
(1196,641,cs),
(1196,630,o),
(1193,619,o),
(1189,610,cs),
(940,28,ls),
(930,5,o),
(892,0,o),
(883,0,cs),
(875,0,o),
(863,2,o),
(854,5,cs),
(849,7,o),
(843,9,o),
(838,12,cs),
(834,14,o),
(826,19,o),
(823,28,c),
(647,447,l),
(467,30,l),
(458,7,o),
(419,0,o),
(407,0,cs),
(395,0,o),
(359,9,o),
(350,30,cs)
);
}
);
width = 1265;
}
);
unicode = 119;
},
{
glyphname = x;
layers = (
{
layerId = "AC87092A-E990-4874-8484-9ECA7DC3ECD4";
shapes = (
{
closed = 1;
nodes = (
(107,88,o),
(117,104,o),
(127,116,cs),
(333,355,l),
(135,595,ls),
(125,607,o),
(116,622,o),
(116,641,cs),
(116,671,o),
(151,713,o),
(195,713,cs),
(225,713,o),
(243,694,o),
(251,683,c),
(430,468,l),
(614,682,ls),
(624,693,o),
(643,710,o),
(671,710,cs),
(714,710,o),
(750,669,o),
(750,638,cs),
(750,621,o),
(740,604,o),
(731,592,c),
(524,355,l),
(723,117,ls),
(733,105,o),
(742,88,o),
(742,70,cs),
(742,39,o),
(706,-2,o),
(662,-2,cs),
(635,-2,o),
(615,15,o),
(606,27,c),
(429,242,l),
(243,26,ls),
(235,16,o),
(216,-2,o),
(187,-2,cs),
(145,-2,o),
(107,38,o),
(107,70,cs)
);
}
);
width = 860;
}
);
unicode = 120;
},
{
glyphname = y;
layers = (
{
layerId = "AC87092A-E990-4874-8484-9ECA7DC3ECD4";
shapes = (
{
closed = 1;
nodes = (
(67,-570,o),
(69,-559,o),
(73,-550,cs),
(337,71,l),
(110,610,ls),
(106,619,o),
(103,629,o),
(103,641,cs),
(103,677,o),
(139,707,o),
(181,707,cs),
(221,707,o),
(239,683,o),
(248,662,cs),
(413,264,l),
(583,662,ls),
(591,681,o),
(610,707,o),
(650,707,cs),
(699,707,o),
(730,670,o),
(730,635,cs),
(730,630,o),
(728,625,o),
(727,622,c),
(726,621,o),
(725,618,o),
(724,616,cs),
(212,-604,ls),
(205,-621,o),
(187,-650,o),
(149,-650,cs),
(107,-650,o),
(67,-620,o),
(67,-581,cs)
);
}
);
width = 861;
}
);
unicode = 121;
},
{
glyphname = z;
layers = (
{
layerId = "AC87092A-E990-4874-8484-9ECA7DC3ECD4";
shapes = (
{
closed = 1;
nodes = (
(100.117,83.492,o),
(103.081,97.163,o),
(113.952,110.833,cs),
(478.606,568.786,l),
(246.374,568.786,l),
(193.998,568.786,o),
(171.269,605.891,o),
(171.269,639.09,cs),
(171.269,672.289,o),
(193.998,709.394,o),
(246.374,709.394,cs),
(628.816,709.394,ls),
(684.156,709.394,o),
(704.909,676.195,o),
(704.909,639.09,cs),
(704.909,633.231,o),
(698.98,611.749,o),
(693.05,604.914,cs),
(323.455,141.103,l),
(653.521,141.103,l),
(709.85,141.103,o),
(728.626,105.951,o),
(728.626,70.799,cs),
(728.626,35.647,o),
(709.85,0.495,o),
(653.521,0.495,cs),
(176.21,0.495,ls),
(120.869,0.495,o),
(100.117,33.694,o),
(100.117,70.799,cs)
);
}
);
width = 862;
}
);
unicode = 122;
},
{
glyphname = braceleft;
layers = (
{
layerId = "AC87092A-E990-4874-8484-9ECA7DC3ECD4";
shapes = (
{
closed = 1;
nodes = (
(168.775,703.535,l),
(222.139,723.064,ls),
(296.256,751.381,o),
(312.067,814.85,o),
(312.067,889.06,cs),
(312.067,1201.522,ls),
(312.067,1298.19,o),
(373.337,1345.059,o),
(485.006,1345.059,cs),
(510.7,1345.059,o),
(535.406,1343.107,o),
(560.111,1339.201,cs),
(713.286,1316.743,l),
(559.123,1298.19,ls),
(515.641,1293.308,o),
(485.995,1275.732,o),
(472.159,1242.533,cs),
(471.171,1239.603,o),
(469.195,1235.698,o),
(468.207,1231.792,cs),
(467.218,1227.886,o),
(467.218,1225.933,o),
(467.218,1224.957,c),
(467.218,889.06,ls),
(467.218,867.578,o),
(463.265,844.143,o),
(460.301,822.661,c),
(456.348,775.792,o),
(434.607,733.805,o),
(391.125,706.464,c),
(460.301,662.524,o),
(465.242,584.409,o),
(465.242,524.846,cs),
(465.242,157.702,ls),
(465.242,96.186,o),
(489.947,61.034,o),
(557.147,53.223,cs),
(666.839,40.529,l),
(561.099,13.188,ls),
(535.406,6.353,o),
(508.724,4.4,o),
(483.03,4.4,cs),
(402.984,4.4,o),
(322.938,34.67,o),
(313.056,118.645,c),
(310.091,136.221,o),
(310.091,155.749,o),
(310.091,173.325,cs),
(312.067,524.846,l),
(313.056,542.422,o),
(308.115,562.927,o),
(307.126,580.503,c),
(301.197,630.302,o),
(274.515,668.383,o),
(223.127,684.983,cs)
);
}
);
width = 935;
}
);
unicode = 123;
},
{
glyphname = bar;
layers = (
{
layerId = "AC87092A-E990-4874-8484-9ECA7DC3ECD4";
shapes = (
{
closed = 1;
nodes = (
(0.294,1491.526,l),
(0.294,1566.712,l),
(3014.373,1566.712,l),
(3014.373,1491.526,l)
);
},
{
closed = 1;
nodes = (
(0.294,-33.681,l),
(0.294,41.505,l),
(3014.373,41.505,l),
(3014.373,-33.681,l)
);
}
);
width = 958;
}
);
unicode = 124;
},
{
glyphname = braceright;
layers = (
{
layerId = "AC87092A-E990-4874-8484-9ECA7DC3ECD4";
shapes = (
{
closed = 1;
nodes = (
(198.34,40.529,l),
(308.033,53.223,ls),
(359.421,59.081,o),
(393.02,86.422,o),
(398.95,129.385,cs),
(400.926,145.985,o),
(399.938,164.537,o),
(399.938,181.137,cs),
(399.938,524.846,ls),
(399.938,580.503,o),
(410.808,662.524,o),
(474.055,706.464,c),
(430.573,733.805,o),
(408.832,775.792,o),
(404.879,822.661,c),
(401.914,844.143,o),
(397.961,867.578,o),
(397.961,889.06,cs),
(397.961,1171.252,ls),
(397.961,1179.064,o),
(399.938,1186.875,o),
(399.938,1195.663,cs),
(399.938,1257.179,o),
(374.244,1293.308,o),
(306.057,1302.096,cs),
(168.694,1318.695,l),
(304.08,1343.107,ls),
(327.798,1347.012,o),
(351.515,1348.965,o),
(376.221,1348.965,cs),
(465.161,1348.965,o),
(534.336,1318.695,o),
(549.159,1233.745,cs),
(550.148,1227.886,o),
(551.136,1221.051,o),
(551.136,1215.192,cs),
(551.136,1209.334,o),
(550.148,1204.451,o),
(551.136,1198.593,c),
(551.136,1178.087,o),
(551.136,1156.606,o),
(551.136,1136.1,cs),
(551.136,1080.443,o),
(551.136,1024.785,o),
(552.124,970.105,cs),
(552.124,943.741,o),
(550.148,916.4,o),
(552.124,890.036,cs),
(553.112,869.531,o),
(554.101,850.002,o),
(556.077,829.496,c),
(556.077,826.567,o),
(557.065,822.661,o),
(558.053,819.732,cs),
(559.042,814.85,o),
(561.018,809.968,o),
(562.995,806.062,cs),
(576.83,767.004,o),
(601.535,738.687,o),
(643.041,724.04,cs),
(697.393,703.535,l),
(642.052,684.983,ls),
(589.677,668.383,o),
(562.995,630.302,o),
(557.065,580.503,c),
(556.077,562.927,o),
(551.136,542.422,o),
(552.124,524.846,c),
(552.124,399.861,o),
(554.101,274.876,o),
(554.101,150.867,cs),
(554.101,53.223,o),
(495.795,4.4,o),
(382.15,4.4,cs),
(356.456,4.4,o),
(329.774,6.353,o),
(304.08,13.188,cs)
);
}
);
width = 919;
}
);
unicode = 125;
},
{
glyphname = asciitilde;
layers = (
{
layerId = "AC87092A-E990-4874-8484-9ECA7DC3ECD4";
shapes = (
{
closed = 1;
nodes = (
(-659.932,740.64,o),
(-679.697,775.792,o),
(-679.697,812.897,cs),
(-679.697,827.544,o),
(-670.803,851.955,o),
(-655.98,863.672,cs),
(-650.05,868.554,o),
(-643.133,873.436,o),
(-636.215,877.342,cs),
(-631.274,880.272,o),
(-624.356,883.201,o),
(-619.415,887.107,c),
(-599.651,898.824,o),
(-570.004,915.424,o),
(-539.369,929.094,cs),
(-509.723,942.764,o),
(-474.147,955.458,o),
(-442.523,955.458,cs),
(-397.065,955.458,o),
(-357.536,933.976,o),
(-327.89,916.4,cs),
(-314.055,907.612,o),
(-301.208,899.801,o),
(-290.337,892.965,cs),
(-285.396,890.036,o),
(-281.443,888.083,o),
(-277.49,886.13,c),
(-276.502,886.13,o),
(-275.514,886.13,o),
(-274.526,885.154,c),
(-255.749,885.154,o),
(-184.597,922.259,o),
(-160.88,938.858,c),
(-157.915,941.788,o),
(-154.951,943.741,o),
(-151.986,945.693,cs),
(-149.021,947.646,o),
(-145.068,949.599,o),
(-141.116,951.552,cs),
(-132.222,955.458,o),
(-122.339,957.411,o),
(-110.481,957.411,cs),
(-54.152,957.411,o),
(-35.376,922.259,o),
(-35.376,887.107,cs),
(-35.376,874.413,o),
(-43.282,847.072,o),
(-59.093,833.402,cs),
(-66.011,828.52,o),
(-72.928,824.614,o),
(-79.846,820.708,cs),
(-85.775,817.779,o),
(-91.704,814.85,o),
(-97.634,810.944,cs),
(-117.398,800.203,o),
(-147.045,783.604,o),
(-177.68,769.933,cs),
(-208.315,757.24,o),
(-243.891,744.546,o),
(-274.526,744.546,cs),
(-295.278,744.546,o),
(-314.055,750.404,o),
(-330.854,758.216,cs),
(-346.666,765.051,o),
(-362.477,774.816,o),
(-376.313,783.604,cs),
(-389.159,791.415,o),
(-402.006,800.203,o),
(-414.853,806.062,cs),
(-425.724,811.92,o),
(-435.606,814.85,o),
(-442.523,814.85,cs),
(-474.147,814.85,o),
(-520.593,784.58,o),
(-551.228,760.169,cs),
(-564.075,749.428,o),
(-577.91,740.64,o),
(-602.616,740.64,cs)
);
}
);
width = 53;
}
);
unicode = 126;
},
{
glyphname = exclamdown;
layers = (
{
layerId = "AC87092A-E990-4874-8484-9ECA7DC3ECD4";
shapes = (
{
closed = 1;
nodes = (
(350.172,1304.049,o),
(372.901,1341.154,o),
(434.171,1341.154,cs),
(496.429,1341.154,o),
(517.182,1303.072,o),
(517.182,1263.038,cs),
(517.182,1223.004,o),
(497.417,1183.946,o),
(434.171,1183.946,cs),
(371.913,1183.946,o),
(350.172,1222.027,o),
(350.172,1263.038,cs)
);
},
{
closed = 1;
nodes = (
(358.078,971.081,ls),
(358.078,1005.257,o),
(380.807,1041.385,o),
(434.171,1041.385,cs),
(487.535,1041.385,o),
(509.276,1004.28,o),
(509.276,971.081,cs),
(509.276,70.799,ls),
(509.276,37.6,o),
(487.535,0.495,o),
(434.171,0.495,cs),
(380.807,0.495,o),
(358.078,36.623,o),
(358.078,70.799,cs)
);
}
);
width = 868;
}
);
unicode = 161;
},
{
glyphname = cent;
layers = (
{
layerId = "AC87092A-E990-4874-8484-9ECA7DC3ECD4";
shapes = (
{
closed = 1;
nodes = (
(374.866,437.942,o),
(413.407,352.991,o),
(476.653,312.957,c),
(476.653,697.676,l),
(412.419,659.595,o),
(374.866,573.668,o),
(374.866,505.317,cs)
);
},
{
closed = 1;
nodes = (
(223.668,641.043,o),
(305.691,807.038,o),
(476.653,850.978,c),
(476.653,938.858,ls),
(476.653,972.057,o),
(498.394,1009.162,o),
(551.758,1009.162,cs),
(605.122,1009.162,o),
(627.851,973.034,o),
(627.851,938.858,cs),
(627.851,850.978,l),
(711.85,829.496,o),
(771.143,775.792,o),
(813.637,715.252,cs),
(821.543,704.512,o),
(830.437,688.888,o),
(830.437,671.312,cs),
(830.437,639.09,o),
(792.884,601.008,o),
(751.379,601.008,cs),
(735.567,601.008,o),
(723.709,606.867,o),
(713.826,613.702,cs),
(704.932,619.561,o),
(696.038,628.349,o),
(689.121,636.16,cs),
(683.192,643.972,o),
(676.274,651.783,o),
(670.345,659.595,cs),
(664.415,667.407,o),
(659.474,673.265,o),
(655.521,677.171,cs),
(646.627,684.983,o),
(637.733,691.818,o),
(627.851,698.653,c),
(627.851,308.075,l),
(663.427,326.627,o),
(688.133,359.826,o),
(705.921,398.884,cs),
(709.874,406.696,o),
(715.803,417.437,o),
(724.697,426.225,cs),
(734.579,435.013,o),
(748.414,441.848,o),
(767.19,441.848,cs),
(804.743,441.848,o),
(851.189,414.507,o),
(851.189,375.45,cs),
(851.189,361.779,o),
(846.248,350.062,o),
(842.295,341.274,cs),
(801.778,260.229,o),
(737.544,182.113,o),
(627.851,158.679,c),
(627.851,70.799,ls),
(627.851,36.623,o),
(605.122,0.495,o),
(551.758,0.495,cs),
(498.394,0.495,o),
(476.653,37.6,o),
(476.653,70.799,cs),
(476.653,158.679,l),
(304.702,201.642,o),
(223.668,371.544,o),
(223.668,505.317,cs)
);
}
);
width = 1066;
}
);
unicode = 162;
},
{
glyphname = dieresis;
layers = (
{
layerId = "AC87092A-E990-4874-8484-9ECA7DC3ECD4";
shapes = (
{
closed = 1;
nodes = (
(463.794,1245.462,o),
(484.547,1285.496,o),
(548.781,1285.496,cs),
(612.028,1285.496,o),
(636.733,1248.391,o),
(636.733,1204.451,cs),
(636.733,1160.511,o),
(613.016,1122.43,o),
(548.781,1122.43,cs),
(483.559,1122.43,o),
(463.794,1164.417,o),
(463.794,1204.451,cs)
);
},
{
closed = 1;
nodes = (
(150.528,1245.462,o),
(171.28,1285.496,o),
(235.515,1285.496,cs),
(298.761,1285.496,o),
(322.479,1247.415,o),
(322.479,1204.451,cs),
(322.479,1162.464,o),
(299.749,1122.43,o),
(235.515,1122.43,cs),
(170.292,1122.43,o),
(150.528,1164.417,o),
(150.528,1204.451,cs)
);
}
);
width = 864;
}
);
unicode = 168;
},
{
glyphname = copyright;
layers = (
{
layerId = "AC87092A-E990-4874-8484-9ECA7DC3ECD4";
shapes = (
{
closed = 1;
nodes = (
(140.622,480.906,o),
(277.985,307.098,o),
(490.453,307.098,cs),
(700.944,307.098,o),
(838.307,482.858,o),
(838.307,656.666,cs),
(838.307,832.426,o),
(703.909,1006.233,o),
(490.453,1006.233,cs),
(443.018,1006.233,o),
(396.572,997.445,o),
(354.078,978.893,cs),
(213.75,920.306,o),
(140.622,789.462,o),
(140.622,656.666,cs)
);
},
{
closed = 1;
nodes = (
(40.812,714.276,o),
(51.682,772.863,o),
(75.399,827.544,cs),
(140.622,976.94,o),
(291.82,1097.042,o),
(490.453,1097.042,cs),
(551.723,1097.042,o),
(611.016,1085.325,o),
(665.368,1061.89,cs),
(842.26,985.728,o),
(938.118,818.756,o),
(938.118,656.666,cs),
(938.118,493.599,o),
(844.236,327.604,o),
(666.356,251.441,cs),
(611.016,228.006,o),
(551.723,216.289,o),
(490.453,216.289,cs),
(429.183,216.289,o),
(367.913,227.03,o),
(312.573,250.465,cs),
(129.752,325.651,o),
(40.812,493.599,o),
(40.812,656.666,cs)
);
},
{
closed = 1;
nodes = (
(297.749,756.263,o),
(361.984,877.342,o),
(494.406,877.342,cs),
(567.534,877.342,o),
(617.934,841.214,o),
(650.545,793.368,cs),
(655.486,786.533,o),
(660.427,776.768,o),
(660.427,765.051,cs),
(660.427,744.546,o),
(637.698,714.276,o),
(605.087,714.276,cs),
(595.204,714.276,o),
(587.299,717.205,o),
(582.357,720.135,cs),
(576.428,723.064,o),
(572.475,726.97,o),
(568.522,730.876,cs),
(560.617,737.711,o),
(553.699,745.522,o),
(544.805,754.31,cs),
(528.005,769.933,o),
(513.182,780.674,o),
(494.406,780.674,cs),
(443.018,780.674,o),
(403.489,721.111,o),
(403.489,669.359,cs),
(403.489,617.608,o),
(443.018,559.021,o),
(494.406,559.021,cs),
(532.946,559.021,o),
(552.711,576.597,o),
(568.522,611.749,cs),
(570.499,616.631,o),
(574.452,624.443,o),
(580.381,630.302,cs),
(588.287,638.113,o),
(599.157,642.995,o),
(612.992,642.995,cs),
(638.686,642.995,o),
(673.274,625.419,o),
(673.274,595.15,cs),
(673.274,586.362,o),
(670.309,578.55,o),
(667.345,572.691,cs),
(637.698,513.128,o),
(583.346,460.4,o),
(494.406,460.4,cs),
(363.96,460.4,o),
(297.749,583.432,o),
(297.749,669.359,cs)
);
}
);
width = 1064;
}
);
unicode = 169;
},
{
glyphname = guillemotleft;
layers = (
{
layerId = "AC87092A-E990-4874-8484-9ECA7DC3ECD4";
shapes = (
{
closed = 1;
nodes = (
(645.639,459.424,ls),
(631.804,469.188,o),
(600.181,501.411,o),
(600.181,526.799,cs),
(600.181,542.422,o),
(610.063,557.068,o),
(618.957,566.833,cs),
(627.851,577.574,o),
(639.71,586.362,o),
(647.616,592.22,cs),
(931.235,794.344,ls),
(942.106,802.156,o),
(957.917,809.968,o),
(976.694,809.968,cs),
(1026.105,809.968,o),
(1053.775,765.051,o),
(1053.775,734.781,cs),
(1053.775,710.37,o),
(1037.963,692.794,o),
(1021.164,681.077,cs),
(799.802,524.846,l),
(1033.022,358.85,ls),
(1049.822,347.133,o),
(1064.645,329.557,o),
(1064.645,305.145,cs),
(1064.645,273.899,o),
(1036.975,231.912,o),
(987.564,231.912,cs),
(969.776,231.912,o),
(952.976,240.7,o),
(943.094,247.535,cs)
);
},
{
closed = 1;
nodes = (
(280.985,463.33,ls),
(263.197,476.023,o),
(233.55,501.411,o),
(233.55,532.657,cs),
(233.55,549.257,o),
(243.433,562.927,o),
(252.327,572.691,cs),
(262.209,582.456,o),
(273.079,590.267,o),
(280.985,596.126,cs),
(566.581,800.203,ls),
(568.558,802.156,o),
(571.522,804.109,o),
(573.499,805.085,cs),
(576.463,807.038,o),
(579.428,808.991,o),
(582.393,809.968,cs),
(589.31,813.873,o),
(598.204,816.803,o),
(609.075,816.803,cs),
(659.474,816.803,o),
(686.156,770.91,o),
(686.156,740.64,cs),
(686.156,716.229,o),
(671.333,698.653,o),
(654.533,686.936,cs),
(434.159,528.751,l),
(667.38,364.709,ls),
(684.18,352.991,o),
(699.991,334.439,o),
(699.991,310.028,cs),
(699.991,280.734,o),
(672.321,235.818,o),
(622.91,235.818,cs),
(604.134,235.818,o),
(588.322,244.606,o),
(578.44,251.441,cs)
);
}
);
width = 1269;
}
);
unicode = 171;
},
{
glyphname = registered;
layers = (
{
layerId = "AC87092A-E990-4874-8484-9ECA7DC3ECD4";
shapes = (
{
closed = 1;
nodes = (
(140.622,480.906,o),
(277.985,307.098,o),
(490.453,307.098,cs),
(700.944,307.098,o),
(838.307,482.858,o),
(838.307,656.666,cs),
(838.307,832.426,o),
(703.909,1006.233,o),
(490.453,1006.233,cs),
(443.018,1006.233,o),
(396.572,997.445,o),
(354.078,978.893,cs),
(213.75,920.306,o),
(140.622,789.462,o),
(140.622,656.666,cs)
);
},
{
closed = 1;
nodes = (
(40.812,714.276,o),
(51.682,772.863,o),
(75.399,827.544,cs),
(140.622,976.94,o),
(291.82,1097.042,o),
(490.453,1097.042,cs),
(551.723,1097.042,o),
(611.016,1085.325,o),
(665.368,1061.89,cs),
(842.26,985.728,o),
(938.118,818.756,o),
(938.118,656.666,cs),
(938.118,493.599,o),
(844.236,327.604,o),
(666.356,251.441,cs),
(611.016,228.006,o),
(551.723,216.289,o),
(490.453,216.289,cs),
(429.183,216.289,o),
(367.913,227.03,o),
(312.573,250.465,cs),
(129.752,325.651,o),
(40.812,493.599,o),
(40.812,656.666,cs)
);
},
{
closed = 1;
nodes = (
(352.102,797.274,ls),
(352.102,828.52,o),
(377.795,845.12,o),
(410.407,845.12,cs),
(428.195,845.12,o),
(441.042,839.261,o),
(447.959,830.473,c),
(474.641,843.167,o),
(505.276,845.12,o),
(528.993,845.12,cs),
(594.216,845.12,o),
(649.557,818.756,o),
(681.18,768.957,cs),
(686.121,762.122,o),
(692.05,751.381,o),
(692.05,738.687,cs),
(692.05,713.3,o),
(661.415,691.818,o),
(634.733,691.818,cs),
(610.028,691.818,o),
(599.157,705.488,o),
(592.24,715.252,cs),
(578.405,737.711,o),
(558.64,748.452,o),
(528.993,748.452,cs),
(497.37,748.452,o),
(477.606,737.711,o),
(465.747,714.276,c),
(464.759,713.3,o),
(463.771,709.394,o),
(461.794,705.488,c),
(461.794,704.512,o),
(460.806,703.535,o),
(460.806,702.559,c),
(460.806,477,ls),
(460.806,452.589,o),
(441.042,428.178,o),
(405.466,428.178,cs),
(367.913,428.178,o),
(352.102,456.494,o),
(352.102,477,cs)
);
}
);
width = 1064;
}
);
unicode = 174;
},
{
glyphname = macron;
layers = (
{
layerId = "AC87092A-E990-4874-8484-9ECA7DC3ECD4";
shapes = (
{
closed = 1;
nodes = (
(0.294,1170.276,l),
(0.294,1339.201,l),
(727.626,1339.201,l),
(727.626,1170.276,l)
);
}
);
width = 728;
}
);
unicode = 175;
},
{
glyphname = degree;
layers = (
{
layerId = "AC87092A-E990-4874-8484-9ECA7DC3ECD4";
shapes = (
{
closed = 1;
nodes = (
(135.704,1176.134,o),
(229.586,1303.072,o),
(389.678,1303.072,cs),
(549.77,1303.072,o),
(642.663,1175.158,o),
(642.663,1057.008,cs),
(642.663,940.811,o),
(547.793,809.968,o),
(389.678,809.968,cs),
(229.586,809.968,o),
(135.704,938.858,o),
(135.704,1057.008,cs)
);
},
{
closed = 1;
nodes = (
(286.903,1001.351,o),
(329.396,951.552,o),
(389.678,951.552,cs),
(449.959,951.552,o),
(492.453,1001.351,o),
(492.453,1057.008,cs),
(492.453,1112.666,o),
(449.959,1162.464,o),
(389.678,1162.464,cs),
(329.396,1162.464,o),
(286.903,1112.666,o),
(286.903,1057.008,cs)
);
}
);
width = 864;
}
);
unicode = 176;
},
{
glyphname = plusminus;
layers = (
{
layerId = "AC87092A-E990-4874-8484-9ECA7DC3ECD4";
shapes = (
{
closed = 1;
nodes = (
(186.092,848.049,l),
(131.74,848.049,o),
(110.987,886.13,o),
(110.987,919.329,cs),
(110.987,953.505,o),
(132.728,989.633,o),
(186.092,989.633,c),
(438.089,989.633,l),
(438.089,1242.533,ls),
(438.089,1275.732,o),
(460.818,1313.813,o),
(514.182,1313.813,cs),
(568.534,1313.813,o),
(589.287,1274.755,o),
(589.287,1242.533,cs),
(589.287,989.633,l),
(841.284,989.633,l),
(892.671,989.633,o),
(917.377,954.481,o),
(917.377,919.329,cs),
(917.377,885.154,o),
(893.659,848.049,o),
(841.284,848.049,c),
(589.287,848.049,l),
(589.287,595.15,ls),
(589.287,561.951,o),
(567.546,524.846,o),
(514.182,524.846,cs),
(460.818,524.846,o),
(438.089,560.974,o),
(438.089,595.15,cs),
(438.089,848.049,l)
);
},
{
closed = 1;
nodes = (
(203.88,200.666,ls),
(151.504,200.666,o),
(128.775,237.771,o),
(128.775,270.97,cs),
(128.775,304.169,o),
(151.504,341.274,o),
(203.88,341.274,cs),
(877.848,341.274,ls),
(931.212,341.274,o),
(952.953,305.145,o),
(952.953,270.97,cs),
(952.953,236.794,o),
(931.212,200.666,o),
(877.848,200.666,cs)
);
}
);
width = 1065;
}
);
unicode = 177;
},
{
glyphname = acute;
layers = (
{
layerId = "AC87092A-E990-4874-8484-9ECA7DC3ECD4";
shapes = (
{
closed = 1;
nodes = (
(301.749,1014.045,o),
(306.691,1025.762,o),
(312.62,1036.503,c),
(464.806,1274.755,ls),
(474.688,1290.379,o),
(493.465,1308.931,o),
(525.088,1308.931,cs),
(576.475,1308.931,o),
(604.145,1281.591,o),
(604.145,1240.58,cs),
(604.145,1227.886,o),
(600.193,1215.192,o),
(593.275,1203.475,cs),
(441.089,965.222,ls),
(431.207,950.576,o),
(412.43,930.07,o),
(380.807,930.07,cs),
(332.384,930.07,o),
(301.749,967.175,o),
(301.749,1001.351,cs)
);
}
);
width = 866;
}
);
unicode = 180;
},
{
glyphname = paragraph;
layers = (
{
layerId = "AC87092A-E990-4874-8484-9ECA7DC3ECD4";
shapes = (
{
closed = 1;
nodes = (
(555.675,845.12,l),
(674.262,845.12,l),
(674.262,1200.546,l),
(555.675,1200.546,l)
);
},
{
closed = 1;
nodes = (
(177.186,933,o),
(252.291,845.12,o),
(357.043,845.12,c),
(405.466,845.12,l),
(405.466,1200.546,l),
(353.09,1200.546,l),
(248.338,1200.546,o),
(177.186,1112.666,o),
(177.186,1022.833,cs)
);
},
{
closed = 1;
nodes = (
(95.164,784.58,o),
(30.929,905.659,o),
(30.929,1022.833,cs),
(30.929,1175.158,o),
(150.504,1341.154,o),
(355.066,1341.154,cs),
(749.367,1341.154,ls),
(805.696,1341.154,o),
(824.472,1306.002,o),
(824.472,1270.85,cs),
(824.472,74.704,ls),
(824.472,39.552,o),
(806.684,0.495,o),
(747.391,0.495,cs),
(687.109,0.495,o),
(674.262,44.435,o),
(674.262,74.704,cs),
(674.262,704.512,l),
(555.675,704.512,l),
(555.675,70.799,ls),
(555.675,37.6,o),
(533.935,0.495,o),
(480.571,0.495,cs),
(427.207,0.495,o),
(405.466,37.6,o),
(405.466,70.799,cs),
(405.466,704.512,l),
(378.784,703.535,o),
(354.078,703.535,o),
(329.373,705.488,cs),
(296.761,708.417,o),
(263.162,714.276,o),
(227.586,728.923,cs)
);
}
);
width = 1065;
}
);
unicode = 182;
},
{
glyphname = periodcentered;
layers = (
{
layerId = "AC87092A-E990-4874-8484-9ECA7DC3ECD4";
shapes = (
{
closed = 1;
nodes = (
(328.431,667.407,o),
(362.031,723.064,o),
(434.171,723.064,cs),
(505.323,723.064,o),
(539.911,667.407,o),
(539.911,620.537,cs),
(539.911,574.644,o),
(505.323,518.011,o),
(434.171,518.011,cs),
(354.125,518.011,o),
(328.431,567.809,o),
(328.431,620.537,cs)
);
}
);
width = 867;
}
);
unicode = 183;
},
{
glyphname = cedilla;
layers = (
{
layerId = "AC87092A-E990-4874-8484-9ECA7DC3ECD4";
shapes = (
{
closed = 1;
nodes = (
(84.305,-423.282,l),
(84.305,-304.156,l),
(114.94,-310.015,ls),
(156.445,-318.803,o),
(191.033,-326.614,o),
(230.562,-326.614,cs),
(291.832,-326.614,o),
(337.29,-308.062,o),
(337.29,-265.098,cs),
(337.29,-230.923,o),
(310.608,-211.394,o),
(267.126,-211.394,cs),
(263.173,-211.394,o),
(258.232,-212.37,o),
(251.315,-214.323,cs),
(243.409,-216.276,o),
(236.491,-219.205,o),
(230.562,-221.158,cs),
(195.974,-234.829,l),
(195.974,41.505,l),
(323.455,41.505,l),
(323.455,-78.597,l),
(330.373,-77.621,o),
(337.29,-76.645,o),
(346.184,-76.645,cs),
(466.747,-76.645,o),
(518.135,-149.878,o),
(518.135,-238.734,cs),
(518.135,-372.507,o),
(408.442,-449.646,o),
(259.221,-449.646,cs),
(210.798,-449.646,o),
(147.551,-442.811,o),
(101.105,-428.165,cs)
);
}
);
width = 519;
}
);
unicode = 184;
},
{
glyphname = guillemotright;
layers = (
{
layerId = "AC87092A-E990-4874-8484-9ECA7DC3ECD4";
shapes = (
{
closed = 1;
nodes = (
(588.31,334.439,o),
(603.134,352.991,o),
(619.934,364.709,cs),
(853.154,528.751,l),
(632.78,686.936,ls),
(615.981,698.653,o),
(601.157,717.205,o),
(601.157,741.616,cs),
(601.157,772.863,o),
(628.828,816.803,o),
(679.227,816.803,cs),
(698.991,816.803,o),
(714.803,806.062,o),
(722.709,800.203,cs),
(1006.329,596.126,ls),
(1014.234,590.267,o),
(1025.105,582.456,o),
(1034.987,572.691,cs),
(1043.881,562.927,o),
(1053.763,549.257,o),
(1053.763,532.657,cs),
(1053.763,508.246,o),
(1023.128,474.07,o),
(1008.305,463.33,cs),
(710.85,251.441,l),
(700.968,243.629,o),
(683.18,235.818,o),
(666.38,235.818,cs),
(614.992,235.818,o),
(588.31,280.734,o),
(588.31,311.004,cs)
);
},
{
closed = 1;
nodes = (
(222.668,329.557,o),
(237.491,347.133,o),
(254.291,358.85,cs),
(487.512,524.846,l),
(266.15,681.077,ls),
(249.35,692.794,o),
(233.539,711.347,o),
(233.539,735.758,cs),
(233.539,765.051,o),
(261.209,809.968,o),
(310.62,809.968,cs),
(329.396,809.968,o),
(345.208,802.156,o),
(356.078,794.344,cs),
(639.698,592.22,ls),
(647.604,586.362,o),
(659.462,577.574,o),
(668.356,566.833,cs),
(677.25,557.068,o),
(687.133,542.422,o),
(687.133,526.799,cs),
(687.133,501.411,o),
(655.51,469.188,o),
(641.674,459.424,cs),
(344.219,247.535,ls),
(334.337,240.7,o),
(318.526,231.912,o),
(300.738,231.912,cs),
(251.327,231.912,o),
(222.668,272.923,o),
(222.668,305.145,cs)
);
}
);
width = 1269;
}
);
unicode = 187;
},
{
glyphname = questiondown;
layers = (
{
layerId = "AC87092A-E990-4874-8484-9ECA7DC3ECD4";
shapes = (
{
closed = 1;
nodes = (
(410.442,1303.072,o),
(431.195,1341.154,o),
(493.453,1341.154,cs),
(555.711,1341.154,o),
(576.463,1303.072,o),
(576.463,1263.038,cs),
(576.463,1223.004,o),
(556.699,1183.946,o),
(493.453,1183.946,cs),
(430.207,1183.946,o),
(410.442,1223.004,o),
(410.442,1263.038,cs)
);
},
{
closed = 1;
nodes = (
(284.938,284.64,o),
(294.82,324.674,o),
(307.667,363.732,cs),
(320.514,401.814,o),
(337.314,439.895,o),
(355.102,477,cs),
(388.701,551.21,o),
(420.324,621.514,o),
(420.324,692.794,cs),
(420.324,980.845,ls),
(420.324,1014.045,o),
(442.065,1051.149,o),
(495.429,1051.149,cs),
(548.793,1051.149,o),
(570.534,1014.045,o),
(570.534,980.845,cs),
(570.534,681.077,ls),
(570.534,599.055,o),
(537.923,517.034,o),
(499.382,445.754,cs),
(465.783,383.261,o),
(433.171,308.075,o),
(433.171,242.653,cs),
(433.171,191.878,o),
(478.629,141.103,o),
(533.97,141.103,cs),
(596.228,141.103,o),
(629.828,181.137,o),
(632.792,237.771,c),
(635.757,270.97,o),
(650.58,309.051,o),
(709.874,309.051,cs),
(752.367,309.051,o),
(783.002,271.946,o),
(783.002,242.653,cs),
(783.002,128.409,o),
(687.144,0.495,o),
(533.97,0.495,cs),
(370.913,0.495,o),
(284.938,122.55,o),
(284.938,242.653,cs)
);
}
);
width = 1069;
}
);
unicode = 191;
},
{
glyphname = Agrave;
layers = (
{
layerId = "AC87092A-E990-4874-8484-9ECA7DC3ECD4";
shapes = (
{
closed = 1;
nodes = (
(538.887,595.15,l),
(789.896,595.15,l),
(663.404,831.449,l)
);
},
{
closed = 1;
nodes = (
(102.093,76.657,o),
(104.07,82.516,o),
(105.058,88.375,c),
(107.034,93.257,o),
(109.011,97.163,o),
(110.987,99.116,cs),
(111.975,101.068,o),
(112.964,102.045,o),
(113.952,103.998,cs),
(589.287,1005.257,ls),
(593.24,1013.068,o),
(601.145,1027.715,o),
(612.016,1039.432,cs),
(620.91,1050.173,o),
(638.698,1065.796,o),
(663.404,1065.796,cs),
(688.109,1065.796,o),
(704.909,1052.126,o),
(714.791,1040.409,c),
(725.662,1029.668,o),
(733.567,1015.997,o),
(737.52,1007.209,c),
(1217.796,103.998,ls),
(1220.761,99.116,o),
(1222.737,94.233,o),
(1224.714,89.351,cs),
(1226.69,84.469,o),
(1228.667,77.634,o),
(1228.667,70.799,cs),
(1228.667,36.623,o),
(1196.055,0.495,o),
(1149.609,0.495,cs),
(1114.033,0.495,o),
(1094.269,22.953,o),
(1085.375,40.529,cs),
(864.013,454.542,l),
(464.771,454.542,l),
(246.374,40.529,ls),
(237.48,22.953,o),
(217.715,0.495,o),
(182.139,0.495,cs),
(136.681,0.495,o),
(102.093,35.647,o),
(102.093,70.799,cs)
);
},
{
closed = 1;
nodes = (
(511.217,1245.462,ls),
(498.37,1258.156,o),
(489.476,1274.755,o),
(489.476,1293.308,cs),
(489.476,1323.578,o),
(519.123,1365.565,o),
(566.558,1365.565,cs),
(591.263,1365.565,o),
(609.051,1351.895,o),
(618.934,1342.13,cs),
(762.226,1202.498,ls),
(776.061,1189.805,o),
(784.955,1173.205,o),
(784.955,1154.653,cs),
(784.955,1126.336,o),
(751.355,1082.396,o),
(707.874,1082.396,cs),
(685.144,1082.396,o),
(665.38,1094.113,o),
(654.51,1104.854,cs)
);
}
);
width = 1368;
}
);
unicode = 192;
},
{
glyphname = Aacute;
layers = (
{
layerId = "AC87092A-E990-4874-8484-9ECA7DC3ECD4";
shapes = (
{
closed = 1;
nodes = (
(538.887,595.15,l),
(789.896,595.15,l),
(663.404,831.449,l)
);
},
{
closed = 1;
nodes = (
(102.093,76.657,o),
(104.07,82.516,o),
(105.058,88.375,c),
(107.034,93.257,o),
(109.011,97.163,o),
(110.987,99.116,cs),
(111.975,101.068,o),
(112.964,102.045,o),
(113.952,103.998,cs),
(589.287,1005.257,ls),
(593.24,1013.068,o),
(601.145,1027.715,o),
(612.016,1039.432,cs),
(620.91,1050.173,o),
(638.698,1065.796,o),
(663.404,1065.796,cs),
(688.109,1065.796,o),
(704.909,1052.126,o),
(714.791,1040.409,c),
(725.662,1029.668,o),
(733.567,1015.997,o),
(737.52,1007.209,c),
(1217.796,103.998,ls),
(1220.761,99.116,o),
(1222.737,94.233,o),
(1224.714,89.351,cs),
(1226.69,84.469,o),
(1228.667,77.634,o),
(1228.667,70.799,cs),
(1228.667,36.623,o),
(1196.055,0.495,o),
(1149.609,0.495,cs),
(1114.033,0.495,o),
(1094.269,22.953,o),
(1085.375,40.529,cs),
(864.013,454.542,l),
(464.771,454.542,l),
(246.374,40.529,ls),
(237.48,22.953,o),
(217.715,0.495,o),
(182.139,0.495,cs),
(136.681,0.495,o),
(102.093,35.647,o),
(102.093,70.799,cs)
);
},
{
closed = 1;
nodes = (
(608.063,1185.899,o),
(617.945,1199.569,o),
(630.792,1212.263,cs),
(774.084,1352.871,ls),
(784.955,1363.612,o),
(804.719,1375.329,o),
(827.448,1375.329,cs),
(873.895,1375.329,o),
(904.53,1333.342,o),
(904.53,1303.072,cs),
(904.53,1284.52,o),
(895.636,1267.92,o),
(881.801,1255.227,cs),
(737.52,1115.595,ls),
(728.626,1106.807,o),
(711.826,1092.16,o),
(686.133,1092.16,cs),
(641.663,1092.16,o),
(608.063,1135.124,o),
(608.063,1164.417,cs)
);
}
);
width = 1368;
}
);
unicode = 193;
},
{
glyphname = Acircumflex;
layers = (
{
layerId = "AC87092A-E990-4874-8484-9ECA7DC3ECD4";
shapes = (
{
closed = 1;
nodes = (
(538.887,595.15,l),
(789.896,595.15,l),
(663.404,831.449,l)
);
},
{
closed = 1;
nodes = (
(102.093,76.657,o),
(104.07,82.516,o),
(105.058,88.375,c),
(107.034,93.257,o),
(109.011,97.163,o),
(110.987,99.116,cs),
(111.975,101.068,o),
(112.964,102.045,o),
(113.952,103.998,cs),
(589.287,1005.257,ls),
(593.24,1013.068,o),
(601.145,1027.715,o),
(612.016,1039.432,cs),
(620.91,1050.173,o),
(638.698,1065.796,o),
(663.404,1065.796,cs),
(688.109,1065.796,o),
(704.909,1052.126,o),
(714.791,1040.409,c),
(725.662,1029.668,o),
(733.567,1015.997,o),
(737.52,1007.209,c),
(1217.796,103.998,ls),
(1220.761,99.116,o),
(1222.737,94.233,o),
(1224.714,89.351,cs),
(1226.69,84.469,o),
(1228.667,77.634,o),
(1228.667,70.799,cs),
(1228.667,36.623,o),
(1196.055,0.495,o),
(1149.609,0.495,cs),
(1114.033,0.495,o),
(1094.269,22.953,o),
(1085.375,40.529,cs),
(864.013,454.542,l),
(464.771,454.542,l),
(246.374,40.529,ls),
(237.48,22.953,o),
(217.715,0.495,o),
(182.139,0.495,cs),
(136.681,0.495,o),
(102.093,35.647,o),
(102.093,70.799,cs)
);
},
{
closed = 1;
nodes = (
(357.055,1084.349,o),
(367.925,1100.948,o),
(379.784,1112.666,cs),
(610.04,1340.177,l),
(622.886,1351.895,o),
(639.686,1363.612,o),
(665.38,1363.612,cs),
(686.133,1363.612,o),
(710.838,1347.989,o),
(718.744,1340.177,cs),
(949,1112.666,ls),
(960.858,1100.948,o),
(971.729,1084.349,o),
(971.729,1064.82,cs),
(971.729,1036.503,o),
(938.129,992.563,o),
(894.648,992.563,cs),
(870.93,992.563,o),
(853.142,1004.28,o),
(841.284,1015.021,c),
(665.38,1189.805,l),
(488.488,1015.021,ls),
(477.618,1004.28,o),
(457.853,992.563,o),
(435.124,992.563,cs),
(389.666,992.563,o),
(357.055,1034.55,o),
(357.055,1064.82,cs)
);
}
);
width = 1368;
}
);
unicode = 194;
},
{
glyphname = Atilde;
layers = (
{
layerId = "AC87092A-E990-4874-8484-9ECA7DC3ECD4";
shapes = (
{
closed = 1;
nodes = (
(538.887,595.15,l),
(789.896,595.15,l),
(663.404,831.449,l)
);
},
{
closed = 1;
nodes = (
(102.093,76.657,o),
(104.07,82.516,o),
(105.058,88.375,c),
(107.034,93.257,o),
(109.011,97.163,o),
(110.987,99.116,cs),
(111.975,101.068,o),
(112.964,102.045,o),
(113.952,103.998,cs),
(589.287,1005.257,ls),
(593.24,1013.068,o),
(601.145,1027.715,o),
(612.016,1039.432,cs),
(620.91,1050.173,o),
(638.698,1065.796,o),
(663.404,1065.796,cs),
(688.109,1065.796,o),
(704.909,1052.126,o),
(714.791,1040.409,c),
(725.662,1029.668,o),
(733.567,1015.997,o),
(737.52,1007.209,c),
(1217.796,103.998,ls),
(1220.761,99.116,o),
(1222.737,94.233,o),
(1224.714,89.351,cs),
(1226.69,84.469,o),
(1228.667,77.634,o),
(1228.667,70.799,cs),
(1228.667,36.623,o),
(1196.055,0.495,o),
(1149.609,0.495,cs),
(1114.033,0.495,o),
(1094.269,22.953,o),
(1085.375,40.529,cs),
(864.013,454.542,l),
(464.771,454.542,l),
(246.374,40.529,ls),
(237.48,22.953,o),
(217.715,0.495,o),
(182.139,0.495,cs),
(136.681,0.495,o),
(102.093,35.647,o),
(102.093,70.799,cs)
);
},
{
closed = 1;
nodes = (
(368.913,1130.242,o),
(337.29,1172.229,o),
(337.29,1200.546,cs),
(337.29,1218.122,o),
(348.161,1240.58,o),
(362.984,1253.274,cs),
(367.925,1257.179,o),
(373.854,1261.085,o),
(378.795,1264.015,cs),
(382.748,1266.944,o),
(387.689,1269.873,o),
(391.642,1272.803,cs),
(442.042,1303.072,o),
(504.3,1329.436,o),
(572.487,1329.436,cs),
(614.981,1329.436,o),
(651.545,1314.79,o),
(682.18,1303.072,cs),
(696.015,1297.214,o),
(709.85,1290.379,o),
(723.685,1286.473,cs),
(736.532,1282.567,o),
(747.402,1279.638,o),
(758.273,1279.638,cs),
(798.79,1279.638,o),
(832.39,1292.331,o),
(863.024,1316.743,cs),
(868.954,1320.648,o),
(875.871,1326.507,o),
(884.765,1330.413,cs),
(893.659,1334.319,o),
(904.53,1338.224,o),
(917.377,1338.224,cs),
(961.847,1338.224,o),
(992.482,1294.284,o),
(992.482,1266.944,cs),
(992.482,1251.321,o),
(982.599,1227.886,o),
(967.776,1216.169,cs),
(962.835,1211.286,o),
(956.906,1208.357,o),
(951.964,1204.451,c),
(947.023,1202.498,o),
(942.082,1199.569,o),
(938.129,1196.64,cs),
(888.718,1167.346,o),
(825.472,1140.006,o),
(758.273,1140.006,cs),
(741.473,1140.006,o),
(724.673,1143.912,o),
(708.862,1148.794,cs),
(694.038,1153.676,o),
(678.227,1159.535,o),
(662.415,1166.37,c),
(630.792,1178.087,o),
(601.145,1188.828,o),
(572.487,1188.828,cs),
(535.923,1188.828,o),
(493.429,1173.205,o),
(464.771,1151.723,cs),
(461.806,1149.77,o),
(458.841,1147.818,o),
(456.865,1145.865,cs),
(452.912,1142.935,o),
(448.959,1140.006,o),
(445.006,1138.053,cs),
(437.101,1134.147,o),
(426.23,1130.242,o),
(412.395,1130.242,cs)
);
}
);
width = 1368;
}
);
unicode = 195;
},
{
glyphname = Adieresis;
layers = (
{
layerId = "AC87092A-E990-4874-8484-9ECA7DC3ECD4";
shapes = (
{
closed = 1;
nodes = (
(540.864,595.15,l),
(789.896,595.15,l),
(663.404,830.473,l)
);
},
{
closed = 1;
nodes = (
(102.093,76.657,o),
(104.07,82.516,o),
(105.058,88.375,c),
(107.034,93.257,o),
(109.011,97.163,o),
(110.987,99.116,cs),
(111.975,101.068,o),
(112.964,102.045,o),
(113.952,103.998,cs),
(589.287,1005.257,ls),
(593.24,1013.068,o),
(601.145,1027.715,o),
(612.016,1039.432,cs),
(620.91,1050.173,o),
(638.698,1065.796,o),
(663.404,1065.796,cs),
(688.109,1065.796,o),
(704.909,1052.126,o),
(714.791,1040.409,c),
(725.662,1029.668,o),
(733.567,1015.997,o),
(737.52,1007.209,c),
(1217.796,103.998,ls),
(1220.761,99.116,o),
(1222.737,94.233,o),
(1224.714,89.351,cs),
(1226.69,84.469,o),
(1228.667,77.634,o),
(1228.667,70.799,cs),
(1228.667,36.623,o),
(1196.055,0.495,o),
(1149.609,0.495,cs),
(1114.033,0.495,o),
(1094.269,22.953,o),
(1085.375,40.529,cs),
(864.013,454.542,l),
(464.771,454.542,l),
(246.374,40.529,ls),
(237.48,22.953,o),
(217.715,0.495,o),
(182.139,0.495,cs),
(136.681,0.495,o),
(102.093,35.647,o),
(102.093,70.799,cs)
);
},
{
closed = 1;
nodes = (
(735.544,1209.334,o),
(758.273,1247.415,o),
(821.519,1247.415,cs),
(883.777,1247.415,o),
(908.483,1211.286,o),
(908.483,1167.346,cs),
(908.483,1125.359,o),
(886.742,1084.349,o),
(821.519,1084.349,cs),
(755.308,1084.349,o),
(735.544,1126.336,o),
(735.544,1167.346,cs)
);
},
{
closed = 1;
nodes = (
(422.277,1208.357,o),
(444.018,1247.415,o),
(507.264,1247.415,cs),
(569.522,1247.415,o),
(595.216,1212.263,o),
(595.216,1167.346,cs),
(595.216,1124.383,o),
(572.487,1084.349,o),
(507.264,1084.349,cs),
(441.053,1084.349,o),
(422.277,1127.312,o),
(422.277,1167.346,cs)
);
}
);
width = 1368;
}
);
unicode = 196;
},
{
glyphname = Aring;
layers = (
{
layerId = "AC87092A-E990-4874-8484-9ECA7DC3ECD4";
shapes = (
{
closed = 1;
nodes = (
(627.828,1204.451,o),
(638.698,1193.71,o),
(665.38,1193.71,cs),
(692.062,1193.71,o),
(701.944,1204.451,o),
(701.944,1234.721,cs),
(701.944,1264.015,o),
(692.062,1274.755,o),
(665.38,1274.755,cs),
(638.698,1274.755,o),
(627.828,1264.015,o),
(627.828,1234.721,cs)
);
},
{
closed = 1;
nodes = (
(517.147,1300.143,o),
(573.475,1377.282,o),
(665.38,1377.282,cs),
(758.273,1377.282,o),
(813.613,1300.143,o),
(813.613,1234.721,cs),
(813.613,1169.299,o),
(757.285,1092.16,o),
(665.38,1092.16,cs),
(574.463,1092.16,o),
(517.147,1170.276,o),
(517.147,1234.721,cs)
);
},
{
closed = 1;
nodes = (
(538.887,595.15,l),
(789.896,595.15,l),
(663.404,831.449,l)
);
},
{
closed = 1;
nodes = (
(102.093,76.657,o),
(104.07,82.516,o),
(105.058,88.375,c),
(107.034,93.257,o),
(109.011,97.163,o),
(110.987,99.116,cs),
(111.975,101.068,o),
(112.964,102.045,o),
(113.952,103.998,cs),
(589.287,1005.257,ls),
(593.24,1013.068,o),
(601.145,1027.715,o),
(612.016,1039.432,cs),
(620.91,1050.173,o),
(638.698,1065.796,o),
(663.404,1065.796,cs),
(688.109,1065.796,o),
(704.909,1052.126,o),
(714.791,1040.409,c),
(725.662,1029.668,o),
(733.567,1015.997,o),
(737.52,1007.209,c),
(1217.796,103.998,ls),
(1220.761,99.116,o),
(1222.737,94.233,o),
(1224.714,89.351,cs),
(1226.69,84.469,o),
(1228.667,77.634,o),
(1228.667,70.799,cs),
(1228.667,36.623,o),
(1196.055,0.495,o),
(1149.609,0.495,cs),
(1114.033,0.495,o),
(1094.269,22.953,o),
(1085.375,40.529,cs),
(864.013,454.542,l),
(464.771,454.542,l),
(246.374,40.529,ls),
(237.48,22.953,o),
(217.715,0.495,o),
(182.139,0.495,cs),
(136.681,0.495,o),
(102.093,35.647,o),
(102.093,70.799,cs)
);
}
);
width = 1368;
}
);
unicode = 197;
},
{
glyphname = AE;
layers = (
{
layerId = "AC87092A-E990-4874-8484-9ECA7DC3ECD4";
shapes = (
{
closed = 1;
nodes = (
(584.346,759.192,l),
(669.333,759.192,l),
(669.333,939.835,l)
);
},
{
closed = 1;
nodes = (
(102.093,78.61,o),
(104.07,85.445,o),
(106.046,90.328,cs),
(108.022,95.21,o),
(109.999,99.116,o),
(110.987,103.021,c),
(671.309,1288.426,l),
(672.298,1292.331,o),
(672.298,1297.214,o),
(673.286,1299.167,cs),
(683.168,1331.389,o),
(714.791,1341.154,o),
(744.438,1341.154,cs),
(1511.298,1341.154,ls),
(1564.662,1341.154,o),
(1586.403,1305.025,o),
(1586.403,1270.85,cs),
(1586.403,1236.674,o),
(1564.662,1200.546,o),
(1511.298,1200.546,c),
(819.543,1200.546,l),
(819.543,759.192,l),
(1223.726,759.192,l),
(1276.101,759.192,o),
(1299.819,724.04,o),
(1299.819,688.888,cs),
(1299.819,653.736,o),
(1276.101,618.584,o),
(1223.726,618.584,c),
(819.543,618.584,l),
(819.543,141.103,l),
(1511.298,141.103,l),
(1564.662,141.103,o),
(1586.403,104.974,o),
(1586.403,70.799,cs),
(1586.403,36.623,o),
(1564.662,0.495,o),
(1511.298,0.495,cs),
(744.438,0.495,ls),
(688.109,0.495,o),
(669.333,35.647,o),
(669.333,70.799,cs),
(669.333,618.584,l),
(518.135,618.584,l),
(247.362,45.411,ls),
(238.468,26.859,o),
(218.703,2.448,o),
(182.139,2.448,cs),
(134.704,2.448,o),
(102.093,36.623,o),
(102.093,72.752,cs)
);
}
);
width = 1876;
}
);
unicode = 198;
},
{
glyphname = Ccedilla;
layers = (
{
layerId = "AC87092A-E990-4874-8484-9ECA7DC3ECD4";
shapes = (
{
closed = 1;
nodes = (
(102.093,835.355,o),
(163.363,1002.327,o),
(302.702,1140.982,cs),
(433.148,1269.873,o),
(599.169,1341.154,o),
(800.766,1341.154,cs),
(1048.81,1341.154,o),
(1225.702,1241.556,o),
(1358.124,1070.678,c),
(1368.994,1055.055,o),
(1375.912,1044.314,o),
(1375.912,1022.833,cs),
(1375.912,987.681,o),
(1357.136,952.529,o),
(1300.807,952.529,cs),
(1279.066,952.529,o),
(1258.313,962.293,o),
(1246.455,976.94,cs),
(1238.549,985.728,o),
(1231.631,996.469,o),
(1223.726,1005.257,cs),
(1209.891,1022.833,o),
(1195.067,1039.432,o),
(1178.267,1055.055,cs),
(1078.457,1151.723,o),
(951.964,1198.593,o),
(800.766,1198.593,cs),
(643.639,1198.593,o),
(516.158,1142.935,o),
(413.383,1041.385,cs),
(301.714,931.047,o),
(253.291,799.227,o),
(253.291,652.76,cs),
(253.291,511.175,o),
(297.761,384.238,o),
(412.395,283.664,cs),
(519.123,188.949,o),
(647.592,141.103,o),
(800.766,141.103,cs),
(946.035,141.103,o),
(1067.587,187.972,o),
(1166.409,279.758,cs),
(1183.209,294.405,o),
(1199.02,311.004,o),
(1213.843,327.604,cs),
(1221.749,337.368,o),
(1228.667,347.133,o),
(1237.561,355.921,c),
(1245.467,365.685,o),
(1263.255,384.238,o),
(1292.901,384.238,cs),
(1336.383,384.238,o),
(1371.959,344.203,o),
(1371.959,312.957,cs),
(1371.959,294.405,o),
(1362.077,278.781,o),
(1354.171,268.041,cs),
(1334.407,241.677,o),
(1311.677,217.265,o),
(1288.948,194.807,cs),
(1179.256,86.422,o),
(1041.893,20.024,o),
(874.883,3.424,c),
(870.93,-16.105,l),
(957.894,-35.634,o),
(993.47,-120.585,o),
(993.47,-183.077,cs),
(993.47,-262.169,o),
(930.224,-348.096,o),
(821.519,-348.096,cs),
(770.132,-348.096,o),
(727.638,-324.662,o),
(696.015,-297.321,c),
(682.18,-284.627,l),
(758.273,-190.889,l),
(779.026,-211.394,l),
(792.861,-226.041,o),
(804.719,-230.923,o),
(827.448,-230.923,cs),
(850.178,-230.923,o),
(872.907,-205.535,o),
(872.907,-177.218,cs),
(872.907,-143.043,o),
(858.083,-134.255,o),
(840.295,-129.373,cs),
(829.425,-126.443,o),
(814.602,-125.467,o),
(797.802,-125.467,c),
(780.014,-124.49,o),
(762.226,-125.467,o),
(744.438,-125.467,cs),
(715.779,-125.467,l),
(742.461,1.471,l),
(661.427,8.306,o),
(582.369,25.882,o),
(508.253,56.152,cs),
(235.503,168.443,o),
(102.093,406.696,o),
(102.093,654.713,cs)
);
}
);
width = 1470;
}
);
unicode = 199;
},
{
glyphname = Egrave;
layers = (
{
layerId = "AC87092A-E990-4874-8484-9ECA7DC3ECD4";
shapes = (
{
closed = 1;
nodes = (
(102.093,1030.644,ls),
(102.093,1067.749,o),
(122.846,1100.948,o),
(178.186,1100.948,c),
(516.158,1100.948,l),
(514.182,1102.901,o),
(513.194,1103.878,o),
(511.217,1104.854,c),
(367.925,1245.462,ls),
(355.078,1258.156,o),
(345.196,1271.826,o),
(345.196,1293.308,cs),
(345.196,1322.601,o),
(376.819,1365.565,o),
(422.277,1365.565,cs),
(447.971,1365.565,o),
(464.771,1351.895,o),
(474.653,1342.13,cs),
(618.934,1202.498,ls),
(632.769,1189.805,o),
(641.663,1173.205,o),
(641.663,1154.653,cs),
(641.663,1138.053,o),
(629.804,1116.571,o),
(612.016,1100.948,c),
(790.884,1100.948,l),
(844.248,1100.948,o),
(865.989,1064.82,o),
(865.989,1030.644,cs),
(865.989,996.469,o),
(844.248,960.34,o),
(790.884,960.34,c),
(253.291,960.34,l),
(253.291,635.184,l),
(562.605,635.184,l),
(614.981,635.184,o),
(637.71,598.079,o),
(637.71,564.88,cs),
(637.71,531.681,o),
(614.981,494.576,o),
(562.605,494.576,c),
(253.291,494.576,l),
(253.291,141.103,l),
(790.884,141.103,l),
(844.248,141.103,o),
(865.989,104.974,o),
(865.989,70.799,cs),
(865.989,36.623,o),
(844.248,0.495,o),
(790.884,0.495,cs),
(178.186,0.495,ls),
(122.846,0.495,o),
(102.093,33.694,o),
(102.093,70.799,cs)
);
}
);
width = 1066;
}
);
unicode = 200;
},
{
glyphname = Eacute;
layers = (
{
layerId = "AC87092A-E990-4874-8484-9ECA7DC3ECD4";
shapes = (
{
closed = 1;
nodes = (
(102.093,1030.644,ls),
(102.093,1067.749,o),
(122.846,1100.948,o),
(178.186,1100.948,c),
(387.689,1100.948,l),
(361.996,1115.595,o),
(345.196,1143.912,o),
(345.196,1164.417,cs),
(345.196,1185.899,o),
(355.078,1199.569,o),
(367.925,1212.263,cs),
(511.217,1352.871,ls),
(523.076,1363.612,o),
(540.864,1375.329,o),
(564.581,1375.329,cs),
(612.016,1375.329,o),
(641.663,1333.342,o),
(641.663,1303.072,cs),
(641.663,1284.52,o),
(632.769,1267.92,o),
(618.934,1255.227,cs),
(474.653,1115.595,l),
(470.7,1110.713,o),
(464.771,1105.83,o),
(456.865,1100.948,c),
(790.884,1100.948,l),
(844.248,1100.948,o),
(865.989,1064.82,o),
(865.989,1030.644,cs),
(865.989,996.469,o),
(844.248,960.34,o),
(790.884,960.34,c),
(253.291,960.34,l),
(253.291,635.184,l),
(562.605,635.184,l),
(614.981,635.184,o),
(637.71,598.079,o),
(637.71,564.88,cs),
(637.71,531.681,o),
(614.981,494.576,o),
(562.605,494.576,c),
(253.291,494.576,l),
(253.291,141.103,l),
(790.884,141.103,l),
(844.248,141.103,o),
(865.989,104.974,o),
(865.989,70.799,cs),
(865.989,36.623,o),
(844.248,0.495,o),
(790.884,0.495,cs),
(178.186,0.495,ls),
(122.846,0.495,o),
(102.093,33.694,o),
(102.093,70.799,cs)
);
}
);
width = 1066;
}
);
unicode = 201;
},
{
glyphname = Ecircumflex;
layers = (
{
layerId = "AC87092A-E990-4874-8484-9ECA7DC3ECD4";
shapes = (
{
closed = 1;
nodes = (
(599.169,1100.948,l),
(593.24,1104.854,o),
(588.299,1109.736,o),
(584.346,1113.642,cs),
(493.429,1204.451,l),
(402.513,1113.642,ls),
(398.56,1109.736,o),
(393.619,1104.854,o),
(387.689,1100.948,c)
);
},
{
closed = 1;
nodes = (
(102.093,1030.644,ls),
(102.093,1067.749,o),
(122.846,1100.948,o),
(178.186,1100.948,c),
(312.585,1100.948,l),
(287.879,1115.595,o),
(272.067,1141.959,o),
(272.067,1162.464,cs),
(272.067,1182.97,o),
(282.938,1198.593,o),
(294.797,1210.31,cs),
(440.065,1354.824,l),
(440.065,1354.824,o),
(445.006,1358.73,o),
(452.912,1361.659,cs),
(456.865,1363.612,o),
(460.818,1365.565,o),
(465.759,1367.518,cs),
(474.653,1370.447,o),
(483.547,1374.353,o),
(484.535,1375.329,c),
(494.417,1379.235,l),
(504.3,1376.306,ls),
(509.241,1374.353,o),
(517.147,1372.4,o),
(524.064,1369.471,cs),
(530.982,1366.541,o),
(540.864,1361.659,o),
(548.77,1354.824,c),
(692.062,1210.31,ls),
(703.921,1197.616,o),
(714.791,1182.97,o),
(714.791,1162.464,cs),
(714.791,1141.959,o),
(698.98,1115.595,o),
(674.274,1100.948,c),
(790.884,1100.948,l),
(844.248,1100.948,o),
(865.989,1064.82,o),
(865.989,1030.644,cs),
(865.989,996.469,o),
(844.248,960.34,o),
(790.884,960.34,c),
(253.291,960.34,l),
(253.291,635.184,l),
(562.605,635.184,l),
(614.981,635.184,o),
(637.71,598.079,o),
(637.71,564.88,cs),
(637.71,531.681,o),
(614.981,494.576,o),
(562.605,494.576,c),
(253.291,494.576,l),
(253.291,141.103,l),
(790.884,141.103,l),
(844.248,141.103,o),
(865.989,104.974,o),
(865.989,70.799,cs),
(865.989,36.623,o),
(844.248,0.495,o),
(790.884,0.495,cs),
(178.186,0.495,ls),
(122.846,0.495,o),
(102.093,33.694,o),
(102.093,70.799,cs)
);
}
);
width = 1066;
}
);
unicode = 202;
},
{
glyphname = Edieresis;
layers = (
{
layerId = "AC87092A-E990-4874-8484-9ECA7DC3ECD4";
shapes = (
{
closed = 1;
nodes = (
(563.593,1265.967,o),
(589.287,1301.119,o),
(651.545,1301.119,cs),
(714.791,1301.119,o),
(736.532,1262.062,o),
(736.532,1221.051,cs),
(736.532,1181.017,o),
(717.756,1138.053,o),
(651.545,1138.053,cs),
(586.322,1138.053,o),
(563.593,1178.087,o),
(563.593,1221.051,cs)
);
},
{
closed = 1;
nodes = (
(250.327,1264.991,o),
(275.032,1301.119,o),
(337.29,1301.119,cs),
(400.536,1301.119,o),
(423.265,1263.038,o),
(423.265,1221.051,cs),
(423.265,1180.04,o),
(403.501,1138.053,o),
(337.29,1138.053,cs),
(272.067,1138.053,o),
(250.327,1179.064,o),
(250.327,1221.051,cs)
);
},
{
closed = 1;
nodes = (
(102.093,1030.644,ls),
(102.093,1067.749,o),
(122.846,1100.948,o),
(178.186,1100.948,cs),
(790.884,1100.948,ls),
(844.248,1100.948,o),
(865.989,1064.82,o),
(865.989,1030.644,cs),
(865.989,996.469,o),
(844.248,960.34,o),
(790.884,960.34,c),
(253.291,960.34,l),
(253.291,635.184,l),
(562.605,635.184,l),
(614.981,635.184,o),
(637.71,598.079,o),
(637.71,564.88,cs),
(637.71,531.681,o),
(614.981,494.576,o),
(562.605,494.576,c),
(253.291,494.576,l),
(253.291,141.103,l),
(790.884,141.103,l),
(844.248,141.103,o),
(865.989,104.974,o),
(865.989,70.799,cs),
(865.989,36.623,o),
(844.248,0.495,o),
(790.884,0.495,cs),
(178.186,0.495,ls),
(122.846,0.495,o),
(102.093,33.694,o),
(102.093,70.799,cs)
);
}
);
width = 1066;
}
);
unicode = 203;
},
{
glyphname = Igrave;
layers = (
{
layerId = "AC87092A-E990-4874-8484-9ECA7DC3ECD4";
shapes = (
{
closed = 1;
nodes = (
(112.964,104.974,o),
(134.704,141.103,o),
(188.068,141.103,c),
(248.35,141.103,l),
(248.35,982.798,l),
(178.186,982.798,l),
(125.81,982.798,o),
(102.093,1017.95,o),
(102.093,1053.102,cs),
(102.093,1088.254,o),
(125.81,1123.406,o),
(178.186,1123.406,c),
(322.467,1123.406,l),
(197.951,1245.462,ls),
(185.104,1258.156,o),
(175.222,1271.826,o),
(175.222,1293.308,cs),
(175.222,1323.578,o),
(204.868,1365.565,o),
(252.303,1365.565,cs),
(277.997,1365.565,o),
(294.797,1351.895,o),
(304.679,1342.13,cs),
(448.959,1202.498,ls),
(462.794,1189.805,o),
(471.688,1173.205,o),
(471.688,1154.653,cs),
(471.688,1144.888,o),
(467.735,1134.147,o),
(460.818,1123.406,c),
(505.288,1117.548,o),
(524.064,1084.349,o),
(524.064,1053.102,cs),
(524.064,1018.927,o),
(502.323,982.798,o),
(448.959,982.798,c),
(398.56,982.798,l),
(398.56,141.103,l),
(458.841,141.103,l),
(512.205,141.103,o),
(533.946,104.974,o),
(533.946,70.799,cs),
(533.946,36.623,o),
(512.205,0.495,o),
(458.841,0.495,cs),
(188.068,0.495,ls),
(134.704,0.495,o),
(112.964,36.623,o),
(112.964,70.799,cs)
);
}
);
width = 763;
}
);
unicode = 204;
},
{
glyphname = Iacute;
layers = (
{
layerId = "AC87092A-E990-4874-8484-9ECA7DC3ECD4";
shapes = (
{
closed = 1;
nodes = (
(112.964,104.974,o),
(134.704,141.103,o),
(188.068,141.103,c),
(248.35,141.103,l),
(248.35,982.798,l),
(178.186,982.798,l),
(125.81,982.798,o),
(102.093,1017.95,o),
(102.093,1053.102,cs),
(102.093,1088.254,o),
(125.81,1123.406,o),
(178.186,1123.406,c),
(192.021,1123.406,l),
(182.139,1137.077,o),
(175.222,1151.723,o),
(175.222,1164.417,cs),
(175.222,1185.899,o),
(185.104,1199.569,o),
(197.951,1212.263,cs),
(341.243,1352.871,ls),
(353.102,1363.612,o),
(370.89,1375.329,o),
(394.607,1375.329,cs),
(442.042,1375.329,o),
(471.688,1333.342,o),
(471.688,1303.072,cs),
(471.688,1284.52,o),
(462.794,1267.92,o),
(448.959,1255.227,cs),
(313.573,1123.406,l),
(448.959,1123.406,l),
(502.323,1123.406,o),
(524.064,1087.278,o),
(524.064,1053.102,cs),
(524.064,1018.927,o),
(502.323,982.798,o),
(448.959,982.798,c),
(398.56,982.798,l),
(398.56,141.103,l),
(458.841,141.103,l),
(512.205,141.103,o),
(533.946,104.974,o),
(533.946,70.799,cs),
(533.946,36.623,o),
(512.205,0.495,o),
(458.841,0.495,cs),
(188.068,0.495,ls),
(134.704,0.495,o),
(112.964,36.623,o),
(112.964,70.799,cs)
);
}
);
width = 763;
}
);
unicode = 205;
},
{
glyphname = Icircumflex;
layers = (
{
layerId = "AC87092A-E990-4874-8484-9ECA7DC3ECD4";
shapes = (
{
closed = 1;
nodes = (
(242.421,1123.406,l),
(404.489,1123.406,l),
(323.455,1204.451,l)
);
},
{
closed = 1;
nodes = (
(112.964,104.974,o),
(134.704,141.103,o),
(188.068,141.103,c),
(248.35,141.103,l),
(248.35,982.798,l),
(178.186,982.798,l),
(125.81,982.798,o),
(102.093,1017.95,o),
(102.093,1053.102,cs),
(102.093,1074.584,o),
(110.987,1097.042,o),
(129.763,1109.736,c),
(112.964,1125.359,o),
(102.093,1145.865,o),
(102.093,1162.464,cs),
(102.093,1182.97,o),
(112.964,1198.593,o),
(124.822,1210.31,cs),
(270.091,1354.824,l),
(270.091,1354.824,o),
(275.032,1358.73,o),
(282.938,1361.659,cs),
(286.891,1363.612,o),
(290.844,1365.565,o),
(295.785,1367.518,cs),
(304.679,1370.447,o),
(313.573,1374.353,o),
(314.561,1375.329,c),
(325.431,1380.211,l),
(335.314,1375.329,ls),
(340.255,1373.376,o),
(347.172,1371.423,o),
(354.09,1368.494,cs),
(360.019,1366.541,o),
(370.89,1361.659,o),
(378.795,1354.824,c),
(522.088,1210.31,ls),
(533.946,1197.616,o),
(544.817,1182.97,o),
(544.817,1162.464,cs),
(544.817,1142.935,o),
(529.005,1116.571,o),
(505.288,1101.925,c),
(518.135,1088.254,o),
(524.064,1070.678,o),
(524.064,1053.102,cs),
(524.064,1018.927,o),
(502.323,982.798,o),
(448.959,982.798,c),
(398.56,982.798,l),
(398.56,141.103,l),
(458.841,141.103,l),
(512.205,141.103,o),
(533.946,104.974,o),
(533.946,70.799,cs),
(533.946,36.623,o),
(512.205,0.495,o),
(458.841,0.495,cs),
(188.068,0.495,ls),
(134.704,0.495,o),
(112.964,36.623,o),
(112.964,70.799,cs)
);
}
);
width = 763;
}
);
unicode = 206;
},
{
glyphname = Idieresis;
layers = (
{
layerId = "AC87092A-E990-4874-8484-9ECA7DC3ECD4";
shapes = (
{
closed = 1;
nodes = (
(416.348,1262.062,o),
(438.089,1301.119,o),
(501.335,1301.119,cs),
(563.593,1301.119,o),
(589.287,1265.967,o),
(589.287,1221.051,cs),
(589.287,1178.087,o),
(566.558,1138.053,o),
(501.335,1138.053,cs),
(435.124,1138.053,o),
(416.348,1181.017,o),
(416.348,1221.051,cs)
);
},
{
closed = 1;
nodes = (
(102.093,1263.038,o),
(124.822,1301.119,o),
(188.068,1301.119,cs),
(250.327,1301.119,o),
(275.032,1264.991,o),
(275.032,1221.051,cs),
(275.032,1179.064,o),
(253.291,1138.053,o),
(188.068,1138.053,cs),
(121.858,1138.053,o),
(102.093,1180.04,o),
(102.093,1221.051,cs)
);
},
{
closed = 1;
nodes = (
(134.704,103.998,o),
(157.434,141.103,o),
(209.809,141.103,c),
(270.091,141.103,l),
(270.091,982.798,l),
(199.927,982.798,l),
(146.563,982.798,o),
(124.822,1018.927,o),
(124.822,1053.102,cs),
(124.822,1087.278,o),
(146.563,1123.406,o),
(199.927,1123.406,cs),
(471.688,1123.406,ls),
(524.064,1123.406,o),
(546.793,1086.302,o),
(546.793,1053.102,cs),
(546.793,1019.903,o),
(524.064,982.798,o),
(471.688,982.798,c),
(421.289,982.798,l),
(421.289,141.103,l),
(481.571,141.103,l),
(534.935,141.103,o),
(556.675,104.974,o),
(556.675,70.799,cs),
(556.675,36.623,o),
(534.935,0.495,o),
(481.571,0.495,cs),
(209.809,0.495,ls),
(157.434,0.495,o),
(134.704,37.6,o),
(134.704,70.799,cs)
);
}
);
width = 762;
}
);
unicode = 207;
},
{
glyphname = Ntilde;
layers = (
{
layerId = "AC87092A-E990-4874-8484-9ECA7DC3ECD4";
shapes = (
{
closed = 1;
nodes = (
(359.043,1130.242,o),
(328.408,1173.205,o),
(328.408,1201.522,cs),
(328.408,1216.169,o),
(337.302,1240.58,o),
(352.125,1253.274,cs),
(357.066,1258.156,o),
(362.996,1261.085,o),
(367.937,1264.991,cs),
(372.878,1267.92,o),
(377.819,1269.873,o),
(381.772,1272.803,cs),
(431.183,1302.096,o),
(494.429,1329.436,o),
(561.628,1329.436,cs),
(603.134,1329.436,o),
(639.698,1314.79,o),
(670.333,1303.072,cs),
(685.156,1297.214,o),
(698.991,1290.379,o),
(713.815,1286.473,cs),
(726.662,1282.567,o),
(737.532,1279.638,o),
(747.414,1279.638,cs),
(784.967,1279.638,o),
(825.484,1294.284,o),
(855.13,1316.743,cs),
(858.095,1318.695,o),
(861.06,1320.648,o),
(864.024,1322.601,cs),
(866.989,1325.531,o),
(870.942,1327.483,o),
(874.895,1330.413,c),
(882.801,1334.319,o),
(893.671,1338.224,o),
(907.506,1338.224,cs),
(950.988,1338.224,o),
(982.611,1296.237,o),
(982.611,1267.92,cs),
(982.611,1250.344,o),
(971.741,1227.886,o),
(956.917,1216.169,cs),
(950.988,1211.286,o),
(944.07,1206.404,o),
(938.141,1202.498,cs),
(932.212,1199.569,o),
(926.282,1195.663,o),
(921.341,1192.734,cs),
(871.93,1164.417,o),
(812.637,1140.006,o),
(747.414,1140.006,cs),
(731.603,1140.006,o),
(714.803,1143.912,o),
(699.98,1148.794,cs),
(685.156,1153.676,o),
(670.333,1159.535,o),
(653.533,1166.37,cs),
(621.91,1178.087,o),
(591.275,1188.828,o),
(561.628,1188.828,cs),
(525.064,1188.828,o),
(484.547,1174.182,o),
(455.889,1151.723,cs),
(452.924,1149.77,o),
(450.947,1147.818,o),
(447.983,1144.888,c),
(444.03,1142.935,o),
(440.077,1140.006,o),
(436.124,1138.053,cs),
(427.23,1134.147,o),
(417.348,1130.242,o),
(403.513,1130.242,cs)
);
},
{
closed = 1;
nodes = (
(182.151,1030.644,ls),
(182.151,1069.702,o),
(207.845,1101.925,o),
(261.209,1101.925,cs),
(281.961,1101.925,o),
(308.643,1086.302,o),
(317.537,1074.584,cs),
(935.176,283.664,l),
(935.176,1030.644,ls),
(935.176,1063.843,o),
(956.917,1100.948,o),
(1010.281,1100.948,cs),
(1063.645,1100.948,o),
(1086.375,1064.82,o),
(1086.375,1030.644,cs),
(1086.375,70.799,ls),
(1086.375,33.694,o),
(1065.622,0.495,o),
(1010.281,0.495,cs),
(993.482,0.495,o),
(979.646,4.4,o),
(967.788,12.212,cs),
(962.847,16.118,o),
(958.894,20.024,o),
(954.941,23.929,cs),
(951.976,27.835,o),
(949.012,31.741,o),
(946.047,35.647,cs),
(333.349,818.756,l),
(333.349,70.799,ls),
(333.349,36.623,o),
(310.62,0.495,o),
(257.256,0.495,cs),
(203.892,0.495,o),
(182.151,37.6,o),
(182.151,70.799,cs)
);
}
);
width = 1269;
}
);
unicode = 209;
},
{
glyphname = Ograve;
layers = (
{
layerId = "AC87092A-E990-4874-8484-9ECA7DC3ECD4";
shapes = (
{
closed = 1;
nodes = (
(253.291,401.814,o),
(339.267,244.606,o),
(509.241,173.325,cs),
(561.617,151.844,o),
(616.957,141.103,o),
(675.262,141.103,cs),
(861.048,141.103,o),
(1005.329,250.465,o),
(1068.575,398.884,cs),
(1091.304,450.636,o),
(1100.198,506.293,o),
(1100.198,562.927,cs),
(1100.198,724.04,o),
(1010.27,882.225,o),
(840.295,953.505,cs),
(788.908,975.963,o),
(733.567,986.704,o),
(675.262,986.704,cs),
(415.36,986.704,o),
(253.291,775.792,o),
(253.291,562.927,cs)
);
},
{
closed = 1;
nodes = (
(102.093,774.816,o),
(214.75,988.657,o),
(447.971,1085.325,cs),
(517.147,1114.618,o),
(592.251,1128.289,o),
(668.345,1129.265,c),
(551.734,1245.462,ls),
(539.876,1258.156,o),
(529.993,1274.755,o),
(529.993,1293.308,cs),
(529.993,1323.578,o),
(559.64,1365.565,o),
(607.075,1365.565,cs),
(631.78,1365.565,o),
(650.557,1351.895,o),
(660.439,1342.13,cs),
(801.755,1202.498,ls),
(814.602,1189.805,o),
(823.496,1173.205,o),
(823.496,1154.653,cs),
(823.496,1141.959,o),
(817.566,1128.289,o),
(808.672,1115.595,c),
(919.353,1092.16,o),
(1010.27,1037.479,o),
(1085.375,964.246,cs),
(1200.997,849.025,o),
(1250.408,714.276,o),
(1250.408,564.88,cs),
(1250.408,416.46,o),
(1200.997,279.758,o),
(1085.375,165.514,cs),
(977.658,60.058,o),
(842.272,0.495,o),
(675.262,0.495,cs),
(596.204,0.495,o),
(519.123,14.165,o),
(447.971,44.435,cs),
(214.75,141.103,o),
(102.093,354.944,o),
(102.093,564.88,cs)
);
}
);
width = 1368;
}
);
unicode = 210;
},
{
glyphname = Oacute;
layers = (
{
layerId = "AC87092A-E990-4874-8484-9ECA7DC3ECD4";
shapes = (
{
closed = 1;
nodes = (
(253.291,401.814,o),
(339.267,244.606,o),
(509.241,173.325,cs),
(561.617,151.844,o),
(616.957,141.103,o),
(675.262,141.103,cs),
(861.048,141.103,o),
(1005.329,250.465,o),
(1068.575,398.884,cs),
(1091.304,450.636,o),
(1100.198,506.293,o),
(1100.198,562.927,cs),
(1100.198,724.04,o),
(1010.27,882.225,o),
(840.295,953.505,cs),
(788.908,975.963,o),
(733.567,986.704,o),
(675.262,986.704,cs),
(415.36,986.704,o),
(253.291,775.792,o),
(253.291,562.927,cs)
);
},
{
closed = 1;
nodes = (
(102.093,774.816,o),
(214.75,988.657,o),
(447.971,1085.325,cs),
(481.571,1098.995,o),
(516.158,1109.736,o),
(551.734,1117.548,c),
(537.899,1132.194,o),
(529.993,1149.77,o),
(529.993,1164.417,cs),
(529.993,1182.97,o),
(538.887,1199.569,o),
(551.734,1212.263,cs),
(693.05,1352.871,ls),
(704.909,1364.588,o),
(721.709,1375.329,o),
(746.414,1375.329,cs),
(793.849,1375.329,o),
(823.496,1333.342,o),
(823.496,1303.072,cs),
(823.496,1284.52,o),
(814.602,1267.92,o),
(801.755,1255.227,cs),
(674.274,1129.265,l),
(675.262,1129.265,l),
(842.272,1129.265,o),
(977.658,1069.702,o),
(1085.375,964.246,cs),
(1200.997,850.002,o),
(1250.408,713.3,o),
(1250.408,564.88,cs),
(1250.408,416.46,o),
(1200.997,279.758,o),
(1085.375,165.514,cs),
(977.658,60.058,o),
(842.272,0.495,o),
(675.262,0.495,cs),
(596.204,0.495,o),
(519.123,14.165,o),
(447.971,44.435,cs),
(214.75,141.103,o),
(102.093,354.944,o),
(102.093,564.88,cs)
);
}
);
width = 1368;
}
);
unicode = 211;
},
{
glyphname = Ocircumflex;
layers = (
{
layerId = "AC87092A-E990-4874-8484-9ECA7DC3ECD4";
shapes = (
{
closed = 1;
nodes = (
(253.291,401.814,o),
(339.267,244.606,o),
(509.241,173.325,cs),
(561.617,151.844,o),
(616.957,141.103,o),
(675.262,141.103,cs),
(861.048,141.103,o),
(1005.329,250.465,o),
(1068.575,398.884,cs),
(1091.304,450.636,o),
(1100.198,506.293,o),
(1100.198,562.927,cs),
(1100.198,724.04,o),
(1010.27,882.225,o),
(840.295,953.505,cs),
(788.908,975.963,o),
(733.567,986.704,o),
(675.262,986.704,cs),
(415.36,986.704,o),
(253.291,775.792,o),
(253.291,562.927,cs)
);
},
{
closed = 1;
nodes = (
(102.093,774.816,o),
(214.75,988.657,o),
(447.971,1085.325,cs),
(462.794,1091.184,o),
(477.618,1097.042,o),
(493.429,1101.925,c),
(469.712,1117.548,o),
(454.889,1143.912,o),
(454.889,1162.464,cs),
(454.889,1181.017,o),
(463.783,1197.616,o),
(476.629,1210.31,cs),
(622.886,1354.824,l),
(623.875,1354.824,o),
(627.828,1358.73,o),
(635.733,1361.659,c),
(638.698,1363.612,o),
(643.639,1365.565,o),
(647.592,1367.518,cs),
(656.486,1370.447,o),
(664.392,1374.353,o),
(666.368,1375.329,cs),
(675.262,1379.235,l),
(685.144,1376.306,ls),
(691.074,1374.353,o),
(698.98,1372.4,o),
(705.897,1369.471,cs),
(713.803,1366.541,o),
(723.685,1361.659,o),
(730.603,1354.824,cs),
(874.883,1210.31,ls),
(887.73,1197.616,o),
(896.624,1181.017,o),
(896.624,1162.464,cs),
(896.624,1142.935,o),
(882.789,1117.548,o),
(859.072,1101.925,c),
(945.047,1074.584,o),
(1020.152,1027.715,o),
(1085.375,964.246,cs),
(1200.997,850.002,o),
(1250.408,713.3,o),
(1250.408,564.88,cs),
(1250.408,416.46,o),
(1200.997,279.758,o),
(1085.375,165.514,cs),
(977.658,60.058,o),
(842.272,0.495,o),
(675.262,0.495,cs),
(596.204,0.495,o),
(519.123,14.165,o),
(447.971,44.435,cs),
(214.75,141.103,o),
(102.093,354.944,o),
(102.093,564.88,cs)
);
},
{
closed = 1;
nodes = (
(595.216,1124.383,l),
(621.898,1128.289,o),
(648.58,1129.265,o),
(675.262,1129.265,cs),
(702.932,1129.265,o),
(729.614,1128.289,o),
(755.308,1124.383,c),
(675.262,1204.451,l)
);
}
);
width = 1368;
}
);
unicode = 212;
},
{
glyphname = Otilde;
layers = (
{
layerId = "AC87092A-E990-4874-8484-9ECA7DC3ECD4";
shapes = (
{
closed = 1;
nodes = (
(253.291,401.814,o),
(339.267,244.606,o),
(509.241,173.325,cs),
(561.617,151.844,o),
(616.957,141.103,o),
(675.262,141.103,cs),
(861.048,141.103,o),
(1005.329,250.465,o),
(1068.575,398.884,cs),
(1091.304,450.636,o),
(1100.198,506.293,o),
(1100.198,562.927,cs),
(1100.198,724.04,o),
(1010.27,882.225,o),
(840.295,953.505,cs),
(788.908,975.963,o),
(733.567,986.704,o),
(675.262,986.704,cs),
(415.36,986.704,o),
(253.291,775.792,o),
(253.291,562.927,cs)
);
},
{
closed = 1;
nodes = (
(102.093,774.816,o),
(214.75,988.657,o),
(447.971,1085.325,cs),
(519.123,1115.595,o),
(596.204,1129.265,o),
(675.262,1129.265,cs),
(842.272,1129.265,o),
(977.658,1069.702,o),
(1085.375,964.246,cs),
(1200.997,850.002,o),
(1250.408,713.3,o),
(1250.408,564.88,cs),
(1250.408,416.46,o),
(1200.997,279.758,o),
(1085.375,165.514,cs),
(977.658,60.058,o),
(842.272,0.495,o),
(675.262,0.495,cs),
(596.204,0.495,o),
(519.123,14.165,o),
(447.971,44.435,cs),
(214.75,141.103,o),
(102.093,354.944,o),
(102.093,564.88,cs)
);
},
{
closed = 1;
nodes = (
(377.807,1162.464,o),
(345.196,1206.404,o),
(345.196,1235.698,cs),
(345.196,1252.297,o),
(355.078,1272.803,o),
(368.913,1285.496,cs),
(390.654,1304.049,o),
(451.924,1332.366,o),
(476.629,1342.13,cs),
(508.253,1353.847,o),
(543.829,1361.659,o),
(580.393,1361.659,cs),
(622.886,1361.659,o),
(660.439,1347.012,o),
(691.074,1334.319,cs),
(705.897,1328.46,o),
(720.72,1322.601,o),
(733.567,1317.719,cs),
(746.414,1312.837,o),
(757.285,1310.884,o),
(765.19,1310.884,cs),
(802.743,1310.884,o),
(843.26,1325.531,o),
(870.93,1347.989,cs),
(873.895,1349.942,o),
(876.86,1351.895,o),
(879.824,1354.824,cs),
(882.789,1356.777,o),
(886.742,1359.706,o),
(891.683,1361.659,cs),
(900.577,1366.541,o),
(911.447,1369.471,o),
(924.294,1369.471,cs),
(968.764,1369.471,o),
(1000.387,1326.507,o),
(1000.387,1298.19,cs),
(1000.387,1281.591,o),
(990.505,1260.109,o),
(975.682,1248.391,cs),
(970.741,1243.509,o),
(964.811,1240.58,o),
(959.87,1237.65,cs),
(954.929,1234.721,o),
(949.988,1231.792,o),
(946.035,1228.862,cs),
(895.636,1199.569,o),
(833.378,1172.229,o),
(765.19,1172.229,cs),
(748.391,1172.229,o),
(731.591,1176.134,o),
(716.768,1181.017,cs),
(702.932,1185.899,o),
(688.109,1191.758,o),
(672.298,1197.616,cs),
(642.651,1209.334,o),
(613.004,1220.074,o),
(580.393,1220.074,cs),
(542.84,1220.074,o),
(500.347,1205.428,o),
(473.665,1183.946,cs),
(470.7,1181.017,o),
(467.735,1179.064,o),
(464.771,1177.111,cs),
(461.806,1174.182,o),
(458.841,1172.229,o),
(453.9,1170.276,cs),
(445.006,1165.394,o),
(435.124,1162.464,o),
(422.277,1162.464,cs)
);
}
);
width = 1368;
}
);
unicode = 213;
},
{
glyphname = Odieresis;
layers = (
{
layerId = "AC87092A-E990-4874-8484-9ECA7DC3ECD4";
shapes = (
{
closed = 1;
nodes = (
(253.291,401.814,o),
(339.267,244.606,o),
(509.241,173.325,cs),
(561.617,151.844,o),
(616.957,141.103,o),
(675.262,141.103,cs),
(861.048,141.103,o),
(1005.329,250.465,o),
(1068.575,398.884,cs),
(1091.304,450.636,o),
(1100.198,506.293,o),
(1100.198,562.927,cs),
(1100.198,724.04,o),
(1010.27,882.225,o),
(840.295,953.505,cs),
(788.908,975.963,o),
(733.567,986.704,o),
(675.262,986.704,cs),
(415.36,986.704,o),
(253.291,775.792,o),
(253.291,562.927,cs)
);
},
{
closed = 1;
nodes = (
(102.093,774.816,o),
(214.75,988.657,o),
(447.971,1085.325,cs),
(519.123,1115.595,o),
(596.204,1129.265,o),
(675.262,1129.265,cs),
(842.272,1129.265,o),
(977.658,1069.702,o),
(1085.375,964.246,cs),
(1200.997,850.002,o),
(1250.408,713.3,o),
(1250.408,564.88,cs),
(1250.408,416.46,o),
(1200.997,279.758,o),
(1085.375,165.514,cs),
(977.658,60.058,o),
(842.272,0.495,o),
(675.262,0.495,cs),
(596.204,0.495,o),
(519.123,14.165,o),
(447.971,44.435,cs),
(214.75,141.103,o),
(102.093,354.944,o),
(102.093,564.88,cs)
);
},
{
closed = 1;
nodes = (
(746.414,1244.486,o),
(768.155,1285.496,o),
(833.378,1285.496,cs),
(899.589,1285.496,o),
(919.353,1243.509,o),
(919.353,1202.498,cs),
(919.353,1160.511,o),
(896.624,1122.43,o),
(833.378,1122.43,cs),
(771.12,1122.43,o),
(746.414,1158.558,o),
(746.414,1202.498,cs)
);
},
{
closed = 1;
nodes = (
(432.159,1245.462,o),
(454.889,1285.496,o),
(520.111,1285.496,cs),
(586.322,1285.496,o),
(605.098,1242.533,o),
(605.098,1202.498,cs),
(605.098,1161.488,o),
(583.357,1122.43,o),
(520.111,1122.43,cs),
(457.853,1122.43,o),
(432.159,1157.582,o),
(432.159,1202.498,cs)
);
}
);
width = 1368;
}
);
unicode = 214;
},
{
glyphname = Oslash;
layers = (
{
layerId = "AC87092A-E990-4874-8484-9ECA7DC3ECD4";
shapes = (
{
closed = 1;
nodes = (
(499.359,218.242,l),
(584.346,167.467,o),
(680.203,141.103,o),
(784.955,141.103,cs),
(943.07,141.103,o),
(1069.563,195.784,o),
(1173.326,298.31,cs),
(1284.995,407.672,o),
(1333.418,541.445,o),
(1333.418,686.936,cs),
(1333.418,849.025,o),
(1277.09,991.586,o),
(1143.68,1102.901,c)
);
},
{
closed = 1;
nodes = (
(1022.128,1180.04,l),
(949,1214.216,o),
(868.954,1232.768,o),
(784.955,1232.768,cs),
(626.839,1232.768,o),
(500.347,1178.087,o),
(396.583,1075.561,cs),
(284.914,966.199,o),
(236.491,832.426,o),
(236.491,686.936,cs),
(236.491,544.375,o),
(281.95,415.484,o),
(387.689,307.098,c)
);
},
{
closed = 1;
nodes = (
(225.621,75.681,o),
(227.597,89.351,o),
(235.503,100.092,cs),
(300.726,189.925,l),
(149.528,329.557,o),
(86.282,501.411,o),
(86.282,688.888,cs),
(86.282,869.531,o),
(146.563,1035.526,o),
(286.891,1174.182,cs),
(417.336,1303.072,o),
(582.369,1375.329,o),
(784.955,1375.329,cs),
(902.553,1375.329,o),
(1009.281,1348.965,o),
(1109.092,1299.167,c),
(1117.986,1311.86,o),
(1127.868,1325.531,o),
(1136.762,1338.224,cs),
(1142.691,1345.059,o),
(1150.597,1353.847,o),
(1160.479,1361.659,cs),
(1170.362,1369.471,o),
(1184.197,1376.306,o),
(1202.973,1376.306,cs),
(1247.443,1376.306,o),
(1279.066,1342.13,o),
(1279.066,1308.931,cs),
(1279.066,1301.119,o),
(1278.078,1285.496,o),
(1269.184,1273.779,cs),
(1231.631,1221.051,l),
(1410.5,1078.49,o),
(1483.628,893.942,o),
(1483.628,688.888,cs),
(1483.628,507.27,o),
(1420.382,341.274,o),
(1281.043,201.642,cs),
(1151.585,72.752,o),
(986.552,0.495,o),
(784.955,0.495,cs),
(648.58,0.495,o),
(525.052,35.647,o),
(415.36,103.021,c),
(368.913,36.623,ls),
(358.043,21,o),
(337.29,-1.458,o),
(301.714,-1.458,cs),
(256.256,-1.458,o),
(225.621,32.717,o),
(225.621,66.893,cs)
);
}
);
width = 1570;
}
);
unicode = 216;
},
{
glyphname = Ugrave;
layers = (
{
layerId = "AC87092A-E990-4874-8484-9ECA7DC3ECD4";
shapes = (
{
closed = 1;
nodes = (
(477.618,1245.462,ls),
(463.783,1258.156,o),
(454.889,1274.755,o),
(454.889,1293.308,cs),
(454.889,1323.578,o),
(484.535,1365.565,o),
(531.97,1365.565,cs),
(556.675,1365.565,o),
(574.463,1351.895,o),
(584.346,1342.13,cs),
(727.638,1202.498,ls),
(741.473,1189.805,o),
(751.355,1176.134,o),
(751.355,1154.653,cs),
(751.355,1125.359,o),
(717.756,1082.396,o),
(673.286,1082.396,cs),
(649.568,1082.396,o),
(631.78,1095.09,o),
(621.898,1104.854,cs)
);
},
{
closed = 1;
nodes = (
(102.093,1043.338,ls),
(102.093,1076.537,o),
(125.81,1113.642,o),
(178.186,1113.642,cs),
(231.55,1113.642,o),
(253.291,1076.537,o),
(253.291,1043.338,cs),
(253.291,490.67,ls),
(253.291,310.028,o),
(383.737,141.103,o),
(603.122,141.103,cs),
(816.578,141.103,o),
(952.953,311.981,o),
(952.953,488.717,cs),
(952.953,1040.409,ls),
(952.953,1073.608,o),
(973.705,1111.689,o),
(1028.058,1111.689,cs),
(1082.41,1111.689,o),
(1103.163,1073.608,o),
(1103.163,1040.409,cs),
(1103.163,488.717,ls),
(1103.163,249.488,o),
(914.412,0.495,o),
(603.122,0.495,cs),
(533.946,0.495,o),
(466.747,12.212,o),
(404.489,38.576,cs),
(200.915,122.55,o),
(102.093,307.098,o),
(102.093,490.67,cs)
);
}
);
width = 1268;
}
);
unicode = 217;
},
{
glyphname = Uacute;
layers = (
{
layerId = "AC87092A-E990-4874-8484-9ECA7DC3ECD4";
shapes = (
{
closed = 1;
nodes = (
(454.889,1182.97,o),
(463.783,1199.569,o),
(477.618,1212.263,cs),
(621.898,1352.871,ls),
(631.78,1362.635,o),
(648.58,1375.329,o),
(673.286,1375.329,cs),
(720.72,1375.329,o),
(751.355,1334.319,o),
(751.355,1303.072,cs),
(751.355,1281.591,o),
(741.473,1267.92,o),
(727.638,1255.227,cs),
(584.346,1115.595,ls),
(574.463,1105.83,o),
(556.675,1092.16,o),
(531.97,1092.16,cs),
(488.488,1092.16,o),
(454.889,1136.1,o),
(454.889,1164.417,cs)
);
},
{
closed = 1;
nodes = (
(102.093,1043.338,ls),
(102.093,1076.537,o),
(125.81,1113.642,o),
(178.186,1113.642,cs),
(231.55,1113.642,o),
(253.291,1076.537,o),
(253.291,1043.338,cs),
(253.291,490.67,ls),
(253.291,310.028,o),
(383.737,141.103,o),
(603.122,141.103,cs),
(816.578,141.103,o),
(952.953,311.981,o),
(952.953,488.717,cs),
(952.953,1040.409,ls),
(952.953,1073.608,o),
(973.705,1111.689,o),
(1028.058,1111.689,cs),
(1082.41,1111.689,o),
(1103.163,1073.608,o),
(1103.163,1040.409,cs),
(1103.163,488.717,ls),
(1103.163,249.488,o),
(914.412,0.495,o),
(603.122,0.495,cs),
(533.946,0.495,o),
(466.747,12.212,o),
(404.489,38.576,cs),
(200.915,122.55,o),
(102.093,307.098,o),
(102.093,490.67,cs)
);
}
);
width = 1268;
}
);
unicode = 218;
},
{
glyphname = Ucircumflex;
layers = (
{
layerId = "AC87092A-E990-4874-8484-9ECA7DC3ECD4";
shapes = (
{
closed = 1;
nodes = (
(381.76,1181.017,o),
(390.654,1197.616,o),
(403.501,1210.31,cs),
(549.758,1354.824,l),
(550.746,1354.824,o),
(554.699,1358.73,o),
(562.605,1361.659,cs),
(566.558,1363.612,o),
(570.511,1365.565,o),
(575.452,1367.518,cs),
(584.346,1370.447,o),
(593.24,1374.353,o),
(594.228,1375.329,c),
(605.098,1380.211,l),
(614.981,1375.329,l),
(618.934,1374.353,o),
(626.839,1371.423,o),
(633.757,1368.494,cs),
(637.71,1366.541,o),
(642.651,1364.588,o),
(645.616,1363.612,cs),
(648.58,1361.659,o),
(654.51,1358.73,o),
(658.462,1354.824,cs),
(801.755,1210.31,ls),
(813.613,1197.616,o),
(823.496,1181.017,o),
(823.496,1162.464,cs),
(823.496,1134.147,o),
(789.896,1090.207,o),
(746.414,1090.207,cs),
(719.732,1090.207,o),
(703.921,1102.901,o),
(693.05,1113.642,cs),
(603.122,1204.451,l),
(512.205,1113.642,ls),
(501.335,1102.901,o),
(485.523,1090.207,o),
(458.841,1090.207,cs),
(415.36,1090.207,o),
(381.76,1134.147,o),
(381.76,1162.464,cs)
);
},
{
closed = 1;
nodes = (
(102.093,1043.338,ls),
(102.093,1076.537,o),
(125.81,1113.642,o),
(178.186,1113.642,cs),
(231.55,1113.642,o),
(253.291,1076.537,o),
(253.291,1043.338,cs),
(253.291,490.67,ls),
(253.291,310.028,o),
(383.737,141.103,o),
(603.122,141.103,cs),
(816.578,141.103,o),
(952.953,311.981,o),
(952.953,488.717,cs),
(952.953,1040.409,ls),
(952.953,1073.608,o),
(973.705,1111.689,o),
(1028.058,1111.689,cs),
(1082.41,1111.689,o),
(1103.163,1073.608,o),
(1103.163,1040.409,cs),
(1103.163,488.717,ls),
(1103.163,249.488,o),
(914.412,0.495,o),
(603.122,0.495,cs),
(533.946,0.495,o),
(466.747,12.212,o),
(404.489,38.576,cs),
(200.915,122.55,o),
(102.093,307.098,o),
(102.093,490.67,cs)
);
}
);
width = 1268;
}
);
unicode = 219;
},
{
glyphname = Udieresis;
layers = (
{
layerId = "AC87092A-E990-4874-8484-9ECA7DC3ECD4";
shapes = (
{
closed = 1;
nodes = (
(673.286,1232.768,o),
(692.062,1275.732,o),
(758.273,1275.732,cs),
(823.496,1275.732,o),
(846.225,1235.698,o),
(846.225,1192.734,cs),
(846.225,1147.818,o),
(820.531,1112.666,o),
(758.273,1112.666,cs),
(695.027,1112.666,o),
(673.286,1151.723,o),
(673.286,1192.734,cs)
);
},
{
closed = 1;
nodes = (
(359.031,1235.698,o),
(381.76,1275.732,o),
(446.983,1275.732,cs),
(513.194,1275.732,o),
(531.97,1232.768,o),
(531.97,1192.734,cs),
(531.97,1151.723,o),
(510.229,1112.666,o),
(446.983,1112.666,cs),
(384.725,1112.666,o),
(359.031,1147.818,o),
(359.031,1192.734,cs)
);
},
{
closed = 1;
nodes = (
(102.093,1043.338,ls),
(102.093,1076.537,o),
(125.81,1113.642,o),
(178.186,1113.642,cs),
(231.55,1113.642,o),
(253.291,1076.537,o),
(253.291,1043.338,cs),
(253.291,490.67,ls),
(253.291,310.028,o),
(383.737,141.103,o),
(603.122,141.103,cs),
(816.578,141.103,o),
(952.953,311.981,o),
(952.953,488.717,cs),
(952.953,1040.409,ls),
(952.953,1073.608,o),
(973.705,1111.689,o),
(1028.058,1111.689,cs),
(1082.41,1111.689,o),
(1103.163,1073.608,o),
(1103.163,1040.409,cs),
(1103.163,488.717,ls),
(1103.163,249.488,o),
(914.412,0.495,o),
(603.122,0.495,cs),
(533.946,0.495,o),
(466.747,12.212,o),
(404.489,38.576,cs),
(200.915,122.55,o),
(102.093,307.098,o),
(102.093,490.67,cs)
);
}
);
width = 1268;
}
);
unicode = 220;
},
{
glyphname = germandbls;
layers = (
{
layerId = "AC87092A-E990-4874-8484-9ECA7DC3ECD4";
shapes = (
{
closed = 1;
nodes = (
(102.093,1016.974,ls),
(102.093,1159.535,o),
(220.68,1239.603,o),
(355.078,1286.473,cs),
(453.9,1320.648,o),
(561.617,1341.154,o),
(669.333,1341.154,cs),
(826.46,1341.154,o),
(967.776,1265.967,o),
(1034.975,1144.888,cs),
(1059.681,1098.995,o),
(1070.551,1050.173,o),
(1070.551,1001.351,cs),
(1070.551,910.541,o),
(1032.011,740.64,o),
(911.447,683.03,c),
(1013.234,606.867,o),
(1070.551,510.199,o),
(1070.551,389.12,cs),
(1070.551,193.831,o),
(926.271,-1.458,o),
(669.333,-1.458,cs),
(573.475,-1.458,o),
(493.429,37.6,o),
(427.218,87.398,cs),
(355.078,142.079,o),
(298.749,211.407,o),
(298.749,301.24,cs),
(298.749,335.415,o),
(314.561,377.402,o),
(375.831,377.402,cs),
(405.477,377.402,o),
(433.148,362.756,o),
(443.03,337.368,cs),
(445.006,332.486,o),
(446.983,326.627,o),
(446.983,321.745,c),
(447.971,318.816,o),
(447.971,314.91,o),
(448.959,311.981,cs),
(454.889,293.428,o),
(462.794,274.876,o),
(472.677,258.276,cs),
(511.217,192.854,o),
(585.334,143.056,o),
(669.333,143.056,cs),
(818.554,143.056,o),
(918.365,266.088,o),
(918.365,391.073,cs),
(918.365,481.882,o),
(853.142,565.856,o),
(756.296,602.961,cs),
(726.65,613.702,o),
(696.015,620.537,o),
(665.38,620.537,cs),
(656.486,620.537,o),
(644.627,620.537,o),
(631.78,621.514,c),
(619.922,621.514,o),
(605.098,623.467,o),
(593.24,628.349,cs),
(552.723,642.995,o),
(545.805,675.218,o),
(545.805,700.606,cs),
(545.805,728.923,o),
(555.687,760.169,o),
(599.169,772.863,cs),
(609.051,775.792,o),
(623.875,776.768,o),
(634.745,777.745,c),
(645.616,777.745,o),
(657.474,777.745,o),
(665.38,777.745,cs),
(840.295,777.745,o),
(918.365,852.931,o),
(918.365,1001.351,cs),
(918.365,1114.618,o),
(801.755,1200.546,o),
(669.333,1200.546,cs),
(591.263,1200.546,o),
(513.194,1188.828,o),
(439.077,1167.346,cs),
(334.325,1137.077,o),
(253.291,1089.231,o),
(253.291,998.421,cs),
(253.291,70.799,ls),
(253.291,37.6,o),
(231.55,0.495,o),
(178.186,0.495,cs),
(124.822,0.495,o),
(102.093,36.623,o),
(102.093,70.799,cs)
);
}
);
width = 1165;
}
);
unicode = 223;
},
{
glyphname = agrave;
layers = (
{
layerId = "AC87092A-E990-4874-8484-9ECA7DC3ECD4";
shapes = (
{
closed = 1;
nodes = (
(253.291,260.229,o),
(322.467,141.103,o),
(431.171,141.103,cs),
(537.899,141.103,o),
(608.063,262.182,o),
(608.063,354.944,cs),
(608.063,450.636,o),
(541.852,568.786,o),
(431.171,568.786,cs),
(322.467,568.786,o),
(253.291,449.659,o),
(253.291,354.944,cs)
);
},
{
closed = 1;
nodes = (
(102.093,508.246,o),
(208.821,709.394,o),
(431.171,709.394,cs),
(502.323,709.394,o),
(562.605,685.959,o),
(611.028,648.854,c),
(612.016,653.736,o),
(613.004,657.642,o),
(613.992,662.524,cs),
(621.898,687.912,o),
(642.651,709.394,o),
(686.133,709.394,cs),
(739.497,709.394,o),
(761.238,672.289,o),
(761.238,639.09,cs),
(761.238,70.799,ls),
(761.238,37.6,o),
(739.497,0.495,o),
(686.133,0.495,cs),
(642.651,0.495,o),
(621.898,21.976,o),
(613.992,47.364,cs),
(613.004,52.246,o),
(612.016,56.152,o),
(611.028,61.034,c),
(562.605,23.929,o),
(502.323,0.495,o),
(431.171,0.495,cs),
(211.786,0.495,o),
(102.093,203.595,o),
(102.093,354.944,cs)
);
},
{
closed = 1;
nodes = (
(310.608,953.505,ls),
(297.761,966.199,o),
(288.867,982.798,o),
(288.867,1001.351,cs),
(288.867,1031.621,o),
(318.514,1073.608,o),
(365.949,1073.608,cs),
(390.654,1073.608,o),
(408.442,1059.937,o),
(419.313,1050.173,c),
(649.568,822.661,ls),
(661.427,810.944,o),
(672.298,794.344,o),
(672.298,774.816,cs),
(672.298,745.522,o),
(638.698,702.559,o),
(594.228,702.559,cs),
(570.511,702.559,o),
(552.723,715.252,o),
(541.852,725.017,c)
);
}
);
width = 862;
}
);
unicode = 224;
},
{
glyphname = aacute;
layers = (
{
layerId = "AC87092A-E990-4874-8484-9ECA7DC3ECD4";
shapes = (
{
closed = 1;
nodes = (
(253.291,260.229,o),
(322.467,141.103,o),
(431.171,141.103,cs),
(537.899,141.103,o),
(608.063,262.182,o),
(608.063,354.944,cs),
(608.063,450.636,o),
(541.852,568.786,o),
(431.171,568.786,cs),
(322.467,568.786,o),
(253.291,449.659,o),
(253.291,354.944,cs)
);
},
{
closed = 1;
nodes = (
(102.093,491.646,o),
(186.092,665.454,o),
(361.007,702.559,c),
(319.502,705.488,o),
(288.867,747.475,o),
(288.867,774.816,cs),
(288.867,793.368,o),
(297.761,809.968,o),
(310.608,822.661,cs),
(541.852,1050.173,ls),
(551.734,1058.961,o),
(569.522,1073.608,o),
(594.228,1073.608,cs),
(641.663,1073.608,o),
(672.298,1032.597,o),
(672.298,1001.351,cs),
(672.298,980.845,o),
(661.427,965.222,o),
(649.568,953.505,cs),
(419.313,725.017,ls),
(412.395,718.182,o),
(403.501,712.323,o),
(392.631,707.441,c),
(405.477,709.394,o),
(418.324,709.394,o),
(431.171,709.394,cs),
(502.323,709.394,o),
(562.605,685.959,o),
(611.028,648.854,c),
(612.016,653.736,o),
(613.004,657.642,o),
(613.992,662.524,cs),
(621.898,687.912,o),
(642.651,709.394,o),
(686.133,709.394,cs),
(739.497,709.394,o),
(761.238,672.289,o),
(761.238,639.09,cs),
(761.238,70.799,ls),
(761.238,37.6,o),
(739.497,0.495,o),
(686.133,0.495,cs),
(642.651,0.495,o),
(621.898,21.976,o),
(613.992,47.364,cs),
(613.004,52.246,o),
(612.016,56.152,o),
(611.028,61.034,c),
(562.605,23.929,o),
(502.323,0.495,o),
(431.171,0.495,cs),
(211.786,0.495,o),
(102.093,203.595,o),
(102.093,354.944,cs)
);
}
);
width = 862;
}
);
unicode = 225;
},
{
glyphname = acircumflex;
layers = (
{
layerId = "AC87092A-E990-4874-8484-9ECA7DC3ECD4";
shapes = (
{
closed = 1;
nodes = (
(253.291,260.229,o),
(322.467,141.103,o),
(431.171,141.103,cs),
(537.899,141.103,o),
(608.063,262.182,o),
(608.063,354.944,cs),
(608.063,450.636,o),
(541.852,568.786,o),
(431.171,568.786,cs),
(322.467,568.786,o),
(253.291,449.659,o),
(253.291,354.944,cs)
);
},
{
closed = 1;
nodes = (
(102.093,508.246,o),
(208.821,709.394,o),
(431.171,709.394,cs),
(502.323,709.394,o),
(562.605,685.959,o),
(611.028,648.854,c),
(612.016,653.736,o),
(613.004,657.642,o),
(613.992,662.524,cs),
(621.898,687.912,o),
(642.651,709.394,o),
(686.133,709.394,cs),
(739.497,709.394,o),
(761.238,672.289,o),
(761.238,639.09,cs),
(761.238,70.799,ls),
(761.238,37.6,o),
(739.497,0.495,o),
(686.133,0.495,cs),
(642.651,0.495,o),
(621.898,21.976,o),
(613.992,47.364,cs),
(613.004,52.246,o),
(612.016,56.152,o),
(611.028,61.034,c),
(562.605,23.929,o),
(502.323,0.495,o),
(431.171,0.495,cs),
(211.786,0.495,o),
(102.093,203.595,o),
(102.093,354.944,cs)
);
},
{
closed = 1;
nodes = (
(140.634,847.072,o),
(151.504,862.696,o),
(163.363,874.413,cs),
(393.619,1102.901,l),
(407.454,1115.595,o),
(424.254,1125.359,o),
(448.959,1125.359,cs),
(472.677,1125.359,o),
(490.465,1113.642,o),
(502.323,1102.901,c),
(732.579,874.413,ls),
(744.438,862.696,o),
(755.308,847.072,o),
(755.308,826.567,cs),
(755.308,797.274,o),
(721.709,754.31,o),
(677.239,754.31,cs),
(653.521,754.31,o),
(635.733,767.004,o),
(624.863,776.768,c),
(446.983,952.529,l),
(271.079,776.768,ls),
(260.209,766.028,o),
(242.421,754.31,o),
(218.703,754.31,cs),
(174.233,754.31,o),
(140.634,797.274,o),
(140.634,826.567,cs)
);
}
);
width = 862;
}
);
unicode = 226;
},
{
glyphname = atilde;
layers = (
{
layerId = "AC87092A-E990-4874-8484-9ECA7DC3ECD4";
shapes = (
{
closed = 1;
nodes = (
(253.291,260.229,o),
(322.467,141.103,o),
(431.171,141.103,cs),
(537.899,141.103,o),
(608.063,262.182,o),
(608.063,354.944,cs),
(608.063,450.636,o),
(541.852,568.786,o),
(431.171,568.786,cs),
(322.467,568.786,o),
(253.291,449.659,o),
(253.291,354.944,cs)
);
},
{
closed = 1;
nodes = (
(102.093,508.246,o),
(208.821,709.394,o),
(431.171,709.394,cs),
(502.323,709.394,o),
(562.605,685.959,o),
(611.028,648.854,c),
(612.016,653.736,o),
(613.004,657.642,o),
(613.992,662.524,cs),
(621.898,687.912,o),
(642.651,709.394,o),
(686.133,709.394,cs),
(739.497,709.394,o),
(761.238,672.289,o),
(761.238,639.09,cs),
(761.238,70.799,ls),
(761.238,37.6,o),
(739.497,0.495,o),
(686.133,0.495,cs),
(642.651,0.495,o),
(621.898,21.976,o),
(613.992,47.364,cs),
(613.004,52.246,o),
(612.016,56.152,o),
(611.028,61.034,c),
(562.605,23.929,o),
(502.323,0.495,o),
(431.171,0.495,cs),
(211.786,0.495,o),
(102.093,203.595,o),
(102.093,354.944,cs)
);
},
{
closed = 1;
nodes = (
(167.316,740.64,o),
(146.563,774.816,o),
(146.563,812.897,cs),
(146.563,827.544,o),
(156.445,851.955,o),
(171.269,863.672,cs),
(177.198,868.554,o),
(184.116,873.436,o),
(190.045,876.366,cs),
(195.974,880.272,o),
(201.904,883.201,o),
(206.845,887.107,c),
(227.597,898.824,o),
(256.256,916.4,o),
(286.891,930.07,cs),
(316.537,943.741,o),
(352.113,955.458,o),
(383.737,955.458,cs),
(429.195,955.458,o),
(467.735,933.976,o),
(496.394,916.4,cs),
(510.229,907.612,o),
(523.076,899.801,o),
(533.946,892.965,cs),
(545.805,886.13,o),
(550.746,885.154,o),
(551.734,885.154,c),
(570.511,885.154,o),
(642.651,922.259,o),
(666.368,938.858,cs),
(669.333,940.811,o),
(672.298,942.764,o),
(674.274,944.717,cs),
(677.239,946.67,o),
(681.192,949.599,o),
(685.144,951.552,cs),
(694.038,955.458,o),
(703.921,957.411,o),
(715.779,957.411,cs),
(771.12,957.411,o),
(791.872,924.212,o),
(791.872,887.107,cs),
(791.872,872.46,o),
(783.967,847.072,o),
(766.179,833.402,cs),
(760.249,828.52,o),
(753.332,824.614,o),
(746.414,820.708,cs),
(740.485,817.779,o),
(734.556,814.85,o),
(728.626,810.944,cs),
(708.862,800.203,o),
(679.215,783.604,o),
(648.58,769.933,cs),
(617.945,757.24,o),
(582.369,744.546,o),
(551.734,744.546,cs),
(530.982,744.546,o),
(512.205,750.404,o),
(495.406,758.216,cs),
(479.594,765.051,o),
(463.783,774.816,o),
(449.947,783.604,cs),
(437.101,791.415,o),
(424.254,800.203,o),
(411.407,806.062,cs),
(399.548,811.92,o),
(390.654,814.85,o),
(383.737,814.85,cs),
(367.925,814.85,o),
(349.149,808.015,o),
(329.384,797.274,cs),
(309.62,786.533,o),
(291.832,771.886,o),
(276.02,759.192,cs),
(264.162,750.404,o),
(247.362,740.64,o),
(224.633,740.64,cs)
);
}
);
width = 862;
}
);
unicode = 227;
},
{
glyphname = adieresis;
layers = (
{
layerId = "AC87092A-E990-4874-8484-9ECA7DC3ECD4";
shapes = (
{
closed = 1;
nodes = (
(253.291,260.229,o),
(322.467,141.103,o),
(431.171,141.103,cs),
(537.899,141.103,o),
(608.063,262.182,o),
(608.063,354.944,cs),
(608.063,450.636,o),
(541.852,568.786,o),
(431.171,568.786,cs),
(322.467,568.786,o),
(253.291,449.659,o),
(253.291,354.944,cs)
);
},
{
closed = 1;
nodes = (
(102.093,508.246,o),
(208.821,709.394,o),
(431.171,709.394,cs),
(502.323,709.394,o),
(562.605,685.959,o),
(611.028,648.854,c),
(612.016,653.736,o),
(613.004,657.642,o),
(613.992,662.524,cs),
(621.898,687.912,o),
(642.651,709.394,o),
(686.133,709.394,cs),
(739.497,709.394,o),
(761.238,672.289,o),
(761.238,639.09,cs),
(761.238,70.799,ls),
(761.238,37.6,o),
(739.497,0.495,o),
(686.133,0.495,cs),
(642.651,0.495,o),
(621.898,21.976,o),
(613.992,47.364,cs),
(613.004,52.246,o),
(612.016,56.152,o),
(611.028,61.034,c),
(562.605,23.929,o),
(502.323,0.495,o),
(431.171,0.495,cs),
(211.786,0.495,o),
(102.093,203.595,o),
(102.093,354.944,cs)
);
},
{
closed = 1;
nodes = (
(491.453,899.801,o),
(515.17,937.882,o),
(578.416,937.882,cs),
(642.651,937.882,o),
(664.392,898.824,o),
(664.392,856.837,cs),
(664.392,815.826,o),
(643.639,774.816,o),
(578.416,774.816,cs),
(514.182,774.816,o),
(491.453,814.85,o),
(491.453,856.837,cs)
);
},
{
closed = 1;
nodes = (
(177.198,900.777,o),
(201.904,937.882,o),
(265.15,937.882,cs),
(329.384,937.882,o),
(350.137,897.848,o),
(350.137,856.837,cs),
(350.137,816.803,o),
(330.373,774.816,o),
(265.15,774.816,cs),
(200.915,774.816,o),
(177.198,812.897,o),
(177.198,856.837,cs)
);
}
);
width = 862;
}
);
unicode = 228;
},
{
glyphname = aring;
layers = (
{
layerId = "AC87092A-E990-4874-8484-9ECA7DC3ECD4";
shapes = (
{
closed = 1;
nodes = (
(394.607,929.094,o),
(404.489,917.377,o),
(431.171,917.377,cs),
(457.853,917.377,o),
(468.724,929.094,o),
(468.724,959.364,cs),
(468.724,987.681,o),
(458.841,998.421,o),
(431.171,998.421,cs),
(404.489,998.421,o),
(394.607,987.681,o),
(394.607,959.364,cs)
);
},
{
closed = 1;
nodes = (
(284.914,1023.809,o),
(338.278,1100.948,o),
(431.171,1100.948,cs),
(524.064,1100.948,o),
(579.405,1025.762,o),
(579.405,959.364,cs),
(579.405,892.965,o),
(525.052,816.803,o),
(431.171,816.803,cs),
(337.29,816.803,o),
(284.914,894.918,o),
(284.914,959.364,cs)
);
},
{
closed = 1;
nodes = (
(253.291,260.229,o),
(322.467,141.103,o),
(431.171,141.103,cs),
(537.899,141.103,o),
(608.063,262.182,o),
(608.063,354.944,cs),
(608.063,450.636,o),
(541.852,568.786,o),
(431.171,568.786,cs),
(322.467,568.786,o),
(253.291,449.659,o),
(253.291,354.944,cs)
);
},
{
closed = 1;
nodes = (
(102.093,508.246,o),
(208.821,709.394,o),
(431.171,709.394,cs),
(502.323,709.394,o),
(562.605,685.959,o),
(611.028,648.854,c),
(612.016,653.736,o),
(613.004,657.642,o),
(613.992,662.524,cs),
(621.898,687.912,o),
(642.651,709.394,o),
(686.133,709.394,cs),
(739.497,709.394,o),
(761.238,672.289,o),
(761.238,639.09,cs),
(761.238,70.799,ls),
(761.238,37.6,o),
(739.497,0.495,o),
(686.133,0.495,cs),
(642.651,0.495,o),
(621.898,21.976,o),
(613.992,47.364,cs),
(613.004,52.246,o),
(612.016,56.152,o),
(611.028,61.034,c),
(562.605,23.929,o),
(502.323,0.495,o),
(431.171,0.495,cs),
(211.786,0.495,o),
(102.093,203.595,o),
(102.093,354.944,cs)
);
}
);
width = 862;
}
);
unicode = 229;
},
{
glyphname = ccedilla;
layers = (
{
layerId = "AC87092A-E990-4874-8484-9ECA7DC3ECD4";
shapes = (
{
closed = 1;
nodes = (
(297.761,-281.698,l),
(373.854,-184.053,l),
(394.607,-206.512,ls),
(409.43,-222.135,o),
(419.313,-226.041,o),
(443.03,-226.041,cs),
(448.959,-226.041,o),
(465.759,-216.276,o),
(474.653,-206.512,cs),
(483.547,-195.771,o),
(488.488,-184.053,o),
(488.488,-170.383,cs),
(488.488,-135.231,o),
(472.677,-119.608,o),
(435.124,-119.608,cs),
(410.419,-119.608,o),
(385.713,-121.561,o),
(361.007,-121.561,c),
(330.373,-122.537,l),
(359.031,9.283,l),
(184.116,48.34,o),
(102.093,222.148,o),
(102.093,354.944,cs),
(102.093,508.246,o),
(208.821,709.394,o),
(431.171,709.394,cs),
(553.711,709.394,o),
(635.733,646.901,o),
(692.062,565.856,cs),
(699.968,554.139,o),
(708.862,539.492,o),
(708.862,520.94,cs),
(708.862,489.694,o),
(672.298,450.636,o),
(629.804,450.636,cs),
(600.157,450.636,o),
(581.381,470.165,o),
(572.487,480.906,cs),
(532.958,527.775,o),
(490.465,568.786,o),
(431.171,568.786,cs),
(322.467,568.786,o),
(253.291,449.659,o),
(253.291,354.944,cs),
(253.291,260.229,o),
(322.467,141.103,o),
(431.171,141.103,cs),
(510.229,141.103,o),
(552.723,183.09,o),
(584.346,248.512,c),
(592.251,263.158,o),
(609.051,292.452,o),
(647.592,292.452,cs),
(686.133,292.452,o),
(729.614,263.158,o),
(729.614,226.053,cs),
(729.614,212.383,o),
(725.662,200.666,o),
(720.72,190.901,cs),
(678.227,104.974,o),
(608.063,24.906,o),
(490.465,5.377,c),
(487.5,-10.246,l),
(572.487,-29.775,o),
(611.028,-113.749,o),
(611.028,-175.265,cs),
(611.028,-255.334,o),
(545.805,-342.238,o),
(437.101,-342.238,cs),
(386.701,-342.238,o),
(344.208,-319.779,o),
(312.585,-293.415,cs)
);
}
);
width = 861;
}
);
unicode = 231;
},
{
glyphname = egrave;
layers = (
{
layerId = "AC87092A-E990-4874-8484-9ECA7DC3ECD4";
shapes = (
{
closed = 1;
nodes = (
(574.463,475.047,l),
(544.817,529.728,o),
(500.347,568.786,o),
(431.171,568.786,cs),
(361.007,568.786,o),
(316.537,530.704,o),
(286.891,475.047,c)
);
},
{
closed = 1;
nodes = (
(102.093,508.246,o),
(208.821,709.394,o),
(431.171,709.394,cs),
(652.533,709.394,o),
(759.261,507.27,o),
(759.261,354.944,cs),
(759.261,334.439,l),
(254.279,334.439,l),
(263.173,243.629,o),
(330.373,141.103,o),
(431.171,141.103,cs),
(487.5,141.103,o),
(539.876,169.42,o),
(566.558,212.383,cs),
(569.522,216.289,o),
(571.499,220.195,o),
(574.463,224.101,cs),
(576.44,228.006,o),
(580.393,232.889,o),
(585.334,237.771,cs),
(595.216,247.535,o),
(609.051,254.37,o),
(628.816,254.37,cs),
(669.333,254.37,o),
(710.838,225.077,o),
(710.838,186.996,cs),
(710.838,177.231,o),
(707.874,161.608,o),
(701.944,150.867,cs),
(697.003,143.056,o),
(691.074,135.244,o),
(684.156,127.433,cs),
(678.227,119.621,o),
(671.309,112.786,o),
(665.38,105.951,cs),
(608.063,43.458,o),
(530.982,0.495,o),
(431.171,0.495,cs),
(211.786,0.495,o),
(102.093,203.595,o),
(102.093,354.944,cs)
);
},
{
closed = 1;
nodes = (
(310.608,953.505,ls),
(297.761,966.199,o),
(288.867,982.798,o),
(288.867,1001.351,cs),
(288.867,1031.621,o),
(318.514,1073.608,o),
(365.949,1073.608,cs),
(390.654,1073.608,o),
(408.442,1059.937,o),
(419.313,1050.173,c),
(649.568,822.661,ls),
(661.427,810.944,o),
(672.298,794.344,o),
(672.298,774.816,cs),
(672.298,745.522,o),
(638.698,702.559,o),
(594.228,702.559,cs),
(570.511,702.559,o),
(552.723,715.252,o),
(541.852,725.017,c)
);
}
);
width = 862;
}
);
unicode = 232;
},
{
glyphname = eacute;
layers = (
{
layerId = "AC87092A-E990-4874-8484-9ECA7DC3ECD4";
shapes = (
{
closed = 1;
nodes = (
(574.463,475.047,l),
(544.817,529.728,o),
(500.347,568.786,o),
(431.171,568.786,cs),
(361.007,568.786,o),
(316.537,530.704,o),
(286.891,475.047,c)
);
},
{
closed = 1;
nodes = (
(102.093,508.246,o),
(208.821,709.394,o),
(431.171,709.394,cs),
(652.533,709.394,o),
(759.261,507.27,o),
(759.261,354.944,cs),
(759.261,334.439,l),
(254.279,334.439,l),
(263.173,243.629,o),
(330.373,141.103,o),
(431.171,141.103,cs),
(487.5,141.103,o),
(539.876,169.42,o),
(566.558,212.383,cs),
(569.522,216.289,o),
(571.499,220.195,o),
(574.463,224.101,cs),
(576.44,228.006,o),
(580.393,232.889,o),
(585.334,237.771,cs),
(595.216,247.535,o),
(609.051,254.37,o),
(628.816,254.37,cs),
(669.333,254.37,o),
(710.838,225.077,o),
(710.838,186.996,cs),
(710.838,177.231,o),
(707.874,161.608,o),
(701.944,150.867,cs),
(697.003,143.056,o),
(691.074,135.244,o),
(684.156,127.433,cs),
(678.227,119.621,o),
(671.309,112.786,o),
(665.38,105.951,cs),
(608.063,43.458,o),
(530.982,0.495,o),
(431.171,0.495,cs),
(211.786,0.495,o),
(102.093,203.595,o),
(102.093,354.944,cs)
);
},
{
closed = 1;
nodes = (
(238.468,797.274,o),
(247.362,813.873,o),
(260.209,826.567,cs),
(488.488,1054.079,l),
(499.359,1063.843,o),
(517.147,1077.514,o),
(541.852,1077.514,cs),
(587.31,1077.514,o),
(621.898,1037.479,o),
(621.898,1005.257,cs),
(621.898,985.728,o),
(611.028,969.128,o),
(599.169,957.411,cs),
(368.913,728.923,ls),
(357.055,717.205,o),
(340.255,706.464,o),
(315.549,706.464,cs),
(268.115,706.464,o),
(238.468,748.452,o),
(238.468,778.721,cs)
);
}
);
width = 862;
}
);
unicode = 233;
},
{
glyphname = ecircumflex;
layers = (
{
layerId = "AC87092A-E990-4874-8484-9ECA7DC3ECD4";
shapes = (
{
closed = 1;
nodes = (
(574.463,475.047,l),
(544.817,529.728,o),
(500.347,568.786,o),
(431.171,568.786,cs),
(361.007,568.786,o),
(316.537,530.704,o),
(286.891,475.047,c)
);
},
{
closed = 1;
nodes = (
(102.093,508.246,o),
(208.821,709.394,o),
(431.171,709.394,cs),
(652.533,709.394,o),
(759.261,507.27,o),
(759.261,354.944,cs),
(759.261,334.439,l),
(254.279,334.439,l),
(263.173,243.629,o),
(330.373,141.103,o),
(431.171,141.103,cs),
(487.5,141.103,o),
(539.876,169.42,o),
(566.558,212.383,cs),
(569.522,216.289,o),
(571.499,220.195,o),
(574.463,224.101,cs),
(576.44,228.006,o),
(580.393,232.889,o),
(585.334,237.771,cs),
(595.216,247.535,o),
(609.051,254.37,o),
(628.816,254.37,cs),
(669.333,254.37,o),
(710.838,225.077,o),
(710.838,186.996,cs),
(710.838,177.231,o),
(707.874,161.608,o),
(701.944,150.867,cs),
(697.003,143.056,o),
(691.074,135.244,o),
(684.156,127.433,cs),
(678.227,119.621,o),
(671.309,112.786,o),
(665.38,105.951,cs),
(608.063,43.458,o),
(530.982,0.495,o),
(431.171,0.495,cs),
(211.786,0.495,o),
(102.093,203.595,o),
(102.093,354.944,cs)
);
},
{
closed = 1;
nodes = (
(140.634,847.072,o),
(151.504,862.696,o),
(163.363,874.413,cs),
(393.619,1102.901,l),
(407.454,1115.595,o),
(424.254,1125.359,o),
(448.959,1125.359,cs),
(472.677,1125.359,o),
(490.465,1113.642,o),
(502.323,1102.901,c),
(732.579,874.413,ls),
(744.438,862.696,o),
(755.308,847.072,o),
(755.308,826.567,cs),
(755.308,797.274,o),
(721.709,754.31,o),
(677.239,754.31,cs),
(653.521,754.31,o),
(635.733,767.004,o),
(624.863,776.768,c),
(446.983,952.529,l),
(271.079,776.768,ls),
(260.209,766.028,o),
(242.421,754.31,o),
(218.703,754.31,cs),
(174.233,754.31,o),
(140.634,797.274,o),
(140.634,826.567,cs)
);
}
);
width = 862;
}
);
unicode = 234;
},
{
glyphname = edieresis;
layers = (
{
layerId = "AC87092A-E990-4874-8484-9ECA7DC3ECD4";
shapes = (
{
closed = 1;
nodes = (
(574.463,475.047,l),
(544.817,529.728,o),
(500.347,568.786,o),
(431.171,568.786,cs),
(361.007,568.786,o),
(316.537,530.704,o),
(286.891,475.047,c)
);
},
{
closed = 1;
nodes = (
(102.093,508.246,o),
(208.821,709.394,o),
(431.171,709.394,cs),
(652.533,709.394,o),
(759.261,507.27,o),
(759.261,354.944,cs),
(759.261,334.439,l),
(254.279,334.439,l),
(263.173,243.629,o),
(330.373,141.103,o),
(431.171,141.103,cs),
(487.5,141.103,o),
(539.876,169.42,o),
(566.558,212.383,cs),
(569.522,216.289,o),
(571.499,220.195,o),
(574.463,224.101,cs),
(576.44,228.006,o),
(580.393,232.889,o),
(585.334,237.771,cs),
(595.216,247.535,o),
(609.051,254.37,o),
(628.816,254.37,cs),
(669.333,254.37,o),
(710.838,225.077,o),
(710.838,186.996,cs),
(710.838,177.231,o),
(707.874,161.608,o),
(701.944,150.867,cs),
(697.003,143.056,o),
(691.074,135.244,o),
(684.156,127.433,cs),
(678.227,119.621,o),
(671.309,112.786,o),
(665.38,105.951,cs),
(608.063,43.458,o),
(530.982,0.495,o),
(431.171,0.495,cs),
(211.786,0.495,o),
(102.093,203.595,o),
(102.093,354.944,cs)
);
},
{
closed = 1;
nodes = (
(491.453,899.801,o),
(515.17,937.882,o),
(578.416,937.882,cs),
(642.651,937.882,o),
(664.392,898.824,o),
(664.392,856.837,cs),
(664.392,815.826,o),
(643.639,774.816,o),
(578.416,774.816,cs),
(514.182,774.816,o),
(491.453,814.85,o),
(491.453,856.837,cs)
);
},
{
closed = 1;
nodes = (
(177.198,900.777,o),
(201.904,937.882,o),
(265.15,937.882,cs),
(329.384,937.882,o),
(350.137,897.848,o),
(350.137,856.837,cs),
(350.137,816.803,o),
(330.373,774.816,o),
(265.15,774.816,cs),
(200.915,774.816,o),
(177.198,812.897,o),
(177.198,856.837,cs)
);
}
);
width = 862;
}
);
unicode = 235;
},
{
glyphname = igrave;
layers = (
{
layerId = "AC87092A-E990-4874-8484-9ECA7DC3ECD4";
shapes = (
{
closed = 1;
nodes = (
(124.822,953.505,ls),
(112.964,965.222,o),
(102.093,981.822,o),
(102.093,1001.351,cs),
(102.093,1032.597,o),
(132.728,1073.608,o),
(180.163,1073.608,cs),
(204.868,1073.608,o),
(222.656,1058.961,o),
(232.539,1050.173,cs),
(463.783,822.661,ls),
(476.629,809.968,o),
(485.523,793.368,o),
(485.523,774.816,cs),
(485.523,746.499,o),
(451.924,702.559,o),
(408.442,702.559,cs),
(384.725,702.559,o),
(366.937,714.276,o),
(355.078,725.017,c)
);
},
{
closed = 1;
nodes = (
(219.692,639.09,ls),
(219.692,672.289,o),
(241.433,709.394,o),
(294.797,709.394,cs),
(348.161,709.394,o),
(370.89,673.265,o),
(370.89,639.09,cs),
(370.89,70.799,ls),
(370.89,36.623,o),
(348.161,0.495,o),
(294.797,0.495,cs),
(241.433,0.495,o),
(219.692,37.6,o),
(219.692,70.799,cs)
);
}
);
width = 660;
}
);
unicode = 236;
},
{
glyphname = iacute;
layers = (
{
layerId = "AC87092A-E990-4874-8484-9ECA7DC3ECD4";
shapes = (
{
closed = 1;
nodes = (
(109.011,639.09,ls),
(109.011,666.43,o),
(123.834,695.724,o),
(157.434,706.464,c),
(124.822,717.205,o),
(102.093,750.404,o),
(102.093,774.816,cs),
(102.093,794.344,o),
(112.964,810.944,o),
(124.822,822.661,cs),
(355.078,1050.173,l),
(365.949,1059.937,o),
(383.737,1073.608,o),
(408.442,1073.608,cs),
(455.877,1073.608,o),
(485.523,1031.621,o),
(485.523,1001.351,cs),
(485.523,982.798,o),
(476.629,966.199,o),
(463.783,953.505,cs),
(232.539,725.017,l),
(225.621,719.158,o),
(216.727,712.323,o),
(205.856,707.441,c),
(243.409,698.653,o),
(259.221,667.407,o),
(259.221,639.09,cs),
(259.221,70.799,ls),
(259.221,37.6,o),
(237.48,0.495,o),
(184.116,0.495,cs),
(130.752,0.495,o),
(109.011,37.6,o),
(109.011,70.799,cs)
);
}
);
width = 660;
}
);
unicode = 237;
},
{
glyphname = icircumflex;
layers = (
{
layerId = "AC87092A-E990-4874-8484-9ECA7DC3ECD4";
shapes = (
{
closed = 1;
nodes = (
(102.093,847.072,o),
(112.964,862.696,o),
(124.822,874.413,cs),
(355.078,1102.901,l),
(368.913,1115.595,o),
(385.713,1125.359,o),
(410.419,1125.359,cs),
(434.136,1125.359,o),
(451.924,1113.642,o),
(463.783,1102.901,c),
(694.038,874.413,ls),
(705.897,862.696,o),
(716.768,847.072,o),
(716.768,826.567,cs),
(716.768,798.25,o),
(683.168,754.31,o),
(639.686,754.31,cs),
(615.969,754.31,o),
(598.181,766.028,o),
(586.322,776.768,c),
(410.419,952.529,l),
(232.539,776.768,l),
(221.668,767.004,o),
(203.88,754.31,o),
(180.163,754.31,cs),
(135.693,754.31,o),
(102.093,797.274,o),
(102.093,826.567,cs)
);
},
{
closed = 1;
nodes = (
(333.337,639.09,ls),
(333.337,672.289,o),
(355.078,709.394,o),
(408.442,709.394,cs),
(461.806,709.394,o),
(483.547,672.289,o),
(483.547,639.09,cs),
(483.547,70.799,ls),
(483.547,37.6,o),
(461.806,0.495,o),
(408.442,0.495,cs),
(355.078,0.495,o),
(333.337,37.6,o),
(333.337,70.799,cs)
);
}
);
width = 657;
}
);
unicode = 238;
},
{
glyphname = idieresis;
layers = (
{
layerId = "AC87092A-E990-4874-8484-9ECA7DC3ECD4";
shapes = (
{
closed = 1;
nodes = (
(416.348,897.848,o),
(437.101,937.882,o),
(501.335,937.882,cs),
(564.581,937.882,o),
(589.287,900.777,o),
(589.287,856.837,cs),
(589.287,812.897,o),
(565.569,774.816,o),
(501.335,774.816,cs),
(436.112,774.816,o),
(416.348,816.803,o),
(416.348,856.837,cs)
);
},
{
closed = 1;
nodes = (
(102.093,898.824,o),
(123.834,937.882,o),
(188.068,937.882,cs),
(251.315,937.882,o),
(275.032,899.801,o),
(275.032,856.837,cs),
(275.032,814.85,o),
(252.303,774.816,o),
(188.068,774.816,cs),
(122.846,774.816,o),
(102.093,815.826,o),
(102.093,856.837,cs)
);
},
{
closed = 1;
nodes = (
(270.091,639.09,ls),
(270.091,673.265,o),
(292.82,709.394,o),
(346.184,709.394,cs),
(399.548,709.394,o),
(421.289,672.289,o),
(421.289,639.09,cs),
(421.289,70.799,ls),
(421.289,37.6,o),
(399.548,0.495,o),
(346.184,0.495,cs),
(292.82,0.495,o),
(270.091,36.623,o),
(270.091,70.799,cs)
);
}
);
width = 659;
}
);
unicode = 239;
},
{
glyphname = ntilde;
layers = (
{
layerId = "AC87092A-E990-4874-8484-9ECA7DC3ECD4";
shapes = (
{
closed = 1;
nodes = (
(122.846,740.64,o),
(102.093,774.816,o),
(102.093,812.897,cs),
(102.093,827.544,o),
(111.975,852.931,o),
(126.799,864.648,cs),
(132.728,868.554,o),
(139.646,873.436,o),
(145.575,876.366,cs),
(151.504,880.272,o),
(157.434,883.201,o),
(162.375,887.107,c),
(183.127,898.824,o),
(211.786,916.4,o),
(242.421,930.07,cs),
(272.067,943.741,o),
(307.643,955.458,o),
(339.267,955.458,cs),
(384.725,955.458,o),
(423.265,933.976,o),
(451.924,916.4,cs),
(465.759,907.612,o),
(478.606,899.801,o),
(489.476,892.965,cs),
(501.335,886.13,o),
(506.276,885.154,o),
(507.264,885.154,c),
(509.241,885.154,o),
(516.158,886.13,o),
(527.029,891.013,cs),
(537.899,894.918,o),
(549.758,899.801,o),
(562.605,905.659,cs),
(587.31,918.353,o),
(611.028,932.023,o),
(620.91,938.858,cs),
(624.863,941.788,o),
(626.839,943.741,o),
(629.804,945.693,cs),
(632.769,947.646,o),
(636.722,949.599,o),
(640.674,951.552,cs),
(649.568,955.458,o),
(659.451,957.411,o),
(671.309,957.411,cs),
(726.65,957.411,o),
(747.402,924.212,o),
(747.402,887.107,cs),
(747.402,873.436,o),
(739.497,846.096,o),
(721.709,833.402,cs),
(715.779,828.52,o),
(708.862,824.614,o),
(702.932,820.708,cs),
(697.003,817.779,o),
(691.074,814.85,o),
(685.144,811.92,cs),
(664.392,800.203,o),
(634.745,783.604,o),
(604.11,769.933,cs),
(573.475,756.263,o),
(537.899,744.546,o),
(507.264,744.546,cs),
(486.512,744.546,o),
(467.735,750.404,o),
(450.936,758.216,cs),
(435.124,765.051,o),
(419.313,774.816,o),
(405.477,783.604,cs),
(392.631,791.415,o),
(379.784,800.203,o),
(366.937,806.062,cs),
(355.078,811.92,o),
(346.184,814.85,o),
(339.267,814.85,cs),
(307.643,814.85,o),
(261.197,785.556,o),
(230.562,760.169,cs),
(218.703,749.428,o),
(204.868,740.64,o),
(180.163,740.64,cs)
);
},
{
closed = 1;
nodes = (
(136.681,639.09,ls),
(136.681,679.124,o),
(164.351,709.394,o),
(216.727,709.394,cs),
(248.35,709.394,o),
(268.115,694.747,o),
(277.997,676.195,c),
(324.443,703.535,o),
(382.748,709.394,o),
(431.171,709.394,cs),
(623.875,709.394,o),
(722.697,595.15,o),
(722.697,442.824,cs),
(722.697,72.752,ls),
(722.697,38.576,o),
(705.897,0.495,o),
(647.592,0.495,cs),
(589.287,0.495,o),
(572.487,38.576,o),
(572.487,72.752,cs),
(572.487,471.141,l),
(572.487,472.118,o),
(572.487,473.094,o),
(572.487,474.07,c),
(571.499,477,o),
(570.511,479.929,o),
(569.522,482.858,cs),
(567.546,489.694,o),
(565.569,495.552,o),
(563.593,499.458,cs),
(542.84,549.257,o),
(496.394,568.786,o),
(431.171,568.786,cs),
(366.937,568.786,o),
(323.455,547.304,o),
(298.749,498.482,cs),
(297.761,495.552,o),
(294.797,488.717,o),
(291.832,481.882,cs),
(290.844,477.976,o),
(288.867,475.047,o),
(287.879,472.118,c),
(287.879,70.799,l),
(287.879,33.694,o),
(267.126,0.495,o),
(211.786,0.495,cs),
(155.457,0.495,o),
(136.681,35.647,o),
(136.681,70.799,cs)
);
}
);
width = 862;
}
);
unicode = 241;
},
{
glyphname = ograve;
layers = (
{
layerId = "AC87092A-E990-4874-8484-9ECA7DC3ECD4";
shapes = (
{
closed = 1;
nodes = (
(253.291,260.229,o),
(322.467,141.103,o),
(431.171,141.103,cs),
(537.899,141.103,o),
(608.063,262.182,o),
(608.063,354.944,cs),
(608.063,450.636,o),
(541.852,568.786,o),
(431.171,568.786,cs),
(322.467,568.786,o),
(253.291,449.659,o),
(253.291,354.944,cs)
);
},
{
closed = 1;
nodes = (
(102.093,508.246,o),
(208.821,709.394,o),
(431.171,709.394,cs),
(652.533,709.394,o),
(759.261,507.27,o),
(759.261,354.944,cs),
(759.261,203.595,o),
(651.545,0.495,o),
(431.171,0.495,cs),
(211.786,0.495,o),
(102.093,203.595,o),
(102.093,354.944,cs)
);
},
{
closed = 1;
nodes = (
(310.608,953.505,ls),
(297.761,966.199,o),
(288.867,982.798,o),
(288.867,1001.351,cs),
(288.867,1031.621,o),
(318.514,1073.608,o),
(365.949,1073.608,cs),
(390.654,1073.608,o),
(408.442,1059.937,o),
(419.313,1050.173,c),
(649.568,822.661,ls),
(661.427,810.944,o),
(672.298,794.344,o),
(672.298,774.816,cs),
(672.298,745.522,o),
(638.698,702.559,o),
(594.228,702.559,cs),
(570.511,702.559,o),
(552.723,715.252,o),
(541.852,725.017,c)
);
}
);
width = 862;
}
);
unicode = 242;
},
{
glyphname = oacute;
layers = (
{
layerId = "AC87092A-E990-4874-8484-9ECA7DC3ECD4";
shapes = (
{
closed = 1;
nodes = (
(253.291,260.229,o),
(322.467,141.103,o),
(431.171,141.103,cs),
(537.899,141.103,o),
(608.063,262.182,o),
(608.063,354.944,cs),
(608.063,450.636,o),
(541.852,568.786,o),
(431.171,568.786,cs),
(322.467,568.786,o),
(253.291,449.659,o),
(253.291,354.944,cs)
);
},
{
closed = 1;
nodes = (
(102.093,508.246,o),
(208.821,709.394,o),
(431.171,709.394,cs),
(652.533,709.394,o),
(759.261,507.27,o),
(759.261,354.944,cs),
(759.261,203.595,o),
(651.545,0.495,o),
(431.171,0.495,cs),
(211.786,0.495,o),
(102.093,203.595,o),
(102.093,354.944,cs)
);
},
{
closed = 1;
nodes = (
(256.256,793.368,o),
(265.15,809.968,o),
(277.997,822.661,cs),
(509.241,1050.173,ls),
(520.111,1059.937,o),
(536.911,1073.608,o),
(562.605,1073.608,cs),
(610.04,1073.608,o),
(639.686,1031.621,o),
(639.686,1001.351,cs),
(639.686,982.798,o),
(630.792,966.199,o),
(617.945,953.505,cs),
(386.701,725.017,l),
(374.843,714.276,o),
(357.055,702.559,o),
(333.337,702.559,cs),
(289.855,702.559,o),
(256.256,746.499,o),
(256.256,774.816,cs)
);
}
);
width = 862;
}
);
unicode = 243;
},
{
glyphname = ocircumflex;
layers = (
{
layerId = "AC87092A-E990-4874-8484-9ECA7DC3ECD4";
shapes = (
{
closed = 1;
nodes = (
(253.291,260.229,o),
(322.467,141.103,o),
(431.171,141.103,cs),
(537.899,141.103,o),
(608.063,262.182,o),
(608.063,354.944,cs),
(608.063,450.636,o),
(541.852,568.786,o),
(431.171,568.786,cs),
(322.467,568.786,o),
(253.291,449.659,o),
(253.291,354.944,cs)
);
},
{
closed = 1;
nodes = (
(102.093,508.246,o),
(208.821,709.394,o),
(431.171,709.394,cs),
(652.533,709.394,o),
(759.261,507.27,o),
(759.261,354.944,cs),
(759.261,203.595,o),
(651.545,0.495,o),
(431.171,0.495,cs),
(211.786,0.495,o),
(102.093,203.595,o),
(102.093,354.944,cs)
);
},
{
closed = 1;
nodes = (
(140.634,847.072,o),
(151.504,862.696,o),
(163.363,874.413,cs),
(393.619,1102.901,l),
(407.454,1115.595,o),
(424.254,1125.359,o),
(448.959,1125.359,cs),
(472.677,1125.359,o),
(490.465,1113.642,o),
(502.323,1102.901,c),
(732.579,874.413,ls),
(744.438,862.696,o),
(755.308,847.072,o),
(755.308,826.567,cs),
(755.308,797.274,o),
(721.709,754.31,o),
(677.239,754.31,cs),
(653.521,754.31,o),
(635.733,767.004,o),
(624.863,776.768,c),
(446.983,952.529,l),
(271.079,776.768,ls),
(260.209,766.028,o),
(242.421,754.31,o),
(218.703,754.31,cs),
(174.233,754.31,o),
(140.634,797.274,o),
(140.634,826.567,cs)
);
}
);
width = 862;
}
);
unicode = 244;
},
{
glyphname = otilde;
layers = (
{
layerId = "AC87092A-E990-4874-8484-9ECA7DC3ECD4";
shapes = (
{
closed = 1;
nodes = (
(253.291,260.229,o),
(322.467,141.103,o),
(431.171,141.103,cs),
(537.899,141.103,o),
(608.063,262.182,o),
(608.063,354.944,cs),
(608.063,450.636,o),
(541.852,568.786,o),
(431.171,568.786,cs),
(322.467,568.786,o),
(253.291,449.659,o),
(253.291,354.944,cs)
);
},
{
closed = 1;
nodes = (
(102.093,508.246,o),
(208.821,709.394,o),
(431.171,709.394,cs),
(652.533,709.394,o),
(759.261,507.27,o),
(759.261,354.944,cs),
(759.261,203.595,o),
(651.545,0.495,o),
(431.171,0.495,cs),
(211.786,0.495,o),
(102.093,203.595,o),
(102.093,354.944,cs)
);
},
{
closed = 1;
nodes = (
(128.775,740.64,o),
(109.011,775.792,o),
(109.011,812.897,cs),
(109.011,827.544,o),
(117.905,850.978,o),
(132.728,863.672,cs),
(138.657,868.554,o),
(145.575,873.436,o),
(151.504,877.342,cs),
(157.434,880.272,o),
(163.363,883.201,o),
(168.304,887.107,c),
(189.057,898.824,o),
(218.703,916.4,o),
(249.338,930.07,cs),
(278.985,943.741,o),
(314.561,955.458,o),
(346.184,955.458,cs),
(391.642,955.458,o),
(430.183,933.976,o),
(457.853,916.4,cs),
(471.688,907.612,o),
(484.535,899.801,o),
(495.406,892.965,cs),
(507.264,886.13,o),
(513.194,885.154,o),
(514.182,885.154,cs),
(531.97,885.154,o),
(605.098,922.259,o),
(627.828,938.858,cs),
(630.792,940.811,o),
(633.757,942.764,o),
(635.733,944.717,cs),
(638.698,946.67,o),
(642.651,949.599,o),
(646.604,951.552,cs),
(655.498,955.458,o),
(665.38,957.411,o),
(677.239,957.411,cs),
(732.579,957.411,o),
(753.332,924.212,o),
(753.332,887.107,cs),
(753.332,872.46,o),
(744.438,846.096,o),
(727.638,833.402,cs),
(721.709,828.52,o),
(714.791,824.614,o),
(707.874,820.708,cs),
(701.944,817.779,o),
(696.015,814.85,o),
(690.086,811.92,cs),
(671.309,800.203,o),
(640.674,783.604,o),
(610.04,769.933,cs),
(580.393,757.24,o),
(543.829,744.546,o),
(514.182,744.546,cs),
(493.429,744.546,o),
(474.653,750.404,o),
(457.853,757.24,cs),
(441.053,765.051,o),
(425.242,774.816,o),
(411.407,783.604,cs),
(398.56,791.415,o),
(385.713,800.203,o),
(373.854,806.062,cs),
(361.996,811.92,o),
(353.102,814.85,o),
(346.184,814.85,cs),
(329.384,814.85,o),
(310.608,808.015,o),
(290.844,797.274,cs),
(272.067,786.533,o),
(253.291,771.886,o),
(237.48,759.192,cs),
(225.621,750.404,o),
(208.821,740.64,o),
(186.092,740.64,cs)
);
}
);
width = 862;
}
);
unicode = 245;
},
{
glyphname = odieresis;
layers = (
{
layerId = "AC87092A-E990-4874-8484-9ECA7DC3ECD4";
shapes = (
{
closed = 1;
nodes = (
(253.291,260.229,o),
(322.467,141.103,o),
(431.171,141.103,cs),
(537.899,141.103,o),
(608.063,262.182,o),
(608.063,354.944,cs),
(608.063,450.636,o),
(541.852,568.786,o),
(431.171,568.786,cs),
(322.467,568.786,o),
(253.291,449.659,o),
(253.291,354.944,cs)
);
},
{
closed = 1;
nodes = (
(102.093,508.246,o),
(208.821,709.394,o),
(431.171,709.394,cs),
(652.533,709.394,o),
(759.261,507.27,o),
(759.261,354.944,cs),
(759.261,203.595,o),
(651.545,0.495,o),
(431.171,0.495,cs),
(211.786,0.495,o),
(102.093,203.595,o),
(102.093,354.944,cs)
);
},
{
closed = 1;
nodes = (
(501.335,897.848,o),
(522.088,937.882,o),
(586.322,937.882,cs),
(649.568,937.882,o),
(674.274,900.777,o),
(674.274,856.837,cs),
(674.274,812.897,o),
(650.557,774.816,o),
(586.322,774.816,cs),
(521.099,774.816,o),
(501.335,816.803,o),
(501.335,856.837,cs)
);
},
{
closed = 1;
nodes = (
(187.08,900.777,o),
(211.786,937.882,o),
(275.032,937.882,cs),
(339.267,937.882,o),
(360.019,897.848,o),
(360.019,856.837,cs),
(360.019,816.803,o),
(340.255,774.816,o),
(275.032,774.816,cs),
(210.798,774.816,o),
(187.08,812.897,o),
(187.08,856.837,cs)
);
}
);
width = 862;
}
);
unicode = 246;
},
{
glyphname = divide;
layers = (
{
layerId = "AC87092A-E990-4874-8484-9ECA7DC3ECD4";
shapes = (
{
closed = 1;
nodes = (
(425.254,1035.526,o),
(463.794,1087.278,o),
(532.97,1087.278,cs),
(603.134,1087.278,o),
(638.71,1033.573,o),
(638.71,986.704,cs),
(638.71,940.811,o),
(604.122,884.177,o),
(532.97,884.177,cs),
(462.806,884.177,o),
(425.254,939.835,o),
(425.254,986.704,cs)
);
},
{
closed = 1;
nodes = (
(214.762,622.49,ls),
(162.386,622.49,o),
(139.657,659.595,o),
(139.657,692.794,cs),
(139.657,725.993,o),
(162.386,763.098,o),
(214.762,763.098,cs),
(851.178,763.098,ls),
(903.553,763.098,o),
(926.282,725.993,o),
(926.282,692.794,cs),
(926.282,659.595,o),
(903.553,622.49,o),
(851.178,622.49,cs)
);
},
{
closed = 1;
nodes = (
(425.254,449.659,o),
(463.794,501.411,o),
(532.97,501.411,cs),
(603.134,501.411,o),
(638.71,447.706,o),
(638.71,400.837,cs),
(638.71,354.944,o),
(604.122,298.31,o),
(532.97,298.31,cs),
(462.806,298.31,o),
(425.254,353.968,o),
(425.254,400.837,cs)
);
}
);
width = 1065;
}
);
unicode = 247;
},
